<?xml version="1.0" encoding="utf-8"?>
<svg width="1155.000000" height="866.000000" xmlns="http://www.w3.org/2000/svg">
  <path style="opacity:1;fill:#EAAC86;fill-rule:evenodd;stroke:#EAAC86;stroke-width:0.5px;stroke-linecap:butt;stroke-linejoin:miter;stroke-opacity:1;" d="M 516.5 258.2 L 518.0 258.0 L 516.0 260.2 Q 514.0 262.5 511.5 263.5 Q 509.0 264.5 511.2 265.8 Q 513.5 267.0 512.8 269.0 Q 512.0 271.0 510.5 271.0 Q 509.0 271.0 508.5 273.5 Q 508.0 276.0 507.2 276.5 Q 506.5 277.0 506.2 281.2 Q 506.0 285.5 514.8 289.2 Q 523.5 293.0 523.8 293.2 L 524.0 293.5 L 524.2 293.8 L 524.5 294.0 L 524.8 294.2 L 525.0 294.5 L 525.2 294.8 L 525.5 295.0 L 525.8 295.2 L 526.0 295.5 L 526.2 295.8 L 526.5 296.0 L 526.8 296.2 L 527.0 296.5 L 527.2 296.8 L 527.5 297.0 L 527.8 297.2 L 528.0 297.5 L 528.2 297.8 L 528.5 298.0 L 528.8 298.2 L 529.0 298.5 L 529.2 298.8 L 529.5 299.0 L 529.8 300.0 L 530.0 301.0 L 528.5 300.8 L 527.0 300.5 L 526.0 300.0 L 525.0 299.5 L 524.8 299.2 L 524.5 299.0 L 524.2 298.8 Q 524.0 298.5 521.5 297.8 Q 519.0 297.0 519.0 298.0 Q 519.0 299.0 518.0 299.0 L 517.0 299.0 L 517.2 300.0 L 517.5 301.0 L 517.5 301.5 L 517.5 302.0 L 517.2 302.2 L 517.0 302.5 L 514.5 303.0 L 512.0 303.5 L 513.0 304.0 L 514.0 304.5 L 515.0 304.8 Q 516.0 305.0 516.0 306.0 Q 516.0 307.0 519.2 308.5 Q 522.5 310.0 521.5 311.0 Q 520.5 312.0 520.2 312.8 Q 520.0 313.5 523.0 315.5 Q 526.0 317.5 525.0 317.8 Q 524.0 318.0 527.2 323.5 Q 530.5 329.0 530.8 330.0 L 531.0 331.0 L 529.0 331.0 Q 527.0 331.0 527.2 332.0 Q 527.5 333.0 525.2 334.0 L 523.0 335.0 L 523.0 337.0 L 523.0 339.0 L 522.5 339.2 Q 522.0 339.5 522.0 339.8 L 522.0 340.0 L 522.0 340.2 Q 522.0 340.5 521.0 340.8 Q 520.0 341.0 519.0 345.0 Q 518.0 349.0 514.5 350.2 Q 511.0 351.5 502.0 351.5 Q 493.0 351.5 491.0 350.0 Q 489.0 348.5 486.0 347.8 Q 483.0 347.0 482.5 349.0 Q 482.0 351.0 477.5 352.8 Q 473.0 354.5 464.0 355.2 Q 455.0 356.0 454.8 357.0 Q 454.5 358.0 452.8 358.8 L 451.0 359.5 L 449.0 360.0 L 447.0 360.5 L 445.0 360.8 L 443.0 361.0 L 438.5 360.8 Q 434.0 360.5 428.5 362.0 Q 423.0 363.5 420.0 364.0 Q 417.0 364.5 411.0 361.5 Q 405.0 358.5 402.0 358.0 Q 399.0 357.5 395.5 359.0 Q 392.0 360.5 387.0 361.5 Q 382.0 362.5 375.0 360.5 Q 368.0 358.5 361.5 357.5 Q 355.0 356.5 356.0 358.0 Q 357.0 359.5 332.0 360.0 Q 307.0 360.5 284.0 360.5 Q 261.0 360.5 253.0 363.0 Q 245.0 365.5 238.5 365.5 Q 232.0 365.5 222.0 367.0 Q 212.0 368.5 206.5 366.0 Q 201.0 363.5 196.0 366.0 Q 191.0 368.5 187.0 369.0 Q 183.0 369.5 177.0 366.8 Q 171.0 364.0 170.8 365.0 Q 170.5 366.0 167.2 368.8 Q 164.0 371.5 160.0 373.5 Q 156.0 375.5 147.5 380.5 Q 139.0 385.5 134.5 385.8 Q 130.0 386.0 127.8 379.0 L 125.5 372.0 L 125.2 371.8 L 125.0 371.5 L 124.8 371.2 L 124.5 371.0 L 124.2 370.8 L 124.0 370.5 L 123.8 370.2 L 123.5 370.0 L 123.2 369.8 L 123.0 369.5 L 122.8 369.2 L 122.5 369.0 L 122.2 368.8 L 122.0 368.5 L 121.8 368.2 L 121.5 368.0 L 121.0 367.0 L 120.5 366.0 L 120.2 366.0 L 120.0 366.0 L 119.8 363.0 Q 119.5 360.0 118.2 358.2 Q 117.0 356.5 114.8 350.8 Q 112.5 345.0 112.5 337.5 Q 112.5 330.0 113.8 326.5 L 115.0 323.0 L 115.5 322.8 L 116.0 322.5 L 116.2 322.2 L 116.5 322.0 L 116.8 321.8 L 117.0 321.5 L 118.0 321.0 L 119.0 320.5 L 119.2 320.2 L 119.5 320.0 L 119.8 319.8 L 120.0 319.5 L 132.0 317.0 Q 144.0 314.5 179.8 308.8 Q 215.5 303.0 215.8 303.0 L 216.0 303.0 L 220.0 302.8 L 224.0 302.5 L 331.0 286.0 Q 438.0 269.5 446.0 269.0 Q 454.0 268.5 476.5 265.0 Q 499.0 261.5 507.0 260.0 Q 515.0 258.5 516.5 258.2 z &#10;M 509.2 269.8 Q 509.0 269.5 509.2 269.2 Q 509.5 269.0 509.5 269.5 Q 509.5 270.0 509.2 269.8 z &#10;"/>
  <path style="opacity:1;fill:#9BCECA;fill-rule:evenodd;stroke:#9BCECA;stroke-width:0.5px;stroke-linecap:butt;stroke-linejoin:miter;stroke-opacity:1;" d="M 705.8 540.0 L 703.0 537.0 L 706.8 539.5 Q 710.5 542.0 710.8 542.2 L 711.0 542.5 L 712.0 543.0 L 713.0 543.5 L 713.2 543.8 L 713.5 544.0 L 713.8 544.2 L 714.0 544.5 L 715.0 544.8 L 716.0 545.0 L 719.5 547.8 Q 723.0 550.5 739.8 561.8 Q 756.5 573.0 785.2 591.8 Q 814.0 610.5 816.0 612.0 Q 818.0 613.5 819.0 614.0 L 820.0 614.5 L 821.0 615.0 L 822.0 615.5 L 823.0 616.0 L 824.0 616.5 L 825.0 616.8 L 826.0 617.0 L 826.0 617.2 Q 826.0 617.5 826.5 617.8 L 827.0 618.0 L 841.2 627.5 Q 855.5 637.0 862.8 642.8 Q 870.0 648.5 878.5 653.5 Q 887.0 658.5 890.8 663.2 Q 894.5 668.0 894.5 676.5 Q 894.5 685.0 893.0 691.0 Q 891.5 697.0 888.2 702.8 Q 885.0 708.5 883.2 712.2 Q 881.5 716.0 879.5 724.5 Q 877.5 733.0 876.0 750.0 Q 874.5 767.0 871.8 773.2 Q 869.0 779.5 863.0 784.0 Q 857.0 788.5 855.8 789.8 Q 854.5 791.0 852.5 797.0 Q 850.5 803.0 850.2 803.2 L 850.0 803.5 L 849.8 803.8 L 849.5 804.0 L 849.2 804.2 L 849.0 804.5 L 848.0 805.0 L 847.0 805.5 L 846.0 805.5 L 845.0 805.5 L 843.5 805.0 L 842.0 804.5 L 841.8 804.2 L 841.5 804.0 L 841.2 803.8 L 841.0 803.5 L 840.8 803.2 L 840.5 803.0 L 840.2 802.8 L 840.0 802.5 L 839.8 802.2 L 839.5 802.0 L 839.2 801.8 Q 839.0 801.5 838.0 800.5 L 837.0 799.5 L 836.8 799.2 L 836.5 799.0 L 836.2 798.8 L 836.0 798.5 L 835.8 798.2 L 835.5 798.0 L 835.0 797.0 L 834.5 796.0 L 834.2 795.8 L 834.0 795.5 L 833.8 795.2 L 833.5 795.0 L 833.2 795.0 L 833.0 795.0 L 833.0 794.8 Q 833.0 794.5 833.2 790.8 Q 833.5 787.0 829.2 781.0 L 825.0 775.0 L 824.8 774.0 L 824.5 773.0 L 824.0 771.0 L 823.5 769.0 L 823.0 766.0 Q 822.5 763.0 821.5 753.0 Q 820.5 743.0 818.5 737.0 Q 816.5 731.0 815.2 710.5 Q 814.0 690.0 812.0 690.0 L 810.0 690.0 L 809.5 689.8 L 809.0 689.5 L 808.8 689.2 L 808.5 689.0 L 808.2 688.8 L 808.0 688.5 L 807.0 688.0 L 806.0 687.5 L 805.8 687.2 L 805.5 687.0 L 805.2 686.8 L 805.0 686.5 L 802.0 686.0 Q 799.0 685.5 797.5 685.0 Q 796.0 684.5 791.2 677.8 Q 786.5 671.0 778.2 664.8 Q 770.0 658.5 764.5 652.0 Q 759.0 645.5 747.0 639.5 Q 735.0 633.5 730.5 628.5 L 726.0 623.5 L 725.8 623.2 L 725.5 623.0 L 725.0 622.0 L 724.5 621.0 L 724.2 620.0 L 724.0 619.0 L 723.0 618.8 L 722.0 618.5 L 721.8 618.2 L 721.5 618.0 L 721.2 617.8 L 721.0 617.5 L 720.0 617.2 L 719.0 617.0 L 719.0 616.0 L 719.0 615.0 L 720.0 615.2 L 721.0 615.5 L 721.2 615.8 L 721.5 616.0 L 721.8 616.2 L 722.0 616.5 L 722.2 616.8 L 722.5 617.0 L 722.8 617.2 L 723.0 617.5 L 724.5 618.0 L 726.0 618.5 L 726.2 618.8 L 726.5 619.0 L 726.8 619.2 L 727.0 619.5 L 727.2 619.8 L 727.5 620.0 L 727.8 619.8 L 728.0 619.5 L 728.2 619.2 L 728.5 619.0 L 731.2 620.8 Q 734.0 622.5 737.5 623.5 Q 741.0 624.5 742.0 625.0 L 743.0 625.5 L 743.2 625.8 L 743.5 626.0 L 743.8 626.2 L 744.0 626.5 L 745.0 626.5 L 746.0 626.5 L 747.5 626.0 L 749.0 625.5 L 748.8 625.2 L 748.5 625.0 L 748.2 624.8 L 748.0 624.5 L 747.0 624.0 L 746.0 623.5 L 747.0 623.0 L 748.0 622.5 L 747.0 622.0 L 746.0 621.5 L 745.8 621.2 L 745.5 621.0 L 745.2 620.8 L 745.0 620.5 L 744.0 620.0 Q 743.0 619.5 733.5 613.2 Q 724.0 607.0 724.8 604.5 Q 725.5 602.0 724.5 599.0 Q 723.5 596.0 723.0 593.5 Q 722.5 591.0 718.5 588.0 Q 714.5 585.0 715.2 584.2 Q 716.0 583.5 715.0 582.5 L 714.0 581.5 L 713.8 581.2 L 713.5 581.0 L 713.2 580.8 L 713.0 580.5 L 712.8 580.2 L 712.5 580.0 L 712.0 579.0 L 711.5 578.0 L 711.5 577.0 L 711.5 576.0 L 711.8 575.8 L 712.0 575.5 L 712.2 575.2 L 712.5 575.0 L 712.8 574.8 L 713.0 574.5 L 713.2 574.2 L 713.5 574.0 L 713.8 573.8 L 714.0 573.5 L 717.0 573.0 Q 720.0 572.5 721.5 573.0 L 723.0 573.5 L 723.2 573.8 L 723.5 574.0 L 723.8 573.0 L 724.0 572.0 L 723.0 571.8 L 722.0 571.5 L 721.8 571.2 L 721.5 571.0 L 721.2 570.8 L 721.0 570.5 L 720.8 570.2 L 720.5 570.0 L 720.2 569.8 Q 720.0 569.5 719.2 568.8 Q 718.5 568.0 719.2 566.0 Q 720.0 564.0 718.5 564.2 Q 717.0 564.5 715.8 561.2 Q 714.5 558.0 714.5 555.0 Q 714.5 552.0 711.8 547.8 L 709.0 543.5 L 708.8 543.2 Q 708.5 543.0 705.8 540.0 z &#10;M 722.2 566.8 Q 722.0 566.5 722.2 566.2 Q 722.5 566.0 722.5 566.5 Q 722.5 567.0 722.2 566.8 z &#10;M 725.2 594.8 Q 725.0 594.5 725.2 594.2 Q 725.5 594.0 725.5 594.5 Q 725.5 595.0 725.2 594.8 z &#10;M 727.0 601.0 Q 727.0 600.0 728.5 600.8 Q 730.0 601.5 728.5 601.8 Q 727.0 602.0 727.0 601.0 z &#10;M 727.2 606.8 Q 727.0 606.5 727.2 606.2 Q 727.5 606.0 727.5 606.5 Q 727.5 607.0 727.2 606.8 z &#10;M 748.0 628.0 Q 748.0 627.0 749.0 627.0 L 750.0 627.0 L 750.0 628.0 L 750.0 629.0 L 749.0 629.0 Q 748.0 629.0 748.0 628.0 z &#10;"/>
  <path style="opacity:1;fill:#F3B389;fill-rule:evenodd;stroke:#F3B389;stroke-width:0.5px;stroke-linecap:butt;stroke-linejoin:miter;stroke-opacity:1;" d="M 669.0 259.8 L 670.0 260.0 L 670.2 261.0 L 670.5 262.0 L 670.8 262.2 L 671.0 262.5 L 671.5 262.8 L 672.0 263.0 L 679.8 269.0 Q 687.5 275.0 688.5 277.0 Q 689.5 279.0 690.0 281.0 L 690.5 283.0 L 690.8 283.2 L 691.0 283.5 L 691.5 283.8 L 692.0 284.0 L 692.2 285.0 Q 692.5 286.0 694.0 288.0 Q 695.5 290.0 696.0 300.5 Q 696.5 311.0 694.0 316.0 Q 691.5 321.0 678.0 335.5 Q 664.5 350.0 659.2 353.0 L 654.0 356.0 L 652.5 355.8 L 651.0 355.5 L 650.0 355.0 L 649.0 354.5 L 648.8 354.2 L 648.5 354.0 L 648.2 353.8 L 648.0 353.5 L 647.8 353.2 L 647.5 353.0 L 647.2 353.2 L 647.0 353.5 L 645.0 353.8 Q 643.0 354.0 642.8 353.0 Q 642.5 352.0 642.0 353.0 Q 641.5 354.0 633.8 353.2 Q 626.0 352.5 623.0 351.5 Q 620.0 350.5 606.5 350.5 Q 593.0 350.5 590.5 349.0 Q 588.0 347.5 585.5 345.0 Q 583.0 342.5 577.5 342.2 Q 572.0 342.0 572.0 343.0 Q 572.0 344.0 569.5 344.8 Q 567.0 345.5 557.5 343.0 Q 548.0 340.5 543.5 341.2 Q 539.0 342.0 539.0 343.0 Q 539.0 344.0 536.2 343.0 Q 533.5 342.0 528.8 339.5 L 524.0 337.0 L 524.0 338.5 L 524.0 340.0 L 523.0 340.0 L 522.0 340.0 L 522.2 339.0 L 522.5 338.0 L 522.8 336.5 L 523.0 335.0 L 525.2 334.0 Q 527.5 333.0 527.2 332.0 Q 527.0 331.0 529.0 331.0 L 531.0 331.0 L 530.8 330.0 Q 530.5 329.0 527.2 323.5 Q 524.0 318.0 525.0 317.8 Q 526.0 317.5 523.0 315.5 Q 520.0 313.5 520.2 312.8 Q 520.5 312.0 521.5 311.0 Q 522.5 310.0 519.2 308.5 Q 516.0 307.0 516.0 306.0 Q 516.0 305.0 515.0 304.8 L 514.0 304.5 L 513.0 304.0 L 512.0 303.5 L 514.5 303.0 L 517.0 302.5 L 517.2 302.2 L 517.5 302.0 L 517.5 301.5 L 517.5 301.0 L 517.2 300.0 L 517.0 299.0 L 518.0 299.0 Q 519.0 299.0 519.0 298.0 Q 519.0 297.0 521.5 297.8 Q 524.0 298.5 524.2 298.8 L 524.5 299.0 L 524.8 299.2 L 525.0 299.5 L 526.0 300.0 L 527.0 300.5 L 528.5 300.8 L 530.0 301.0 L 529.8 300.0 L 529.5 299.0 L 529.2 298.8 L 529.0 298.5 L 528.8 298.2 L 528.5 298.0 L 528.2 297.8 L 528.0 297.5 L 527.8 297.2 L 527.5 297.0 L 527.2 296.8 L 527.0 296.5 L 526.8 296.2 L 526.5 296.0 L 526.2 295.8 L 526.0 295.5 L 525.8 295.2 L 525.5 295.0 L 525.2 294.8 L 525.0 294.5 L 524.8 294.2 L 524.5 294.0 L 524.2 293.8 L 524.0 293.5 L 523.8 293.2 Q 523.5 293.0 514.8 289.2 Q 506.0 285.5 506.2 281.2 Q 506.5 277.0 507.2 276.5 Q 508.0 276.0 508.8 273.0 Q 509.5 270.0 511.2 269.5 Q 513.0 269.0 513.2 268.0 Q 513.5 267.0 511.2 265.8 Q 509.0 264.5 511.5 263.5 Q 514.0 262.5 516.0 260.2 L 518.0 258.0 L 559.0 251.2 Q 600.0 244.5 612.5 246.0 Q 625.0 247.5 637.0 250.0 Q 649.0 252.5 658.5 256.0 Q 668.0 259.5 669.0 259.8 z &#10;M 600.5 348.8 Q 602.0 348.0 602.0 349.0 Q 602.0 350.0 600.5 349.8 Q 599.0 349.5 600.5 348.8 z &#10;"/>
  <path style="opacity:1;fill:#22221E;fill-rule:evenodd;stroke:#22221E;stroke-width:0.5px;stroke-linecap:butt;stroke-linejoin:miter;stroke-opacity:1;" d="M 518.5 590.8 L 515.0 586.0 L 516.0 586.0 Q 517.0 586.0 519.5 588.8 Q 522.0 591.5 523.0 591.8 Q 524.0 592.0 524.0 593.0 Q 524.0 594.0 527.0 595.8 Q 530.0 597.5 531.0 597.8 L 532.0 598.0 L 532.0 598.2 Q 532.0 598.5 532.2 598.8 L 532.5 599.0 L 532.8 599.2 L 533.0 599.5 L 534.0 600.0 L 535.0 600.5 L 536.0 601.0 L 537.0 601.5 L 538.0 602.0 L 539.0 602.5 L 549.0 609.5 Q 559.0 616.5 569.8 624.8 Q 580.5 633.0 611.8 654.8 Q 643.0 676.5 681.5 703.5 Q 720.0 730.5 721.0 730.8 Q 722.0 731.0 723.5 732.8 Q 725.0 734.5 747.5 750.0 Q 770.0 765.5 775.5 767.5 Q 781.0 769.5 788.0 775.5 Q 795.0 781.5 796.0 781.8 L 797.0 782.0 L 797.0 782.2 Q 797.0 782.5 797.5 782.8 L 798.0 783.0 L 798.5 783.8 Q 799.0 784.5 799.2 784.8 L 799.5 785.0 L 799.8 785.2 L 800.0 785.5 L 800.2 785.8 L 800.5 786.0 L 800.8 786.2 L 801.0 786.5 L 802.5 787.0 Q 804.0 787.5 805.0 788.0 Q 806.0 788.5 811.8 794.2 Q 817.5 800.0 818.5 804.0 Q 819.5 808.0 817.2 809.8 Q 815.0 811.5 808.8 820.8 Q 802.5 830.0 792.2 831.2 Q 782.0 832.5 777.0 832.5 Q 772.0 832.5 771.2 830.8 Q 770.5 829.0 764.5 824.0 Q 758.5 819.0 754.8 817.8 Q 751.0 816.5 747.5 814.5 Q 744.0 812.5 738.0 813.2 Q 732.0 814.0 731.8 815.5 Q 731.5 817.0 729.5 819.5 L 727.5 822.0 L 727.0 823.0 L 726.5 824.0 L 726.2 824.2 L 726.0 824.5 L 725.8 824.8 L 725.5 825.0 L 725.2 825.2 L 725.0 825.5 L 724.0 825.8 L 723.0 826.0 L 722.8 823.5 L 722.5 821.0 L 722.2 820.8 L 722.0 820.5 L 721.8 820.2 L 721.5 820.0 L 721.5 817.5 L 721.5 815.0 L 721.8 814.0 L 722.0 813.0 L 722.2 812.5 Q 722.5 812.0 723.0 811.5 Q 723.5 811.0 724.5 808.0 Q 725.5 805.0 722.8 801.2 Q 720.0 797.5 711.5 792.2 Q 703.0 787.0 703.0 786.0 Q 703.0 785.0 702.0 785.2 Q 701.0 785.5 698.0 784.5 Q 695.0 783.5 693.8 781.2 Q 692.5 779.0 685.8 774.8 Q 679.0 770.5 676.5 766.8 Q 674.0 763.0 667.5 762.5 Q 661.0 762.0 660.0 759.0 Q 659.0 756.0 656.0 755.2 Q 653.0 754.5 650.5 755.0 Q 648.0 755.5 645.8 750.8 Q 643.5 746.0 638.8 743.5 Q 634.0 741.0 632.5 738.8 Q 631.0 736.5 622.8 735.2 Q 614.5 734.0 613.8 729.0 L 613.0 724.0 L 612.8 723.0 Q 612.5 722.0 611.5 721.0 Q 610.5 720.0 601.8 712.8 Q 593.0 705.5 588.5 704.8 Q 584.0 704.0 582.8 701.0 Q 581.5 698.0 576.2 694.2 Q 571.0 690.5 567.5 686.2 Q 564.0 682.0 556.5 678.5 Q 549.0 675.0 548.5 673.0 Q 548.0 671.0 545.0 669.8 Q 542.0 668.5 536.5 663.0 Q 531.0 657.5 526.0 655.0 Q 521.0 652.5 514.2 646.8 Q 507.5 641.0 503.2 639.2 Q 499.0 637.5 494.2 634.2 Q 489.5 631.0 485.8 629.8 Q 482.0 628.5 480.8 629.8 L 479.5 631.0 L 479.2 631.2 L 479.0 631.5 L 478.8 631.8 L 478.5 632.0 L 478.2 632.2 L 478.0 632.5 L 477.8 632.8 L 477.5 633.0 L 477.2 634.0 L 477.0 635.0 L 476.0 635.0 L 475.0 635.0 L 475.2 634.0 L 475.5 633.0 L 476.0 632.0 L 476.5 631.0 L 476.8 630.8 L 477.0 630.5 L 477.2 630.2 L 477.5 630.0 L 478.0 628.5 L 478.5 627.0 L 478.8 626.8 L 479.0 626.5 L 485.2 619.8 Q 491.5 613.0 494.0 609.0 Q 496.5 605.0 501.2 599.2 Q 506.0 593.5 511.0 594.2 Q 516.0 595.0 517.2 597.5 Q 518.5 600.0 518.8 600.2 L 519.0 600.5 L 520.0 601.0 L 521.0 601.5 L 521.2 601.8 L 521.5 602.0 L 521.8 602.2 L 522.0 602.5 L 524.0 602.8 L 526.0 603.0 L 526.2 602.0 L 526.5 601.0 L 526.8 600.8 L 527.0 600.5 L 526.8 600.2 L 526.5 600.0 L 526.2 599.8 L 526.0 599.5 L 525.8 599.2 L 525.5 599.0 L 525.2 598.8 L 525.0 598.5 L 524.8 598.2 L 524.5 598.0 L 524.2 597.8 L 524.0 597.5 L 523.8 597.2 L 523.5 597.0 L 523.2 596.8 L 523.0 596.5 L 522.8 596.2 L 522.5 596.0 L 522.2 595.8 Q 522.0 595.5 518.5 590.8 z &#10;"/>
  <path style="opacity:1;fill:#9ACAC7;fill-rule:evenodd;stroke:#9ACAC7;stroke-width:0.5px;stroke-linecap:butt;stroke-linejoin:miter;stroke-opacity:1;" d="M 494.0 402.8 L 496.0 403.0 L 496.0 403.2 L 496.0 403.5 L 497.0 404.0 L 498.0 404.5 L 498.2 404.8 L 498.5 405.0 L 498.8 405.2 L 499.0 405.5 L 500.0 406.0 L 501.0 406.5 L 502.0 407.0 L 503.0 407.5 L 509.8 412.2 Q 516.5 417.0 530.2 425.8 Q 544.0 434.5 552.0 440.0 Q 560.0 445.5 568.5 451.5 Q 577.0 457.5 577.5 458.0 Q 578.0 458.5 579.0 459.0 L 580.0 459.5 L 580.2 459.8 L 580.5 460.0 L 580.8 460.2 L 581.0 460.5 L 581.2 460.8 L 581.5 461.0 L 581.8 461.2 L 582.0 461.5 L 583.0 462.0 L 584.0 462.5 L 585.0 462.8 L 586.0 463.0 L 625.5 487.8 Q 665.0 512.5 675.5 519.5 Q 686.0 526.5 688.5 528.0 Q 691.0 529.5 692.0 529.8 L 693.0 530.0 L 693.0 530.2 L 693.0 530.5 L 694.0 531.0 L 695.0 531.5 L 696.0 532.0 L 697.0 532.5 L 697.2 532.8 L 697.5 533.0 L 697.8 533.2 L 698.0 533.5 L 698.2 533.8 L 698.5 534.0 L 698.8 534.2 L 699.0 534.5 L 700.5 535.5 Q 702.0 536.5 702.5 536.8 L 703.0 537.0 L 703.0 537.2 Q 703.0 537.5 703.5 537.8 L 704.0 538.0 L 704.0 538.2 Q 704.0 538.5 704.5 538.8 L 705.0 539.0 L 706.8 541.0 Q 708.5 543.0 708.8 543.2 L 709.0 543.5 L 711.8 547.8 Q 714.5 552.0 714.5 555.0 Q 714.5 558.0 715.8 561.2 Q 717.0 564.5 720.0 565.5 Q 723.0 566.5 720.8 567.2 Q 718.5 568.0 719.2 568.8 Q 720.0 569.5 720.2 569.8 L 720.5 570.0 L 720.8 570.2 L 721.0 570.5 L 721.2 570.8 L 721.5 571.0 L 721.8 571.2 L 722.0 571.5 L 723.0 571.8 L 724.0 572.0 L 723.8 573.0 L 723.5 574.0 L 723.2 573.8 L 723.0 573.5 L 721.5 573.0 Q 720.0 572.5 717.0 573.0 L 714.0 573.5 L 713.8 573.8 L 713.5 574.0 L 713.2 574.2 L 713.0 574.5 L 712.8 574.8 L 712.5 575.0 L 712.2 575.2 L 712.0 575.5 L 711.8 575.8 L 711.5 576.0 L 711.5 577.0 L 711.5 578.0 L 712.0 579.0 L 712.5 580.0 L 712.8 580.2 L 713.0 580.5 L 713.2 580.8 L 713.5 581.0 L 713.8 581.2 L 714.0 581.5 L 715.5 582.2 Q 717.0 583.0 717.0 584.8 Q 717.0 586.5 721.2 590.8 Q 725.5 595.0 725.2 596.8 Q 725.0 598.5 727.5 600.0 Q 730.0 601.5 729.0 601.8 Q 728.0 602.0 727.5 602.8 Q 727.0 603.5 726.2 603.8 Q 725.5 604.0 726.8 604.5 Q 728.0 605.0 728.2 607.5 Q 728.5 610.0 735.8 614.8 Q 743.0 619.5 744.0 620.0 L 745.0 620.5 L 745.2 620.8 L 745.5 621.0 L 745.8 621.2 L 746.0 621.5 L 747.0 622.0 L 748.0 622.5 L 747.0 623.0 L 746.0 623.5 L 747.0 624.0 L 748.0 624.5 L 748.2 624.8 L 748.5 625.0 L 748.5 625.5 L 748.5 626.0 L 748.2 626.2 L 748.0 626.5 L 749.0 626.8 L 750.0 627.0 L 750.0 628.0 L 750.0 629.0 L 749.0 628.8 L 748.0 628.5 L 747.0 628.0 L 746.0 627.5 L 745.0 627.0 L 744.0 626.5 L 743.8 626.2 L 743.5 626.0 L 743.2 625.8 L 743.0 625.5 L 742.0 625.0 Q 741.0 624.5 737.5 623.5 Q 734.0 622.5 731.2 620.8 L 728.5 619.0 L 728.2 619.2 L 728.0 619.5 L 727.8 619.8 L 727.5 620.0 L 727.2 619.8 L 727.0 619.5 L 726.8 619.2 L 726.5 619.0 L 726.2 618.8 L 726.0 618.5 L 724.5 618.0 L 723.0 617.5 L 722.8 617.2 L 722.5 617.0 L 722.2 616.8 L 722.0 616.5 L 721.8 616.2 L 721.5 616.0 L 721.5 617.0 L 721.5 618.0 L 721.8 618.2 L 722.0 618.5 L 723.0 618.8 L 724.0 619.0 L 724.2 620.0 L 724.5 621.0 L 725.0 622.0 L 725.5 623.0 L 725.8 623.2 L 726.0 623.5 L 730.5 628.5 Q 735.0 633.5 747.0 639.5 Q 759.0 645.5 764.5 652.0 Q 770.0 658.5 778.2 664.8 Q 786.5 671.0 791.2 677.8 Q 796.0 684.5 797.5 685.0 Q 799.0 685.5 802.0 686.0 L 805.0 686.5 L 805.2 686.8 L 805.5 687.0 L 805.8 687.2 L 806.0 687.5 L 807.0 688.0 L 808.0 688.5 L 808.2 688.8 L 808.5 689.0 L 808.8 689.2 L 809.0 689.5 L 809.5 689.8 L 810.0 690.0 L 810.0 690.2 L 810.0 690.5 L 808.5 690.5 L 807.0 690.5 L 805.0 690.0 L 803.0 689.5 L 802.8 689.2 L 802.5 689.0 L 802.2 689.2 L 802.0 689.5 L 799.5 689.5 Q 797.0 689.5 794.0 688.2 Q 791.0 687.0 787.8 683.0 Q 784.5 679.0 775.8 673.0 Q 767.0 667.0 767.0 666.0 Q 767.0 665.0 746.0 652.2 Q 725.0 639.5 721.0 634.5 Q 717.0 629.5 712.0 627.5 Q 707.0 625.5 703.8 623.8 Q 700.5 622.0 690.2 618.2 Q 680.0 614.5 678.0 614.8 Q 676.0 615.0 676.0 614.0 Q 676.0 613.0 672.5 611.2 Q 669.0 609.5 664.8 604.2 Q 660.5 599.0 655.0 595.0 Q 649.5 591.0 638.0 586.5 Q 626.5 582.0 623.8 581.8 Q 621.0 581.5 612.0 576.5 Q 603.0 571.5 597.5 565.5 Q 592.0 559.5 587.0 557.5 Q 582.0 555.5 576.5 554.2 L 571.0 553.0 L 571.0 552.8 Q 571.0 552.5 570.0 552.2 L 569.0 552.0 L 568.5 551.8 Q 568.0 551.5 565.0 550.0 Q 562.0 548.5 558.5 544.5 Q 555.0 540.5 549.5 537.8 Q 544.0 535.0 544.0 534.0 Q 544.0 533.0 531.0 528.0 Q 518.0 523.0 517.8 521.5 Q 517.5 520.0 509.2 515.0 Q 501.0 510.0 500.8 509.0 Q 500.5 508.0 498.2 506.5 Q 496.0 505.0 495.8 504.0 Q 495.5 503.0 490.8 499.0 Q 486.0 495.0 485.8 494.0 Q 485.5 493.0 476.2 491.0 Q 467.0 489.0 464.5 483.0 Q 462.0 477.0 454.5 474.2 Q 447.0 471.5 438.0 466.2 Q 429.0 461.0 428.8 462.0 Q 428.5 463.0 427.8 461.5 Q 427.0 460.0 426.0 460.0 Q 425.0 460.0 424.0 455.5 L 423.0 451.0 L 423.2 451.0 Q 423.5 451.0 426.0 445.0 Q 428.5 439.0 442.2 424.5 L 456.0 410.0 L 456.2 410.0 Q 456.5 410.0 456.8 409.5 L 457.0 409.0 L 468.0 405.2 Q 479.0 401.5 485.5 402.0 Q 492.0 402.5 494.0 402.8 z &#10;M 714.2 584.8 Q 714.0 584.5 714.2 584.2 Q 714.5 584.0 714.5 584.5 Q 714.5 585.0 714.2 584.8 z &#10;M 722.2 593.8 Q 722.0 593.5 722.2 593.2 Q 722.5 593.0 722.5 593.5 Q 722.5 594.0 722.2 593.8 z &#10;M 724.2 605.8 Q 724.0 605.5 724.2 605.2 Q 724.5 605.0 724.5 605.5 Q 724.5 606.0 724.2 605.8 z &#10;"/>
  <path style="opacity:1;fill:#D36E8B;fill-rule:evenodd;stroke:#D36E8B;stroke-width:0.5px;stroke-linecap:butt;stroke-linejoin:miter;stroke-opacity:1;" d="M 420.8 507.0 L 421.0 507.0 L 421.0 507.2 L 421.0 507.5 L 421.2 507.8 L 421.5 508.0 L 422.0 509.0 L 422.5 510.0 L 429.8 519.2 Q 437.0 528.5 437.5 528.8 L 438.0 529.0 L 447.0 544.8 Q 456.0 560.5 461.8 570.8 Q 467.5 581.0 467.8 585.0 L 468.0 589.0 L 467.8 589.0 L 467.5 589.0 L 467.2 589.2 L 467.0 589.5 L 466.8 589.8 L 466.5 590.0 L 466.2 590.2 L 466.0 590.5 L 465.8 590.8 L 465.5 591.0 L 465.2 591.2 L 465.0 591.5 L 464.8 591.8 L 464.5 592.0 L 464.2 592.2 L 464.0 592.5 L 463.8 592.8 L 463.5 593.0 L 463.2 593.2 Q 463.0 593.5 461.5 594.5 L 460.0 595.5 L 459.0 596.0 L 458.0 596.5 L 457.0 597.0 L 456.0 597.5 L 453.5 597.5 Q 451.0 597.5 449.5 596.0 Q 448.0 594.5 446.8 591.2 Q 445.5 588.0 442.2 585.8 Q 439.0 583.5 435.8 580.2 Q 432.5 577.0 426.8 574.8 Q 421.0 572.5 413.0 574.0 Q 405.0 575.5 385.5 575.5 Q 366.0 575.5 358.5 577.0 Q 351.0 578.5 344.5 579.0 Q 338.0 579.5 328.5 582.5 Q 319.0 585.5 306.5 585.5 Q 294.0 585.5 290.0 582.5 Q 286.0 579.5 285.0 577.0 Q 284.0 574.5 282.8 564.2 Q 281.5 554.0 279.5 550.5 Q 277.5 547.0 275.0 537.5 Q 272.5 528.0 269.2 523.2 Q 266.0 518.5 266.5 515.2 L 267.0 512.0 L 267.0 511.8 L 267.0 511.5 L 272.0 509.0 Q 277.0 506.5 307.0 501.0 Q 337.0 495.5 360.0 492.0 Q 383.0 488.5 394.0 489.0 Q 405.0 489.5 410.2 493.8 Q 415.5 498.0 418.0 502.5 Q 420.5 507.0 420.8 507.0 z &#10;"/>
  <path style="opacity:1;fill:#CF895F;fill-rule:evenodd;stroke:#CF895F;stroke-width:0.5px;stroke-linecap:butt;stroke-linejoin:miter;stroke-opacity:1;" d="M 438.5 360.8 L 443.0 361.0 L 443.0 361.2 L 443.0 361.5 L 445.0 362.0 L 447.0 362.5 L 448.0 363.0 L 449.0 363.5 L 451.5 364.0 Q 454.0 364.5 453.0 365.0 Q 452.0 365.5 454.0 365.8 L 456.0 366.0 L 456.2 367.0 L 456.5 368.0 L 456.8 368.2 L 457.0 368.5 L 457.2 368.8 L 457.5 369.0 L 457.8 369.2 L 458.0 369.5 L 459.0 370.0 L 460.0 370.5 L 460.2 370.8 L 460.5 371.0 L 460.8 371.2 L 461.0 371.5 L 459.0 372.0 L 457.0 372.5 L 454.0 373.0 Q 451.0 373.5 446.5 375.0 Q 442.0 376.5 427.5 378.5 Q 413.0 380.5 408.0 382.5 Q 403.0 384.5 403.0 386.2 Q 403.0 388.0 396.0 389.8 L 389.0 391.5 L 387.5 392.0 L 386.0 392.5 L 384.0 393.0 L 382.0 393.5 L 384.0 393.8 L 386.0 394.0 L 386.0 395.0 L 386.0 396.0 L 390.0 396.2 Q 394.0 396.5 402.5 397.0 L 411.0 397.5 L 409.0 398.5 Q 407.0 399.5 408.0 399.8 Q 409.0 400.0 409.0 401.0 L 409.0 402.0 L 412.5 402.2 Q 416.0 402.5 421.5 402.8 L 427.0 403.0 L 427.0 403.2 L 427.0 403.5 L 421.0 404.0 Q 415.0 404.5 385.5 409.2 L 356.0 414.0 L 352.0 413.8 L 348.0 413.5 L 340.5 413.5 Q 333.0 413.5 301.5 414.0 Q 270.0 414.5 263.5 412.5 Q 257.0 410.5 243.0 410.5 Q 229.0 410.5 220.0 408.8 Q 211.0 407.0 210.0 404.8 Q 209.0 402.5 205.0 402.2 Q 201.0 402.0 201.0 403.0 Q 201.0 404.0 195.5 404.8 Q 190.0 405.5 189.5 406.8 Q 189.0 408.0 187.5 408.0 Q 186.0 408.0 186.0 409.0 Q 186.0 410.0 183.0 410.8 Q 180.0 411.5 175.5 409.2 Q 171.0 407.0 170.8 406.0 Q 170.5 405.0 166.8 404.8 Q 163.0 404.5 160.0 407.0 Q 157.0 409.5 144.5 410.0 Q 132.0 410.5 128.8 409.2 L 125.5 408.0 L 125.2 407.8 L 125.0 407.5 L 124.8 407.2 L 124.5 407.0 L 124.2 406.8 L 124.0 406.5 L 123.8 406.2 L 123.5 406.0 L 123.2 405.8 L 123.0 405.5 L 122.8 405.2 L 122.5 405.0 L 122.2 404.8 L 122.0 404.5 L 121.8 404.2 L 121.5 404.0 L 121.2 404.0 L 121.0 404.0 L 120.8 401.5 Q 120.5 399.0 120.2 397.0 L 120.0 395.0 L 119.8 393.0 Q 119.5 391.0 119.0 388.0 Q 118.5 385.0 119.0 378.5 L 119.5 372.0 L 119.2 371.8 L 119.0 371.5 L 119.2 371.2 L 119.5 371.0 L 119.8 370.8 L 120.0 370.5 L 119.8 370.2 L 119.5 370.0 L 119.5 368.0 L 119.5 366.0 L 119.8 366.0 L 120.0 366.0 L 120.2 366.0 L 120.5 366.0 L 121.0 367.0 L 121.5 368.0 L 121.8 368.2 L 122.0 368.5 L 122.2 368.8 L 122.5 369.0 L 122.8 369.2 L 123.0 369.5 L 123.2 369.8 L 123.5 370.0 L 123.8 370.2 L 124.0 370.5 L 124.2 370.8 L 124.5 371.0 L 124.8 371.2 L 125.0 371.5 L 125.2 371.8 L 125.5 372.0 L 127.8 379.0 Q 130.0 386.0 134.5 385.8 Q 139.0 385.5 147.5 380.5 Q 156.0 375.5 160.0 373.5 Q 164.0 371.5 167.2 368.8 Q 170.5 366.0 170.8 365.0 Q 171.0 364.0 177.0 366.8 Q 183.0 369.5 187.0 369.0 Q 191.0 368.5 196.0 366.0 Q 201.0 363.5 206.5 366.0 Q 212.0 368.5 222.0 367.0 Q 232.0 365.5 238.5 365.5 Q 245.0 365.5 253.0 363.0 Q 261.0 360.5 284.0 360.5 Q 307.0 360.5 332.0 360.0 Q 357.0 359.5 356.0 358.0 Q 355.0 356.5 361.5 357.5 Q 368.0 358.5 375.0 360.5 Q 382.0 362.5 387.0 361.5 Q 392.0 360.5 395.5 359.0 Q 399.0 357.5 402.0 358.0 Q 405.0 358.5 411.0 361.5 Q 417.0 364.5 420.0 364.0 Q 423.0 363.5 428.5 362.0 Q 434.0 360.5 438.5 360.8 z &#10;M 383.2 395.2 L 383.5 395.0 L 383.8 395.2 Q 384.0 395.5 383.5 395.5 L 383.0 395.5 L 383.2 395.2 z &#10;"/>
  <path style="opacity:1;fill:#4E6263;fill-rule:evenodd;stroke:#4E6263;stroke-width:0.5px;stroke-linecap:butt;stroke-linejoin:miter;stroke-opacity:1;" d="M 572.8 611.2 L 573.0 611.5 L 573.2 611.8 L 573.5 612.0 L 573.8 612.2 L 574.0 612.5 L 574.2 612.8 L 574.5 613.0 L 574.8 613.2 L 575.0 613.5 L 575.2 613.8 L 575.5 614.0 L 575.8 614.2 L 576.0 614.5 L 576.5 614.5 L 577.0 614.5 L 577.2 614.2 L 577.5 614.0 L 577.8 613.8 L 578.0 613.5 L 577.8 613.2 L 577.5 613.0 L 577.2 612.8 Q 577.0 612.5 576.0 611.0 L 575.0 609.5 L 574.8 609.2 L 574.5 609.0 L 574.2 608.8 L 574.0 608.5 L 575.5 608.5 L 577.0 608.5 L 578.0 609.0 L 579.0 609.5 L 579.5 610.8 Q 580.0 612.0 587.2 613.5 Q 594.5 615.0 595.8 615.5 Q 597.0 616.0 597.5 617.2 Q 598.0 618.5 599.0 618.8 Q 600.0 619.0 600.0 620.0 Q 600.0 621.0 603.5 622.8 Q 607.0 624.5 616.2 624.8 Q 625.5 625.0 625.8 624.8 L 626.0 624.5 L 626.2 624.2 L 626.5 624.0 L 626.8 623.5 L 627.0 623.0 L 632.5 626.8 Q 638.0 630.5 641.5 631.0 Q 645.0 631.5 655.2 639.8 Q 665.5 648.0 669.8 654.8 Q 674.0 661.5 675.0 661.8 Q 676.0 662.0 676.0 663.0 Q 676.0 664.0 683.2 665.0 Q 690.5 666.0 695.0 669.0 Q 699.5 672.0 700.5 673.5 Q 701.5 675.0 701.5 680.5 Q 701.5 686.0 707.8 691.2 Q 714.0 696.5 714.2 696.8 L 714.5 697.0 L 714.8 697.2 L 715.0 697.5 L 715.2 697.8 L 715.5 698.0 L 715.8 698.2 L 716.0 698.5 L 716.2 698.8 L 716.5 699.0 L 716.8 699.2 L 717.0 699.5 L 717.2 699.8 L 717.5 700.0 L 717.8 700.2 L 718.0 700.5 L 719.5 700.5 L 721.0 700.5 L 721.2 700.2 L 721.5 700.0 L 721.5 697.0 Q 721.5 694.0 721.5 693.0 L 721.5 692.0 L 721.2 691.0 L 721.0 690.0 L 722.0 690.2 L 723.0 690.5 L 724.0 691.0 L 725.0 691.5 L 726.0 692.0 L 727.0 692.5 L 727.2 692.8 L 727.5 693.0 L 727.8 693.2 L 728.0 693.5 L 728.2 693.8 L 728.5 694.0 L 728.8 694.2 L 729.0 694.5 L 729.2 694.8 L 729.5 695.0 L 735.0 704.0 Q 740.5 713.0 742.2 713.8 Q 744.0 714.5 745.5 713.8 Q 747.0 713.0 747.0 712.0 Q 747.0 711.0 749.2 711.5 Q 751.5 712.0 756.0 716.5 Q 760.5 721.0 763.5 725.0 Q 766.5 729.0 776.0 735.5 Q 785.5 742.0 790.8 747.2 Q 796.0 752.5 806.2 758.2 Q 816.5 764.0 817.5 766.5 Q 818.5 769.0 818.8 769.2 L 819.0 769.5 L 819.2 769.8 L 819.5 770.0 L 819.8 770.2 L 820.0 770.5 L 820.2 770.8 L 820.5 771.0 L 820.8 771.2 L 821.0 771.5 L 821.2 771.8 L 821.5 772.0 L 821.8 772.2 L 822.0 772.5 L 822.2 772.8 L 822.5 773.0 L 822.8 773.2 L 823.0 773.5 L 823.2 773.8 L 823.5 774.0 L 823.8 774.2 L 824.0 774.5 L 824.5 774.8 L 825.0 775.0 L 829.2 781.0 Q 833.5 787.0 833.2 790.8 Q 833.0 794.5 833.0 794.8 L 833.0 795.0 L 832.8 795.5 L 832.5 796.0 L 832.0 797.0 L 831.5 798.0 L 831.2 798.2 L 831.0 798.5 L 831.2 798.8 L 831.5 799.0 L 831.8 799.2 L 832.0 799.5 L 832.2 799.8 L 832.5 800.0 L 833.0 801.0 L 833.5 802.0 L 833.8 802.2 L 834.0 802.5 L 834.2 802.8 L 834.5 803.0 L 834.8 803.5 L 835.0 804.0 L 834.0 803.8 L 833.0 803.5 L 831.5 803.0 L 830.0 802.5 L 829.0 802.0 L 828.0 801.5 L 827.8 801.2 L 827.5 801.0 L 827.2 800.8 Q 827.0 800.5 819.2 793.8 Q 811.5 787.0 808.8 785.5 Q 806.0 784.0 806.0 783.0 Q 806.0 782.0 802.0 782.5 L 798.0 783.0 L 797.8 782.5 Q 797.5 782.0 797.2 782.0 L 797.0 782.0 L 796.0 781.8 Q 795.0 781.5 788.0 775.5 Q 781.0 769.5 775.5 767.5 Q 770.0 765.5 747.5 750.0 Q 725.0 734.5 723.5 732.8 Q 722.0 731.0 721.0 730.8 Q 720.0 730.5 681.5 703.5 Q 643.0 676.5 611.8 654.8 Q 580.5 633.0 569.8 624.8 Q 559.0 616.5 549.0 609.5 L 539.0 602.5 L 538.0 602.0 L 537.0 601.5 L 536.0 601.0 L 535.0 600.5 L 534.0 600.0 L 533.0 599.5 L 532.8 599.2 L 532.5 599.0 L 532.2 598.8 Q 532.0 598.5 532.0 598.2 L 532.0 598.0 L 539.0 598.2 Q 546.0 598.5 551.2 600.2 Q 556.5 602.0 558.8 601.5 Q 561.0 601.0 562.5 603.8 Q 564.0 606.5 568.2 608.8 Q 572.5 611.0 572.8 611.2 z &#10;"/>
  <path style="opacity:1;fill:#759F9D;fill-rule:evenodd;stroke:#759F9D;stroke-width:0.5px;stroke-linecap:butt;stroke-linejoin:miter;stroke-opacity:1;" d="M 576.5 558.2 L 569.0 552.0 L 572.5 553.2 Q 576.0 554.5 579.0 555.0 Q 582.0 555.5 587.0 557.5 Q 592.0 559.5 597.5 565.5 Q 603.0 571.5 612.0 576.5 Q 621.0 581.5 623.8 581.8 Q 626.5 582.0 638.0 586.5 Q 649.5 591.0 655.0 595.0 Q 660.5 599.0 664.8 604.2 Q 669.0 609.5 673.5 611.2 Q 678.0 613.0 678.5 613.8 Q 679.0 614.5 689.5 618.0 Q 700.0 621.5 703.5 623.5 Q 707.0 625.5 712.0 627.5 Q 717.0 629.5 721.0 634.5 Q 725.0 639.5 746.0 652.2 Q 767.0 665.0 767.0 666.0 Q 767.0 667.0 775.8 673.0 Q 784.5 679.0 787.8 683.0 Q 791.0 687.0 794.0 688.2 Q 797.0 689.5 799.5 689.5 L 802.0 689.5 L 802.2 689.2 L 802.5 689.0 L 802.8 689.2 L 803.0 689.5 L 805.0 690.0 L 807.0 690.5 L 808.5 690.5 L 810.0 690.5 L 810.0 690.2 L 810.0 690.0 L 812.0 690.0 Q 814.0 690.0 815.2 710.5 Q 816.5 731.0 818.5 737.0 Q 820.5 743.0 821.5 753.0 Q 822.5 763.0 823.0 766.0 L 823.5 769.0 L 824.0 771.0 L 824.5 773.0 L 824.8 774.0 L 825.0 775.0 L 824.5 774.8 L 824.0 774.5 L 823.8 774.2 L 823.5 774.0 L 823.2 773.8 L 823.0 773.5 L 822.8 773.2 L 822.5 773.0 L 822.2 772.8 L 822.0 772.5 L 821.8 772.2 L 821.5 772.0 L 821.2 771.8 L 821.0 771.5 L 820.8 771.2 L 820.5 771.0 L 820.2 770.8 L 820.0 770.5 L 819.8 770.2 L 819.5 770.0 L 819.2 769.8 L 819.0 769.5 L 818.8 769.2 Q 818.5 769.0 817.5 766.5 Q 816.5 764.0 806.2 758.2 Q 796.0 752.5 790.8 747.2 Q 785.5 742.0 776.0 735.5 Q 766.5 729.0 763.5 725.0 Q 760.5 721.0 756.0 716.5 Q 751.5 712.0 749.2 711.5 Q 747.0 711.0 747.0 712.0 Q 747.0 713.0 745.5 713.8 Q 744.0 714.5 742.2 713.8 Q 740.5 713.0 735.0 704.0 L 729.5 695.0 L 729.2 694.8 L 729.0 694.5 L 728.8 694.2 L 728.5 694.0 L 728.2 693.8 L 728.0 693.5 L 727.8 693.2 L 727.5 693.0 L 727.2 692.8 L 727.0 692.5 L 726.0 692.0 L 725.0 691.5 L 724.0 691.0 L 723.0 690.5 L 722.0 690.2 L 721.0 690.0 L 721.2 691.0 L 721.5 692.0 L 721.5 693.0 Q 721.5 694.0 721.5 697.0 L 721.5 700.0 L 721.2 700.2 L 721.0 700.5 L 719.5 700.5 L 718.0 700.5 L 717.8 700.2 L 717.5 700.0 L 717.2 699.8 L 717.0 699.5 L 716.8 699.2 L 716.5 699.0 L 716.2 698.8 L 716.0 698.5 L 715.8 698.2 L 715.5 698.0 L 715.2 697.8 L 715.0 697.5 L 714.8 697.2 L 714.5 697.0 L 714.2 696.8 Q 714.0 696.5 707.8 691.2 Q 701.5 686.0 701.5 680.5 Q 701.5 675.0 700.5 673.5 Q 699.5 672.0 695.0 669.0 Q 690.5 666.0 683.2 665.0 Q 676.0 664.0 676.0 663.0 Q 676.0 662.0 675.0 661.8 Q 674.0 661.5 669.8 654.8 Q 665.5 648.0 655.2 639.8 Q 645.0 631.5 641.5 631.0 Q 638.0 630.5 632.5 626.8 L 627.0 623.0 L 626.8 622.5 L 626.5 622.0 L 626.2 621.8 L 626.0 621.5 L 625.8 621.2 L 625.5 621.0 L 625.5 620.0 L 625.5 619.0 L 625.5 618.5 L 625.5 618.0 L 625.0 617.0 Q 624.5 616.0 624.0 615.0 Q 623.5 614.0 621.2 613.0 Q 619.0 612.0 619.2 611.0 Q 619.5 610.0 616.8 609.2 L 614.0 608.5 L 613.0 608.5 L 612.0 608.5 L 610.5 608.5 L 609.0 608.5 L 609.2 608.2 L 609.5 608.0 L 609.8 607.8 L 610.0 607.5 L 612.0 607.0 Q 614.0 606.5 615.0 606.0 L 616.0 605.5 L 616.2 605.2 L 616.5 605.0 L 616.5 604.5 L 616.5 604.0 L 616.2 603.0 L 616.0 602.0 L 615.0 601.8 L 614.0 601.5 L 613.8 601.2 L 613.5 601.0 L 613.2 600.8 L 613.0 600.5 L 612.0 600.2 Q 611.0 600.0 610.8 598.5 Q 610.5 597.0 608.2 596.0 L 606.0 595.0 L 606.2 596.0 L 606.5 597.0 L 606.5 597.5 L 606.5 598.0 L 606.2 598.2 L 606.0 598.5 L 605.0 598.8 L 604.0 599.0 L 604.2 598.0 L 604.5 597.0 L 605.0 595.5 L 605.5 594.0 L 605.5 593.5 L 605.5 593.0 L 605.5 592.0 L 605.5 591.0 L 605.8 591.2 L 606.0 591.5 L 607.5 592.5 Q 609.0 593.5 610.0 594.0 L 611.0 594.5 L 612.5 594.5 L 614.0 594.5 L 613.8 594.2 L 613.5 594.0 L 613.5 593.0 L 613.5 592.0 L 613.8 591.8 L 614.0 591.5 L 613.0 591.0 L 612.0 590.5 L 611.8 590.2 L 611.5 590.0 L 611.2 589.8 L 611.0 589.5 L 610.8 589.2 L 610.5 589.0 L 610.2 588.8 L 610.0 588.5 L 609.8 588.2 L 609.5 588.0 L 609.2 587.8 L 609.0 587.5 L 608.8 587.2 Q 608.5 587.0 606.2 585.0 Q 604.0 583.0 603.8 582.0 Q 603.5 581.0 593.8 572.8 Q 584.0 564.5 576.5 558.2 z &#10;M 616.0 595.0 Q 616.0 594.0 617.0 594.0 Q 618.0 594.0 618.0 595.0 Q 618.0 596.0 617.0 596.0 Q 616.0 596.0 616.0 595.0 z &#10;M 612.2 597.5 Q 612.5 596.0 613.2 597.5 Q 614.0 599.0 613.0 599.0 Q 612.0 599.0 612.2 597.5 z &#10;"/>
  <path style="opacity:1;fill:#A04A64;fill-rule:evenodd;stroke:#A04A64;stroke-width:0.5px;stroke-linecap:butt;stroke-linejoin:miter;stroke-opacity:1;" d="M 266.0 512.2 L 267.0 512.0 L 266.5 515.2 Q 266.0 518.5 269.2 523.2 Q 272.5 528.0 275.0 537.5 Q 277.5 547.0 279.5 550.5 Q 281.5 554.0 282.8 564.2 Q 284.0 574.5 285.0 577.0 Q 286.0 579.5 290.0 582.5 Q 294.0 585.5 306.5 585.5 Q 319.0 585.5 328.5 582.5 Q 338.0 579.5 344.5 579.0 Q 351.0 578.5 358.5 577.0 Q 366.0 575.5 385.5 575.5 Q 405.0 575.5 413.0 574.0 Q 421.0 572.5 426.8 574.8 Q 432.5 577.0 435.8 580.2 Q 439.0 583.5 442.2 585.8 Q 445.5 588.0 446.8 591.2 Q 448.0 594.5 449.5 596.0 Q 451.0 597.5 453.5 597.5 L 456.0 597.5 L 457.0 597.0 L 458.0 596.5 L 459.0 596.0 L 460.0 595.5 L 461.5 594.5 Q 463.0 593.5 463.2 593.2 L 463.5 593.0 L 463.8 592.8 L 464.0 592.5 L 464.2 592.2 L 464.5 592.0 L 464.8 591.8 L 465.0 591.5 L 465.2 591.2 L 465.5 591.0 L 465.8 590.8 L 466.0 590.5 L 466.2 590.2 L 466.5 590.0 L 466.8 589.8 L 467.0 589.5 L 467.2 589.2 L 467.5 589.0 L 467.8 589.0 L 468.0 589.0 L 467.8 591.5 L 467.5 594.0 L 467.0 595.0 L 466.5 596.0 L 466.0 597.0 L 465.5 598.0 L 460.0 607.0 Q 454.5 616.0 450.2 618.2 Q 446.0 620.5 446.0 620.8 L 446.0 621.0 L 444.0 621.2 Q 442.0 621.5 415.5 626.5 Q 389.0 631.5 357.5 638.0 Q 326.0 644.5 301.5 648.0 Q 277.0 651.5 272.5 650.8 Q 268.0 650.0 268.0 649.0 Q 268.0 648.0 267.0 647.8 Q 266.0 647.5 260.5 640.2 Q 255.0 633.0 254.0 632.8 Q 253.0 632.5 252.0 630.8 Q 251.0 629.0 250.0 629.0 Q 249.0 629.0 243.5 620.5 L 238.0 612.0 L 237.8 611.5 Q 237.5 611.0 235.8 608.2 Q 234.0 605.5 231.2 596.2 Q 228.5 587.0 228.2 572.0 L 228.0 557.0 L 228.2 553.5 Q 228.5 550.0 235.8 537.0 L 243.0 524.0 L 243.5 523.8 L 244.0 523.5 L 244.2 523.2 L 244.5 523.0 L 244.8 522.8 L 245.0 522.5 L 245.2 522.2 L 245.5 522.0 L 245.8 521.8 L 246.0 521.5 L 255.5 517.0 Q 265.0 512.5 266.0 512.2 z &#10;"/>
  <path style="opacity:1;fill:#2D2220;fill-rule:evenodd;stroke:#2D2220;stroke-width:0.5px;stroke-linecap:butt;stroke-linejoin:miter;stroke-opacity:1;" d="M 234.5 613.0 L 238.0 612.0 L 243.5 620.5 Q 249.0 629.0 250.0 629.0 Q 251.0 629.0 252.0 630.8 Q 253.0 632.5 254.0 632.8 Q 255.0 633.0 260.5 640.2 Q 266.0 647.5 267.0 647.8 Q 268.0 648.0 268.0 649.0 Q 268.0 650.0 272.5 650.8 Q 277.0 651.5 301.5 648.0 Q 326.0 644.5 357.5 638.0 Q 389.0 631.5 415.5 626.5 Q 442.0 621.5 444.0 621.2 L 446.0 621.0 L 447.5 621.0 L 449.0 621.0 L 448.8 624.5 L 448.5 628.0 L 448.2 628.2 L 448.0 628.5 L 447.8 628.8 L 447.5 629.0 L 447.2 629.2 L 447.0 629.5 L 447.2 629.8 L 447.5 630.0 L 447.8 630.2 L 448.0 630.5 L 447.8 630.8 L 447.5 631.0 L 447.2 632.0 L 447.0 633.0 L 446.8 633.0 Q 446.5 633.0 446.2 633.5 L 446.0 634.0 L 445.8 634.0 Q 445.5 634.0 444.2 635.2 Q 443.0 636.5 436.0 640.0 Q 429.0 643.5 424.5 642.0 Q 420.0 640.5 408.5 643.0 Q 397.0 645.5 386.5 646.0 Q 376.0 646.5 374.0 648.0 Q 372.0 649.5 368.2 650.2 Q 364.5 651.0 360.0 652.5 Q 355.5 654.0 351.8 654.8 Q 348.0 655.5 344.0 658.0 Q 340.0 660.5 333.0 661.0 Q 326.0 661.5 322.0 662.5 Q 318.0 663.5 309.5 668.0 Q 301.0 672.5 294.0 672.8 L 287.0 673.0 L 283.5 672.8 Q 280.0 672.5 272.0 672.0 Q 264.0 671.5 261.0 670.5 Q 258.0 669.5 251.5 669.5 Q 245.0 669.5 241.0 668.8 Q 237.0 668.0 236.8 667.0 Q 236.5 666.0 231.0 661.5 Q 225.5 657.0 224.0 652.5 Q 222.5 648.0 222.0 647.0 Q 221.5 646.0 220.5 638.5 Q 219.5 631.0 221.2 626.5 Q 223.0 622.0 224.0 621.8 Q 225.0 621.5 225.5 619.8 Q 226.0 618.0 228.5 617.0 Q 231.0 616.0 231.0 615.0 Q 231.0 614.0 234.5 613.0 z &#10;"/>
  <path style="opacity:1;fill:#BA8469;fill-rule:evenodd;stroke:#BA8469;stroke-width:0.5px;stroke-linecap:butt;stroke-linejoin:miter;stroke-opacity:1;" d="M 523.8 338.0 L 524.0 337.0 L 528.8 339.5 Q 533.5 342.0 536.2 343.0 Q 539.0 344.0 539.0 343.0 Q 539.0 342.0 543.5 341.2 Q 548.0 340.5 557.5 343.0 Q 567.0 345.5 569.5 344.8 Q 572.0 344.0 572.0 343.0 Q 572.0 342.0 577.5 342.2 Q 583.0 342.5 585.5 345.0 Q 588.0 347.5 592.5 349.2 Q 597.0 351.0 597.0 350.0 Q 597.0 349.0 599.5 348.5 Q 602.0 348.0 602.0 349.0 Q 602.0 350.0 611.2 350.0 Q 620.5 350.0 621.8 351.2 Q 623.0 352.5 632.2 353.2 Q 641.5 354.0 642.0 353.0 Q 642.5 352.0 642.8 353.0 Q 643.0 354.0 645.0 353.8 L 647.0 353.5 L 647.2 353.2 L 647.5 353.0 L 647.8 353.2 L 648.0 353.5 L 648.2 353.8 L 648.5 354.0 L 648.8 354.2 L 649.0 354.5 L 650.0 355.0 L 651.0 355.5 L 652.5 355.8 L 654.0 356.0 L 654.0 356.2 L 654.0 356.5 L 653.0 357.0 L 652.0 357.5 L 651.0 358.0 L 650.0 358.5 L 649.8 358.8 L 649.5 359.0 L 649.2 359.2 L 649.0 359.5 L 648.8 359.8 L 648.5 360.0 L 648.2 360.2 L 648.0 360.5 L 647.8 360.8 L 647.5 361.0 L 647.2 361.2 Q 647.0 361.5 645.0 362.8 L 643.0 364.0 L 642.5 364.2 Q 642.0 364.5 642.0 364.8 L 642.0 365.0 L 640.5 365.2 Q 639.0 365.5 630.8 369.2 Q 622.5 373.0 611.2 374.8 Q 600.0 376.5 597.0 378.0 Q 594.0 379.5 566.5 384.2 L 539.0 389.0 L 535.0 389.2 Q 531.0 389.5 528.5 390.0 Q 526.0 390.5 476.5 396.8 L 427.0 403.0 L 421.5 402.8 Q 416.0 402.5 412.5 402.2 L 409.0 402.0 L 409.0 401.0 Q 409.0 400.0 408.0 399.8 Q 407.0 399.5 409.0 398.5 L 411.0 397.5 L 402.5 397.0 Q 394.0 396.5 388.5 396.0 L 383.0 395.5 L 383.2 395.2 L 383.5 395.0 L 383.8 394.8 L 384.0 394.5 L 383.0 394.0 L 382.0 393.5 L 384.0 393.0 L 386.0 392.5 L 387.5 392.0 L 389.0 391.5 L 396.0 389.8 Q 403.0 388.0 403.0 386.2 Q 403.0 384.5 408.0 382.5 Q 413.0 380.5 427.5 378.5 Q 442.0 376.5 446.5 375.0 Q 451.0 373.5 454.0 373.0 L 457.0 372.5 L 459.0 372.0 L 461.0 371.5 L 460.8 371.2 L 460.5 371.0 L 460.2 370.8 L 460.0 370.5 L 459.0 370.0 L 458.0 369.5 L 457.8 369.2 L 457.5 369.0 L 457.2 368.8 L 457.0 368.5 L 456.8 368.2 L 456.5 368.0 L 456.2 367.0 L 456.0 366.0 L 454.0 365.8 Q 452.0 365.5 453.0 365.0 Q 454.0 364.5 451.5 364.0 L 449.0 363.5 L 448.0 363.0 L 447.0 362.5 L 445.0 362.0 L 443.0 361.5 L 443.0 361.2 L 443.0 361.0 L 445.0 360.8 L 447.0 360.5 L 449.0 360.0 L 451.0 359.5 L 452.8 358.8 Q 454.5 358.0 454.8 357.0 Q 455.0 356.0 456.0 356.0 Q 457.0 356.0 457.0 355.0 Q 457.0 354.0 458.0 354.0 Q 459.0 354.0 459.0 355.0 Q 459.0 356.0 466.0 355.2 Q 473.0 354.5 477.5 352.8 Q 482.0 351.0 482.5 349.0 Q 483.0 347.0 486.0 347.8 Q 489.0 348.5 491.0 350.0 Q 493.0 351.5 502.0 351.5 Q 511.0 351.5 514.5 350.2 Q 518.0 349.0 519.0 345.0 Q 520.0 341.0 521.0 340.8 Q 522.0 340.5 522.0 340.2 L 522.0 340.0 L 522.2 340.0 Q 522.5 340.0 522.8 339.5 L 523.0 339.0 L 523.2 339.0 Q 523.5 339.0 523.8 338.0 z &#10;"/>
  <path style="opacity:1;fill:#1E1A19;fill-rule:evenodd;stroke:#1E1A19;stroke-width:0.5px;stroke-linecap:butt;stroke-linejoin:miter;stroke-opacity:1;" d="M 514.5 585.8 L 515.0 586.0 L 515.0 586.2 Q 515.0 586.5 515.5 586.8 L 516.0 587.0 L 519.0 591.2 Q 522.0 595.5 522.2 595.8 L 522.5 596.0 L 522.8 596.2 L 523.0 596.5 L 523.2 596.8 L 523.5 597.0 L 523.8 597.2 L 524.0 597.5 L 524.2 597.8 L 524.5 598.0 L 524.8 598.2 L 525.0 598.5 L 525.2 598.8 L 525.5 599.0 L 525.8 599.2 L 526.0 599.5 L 526.2 599.8 L 526.5 600.0 L 526.8 600.2 L 527.0 600.5 L 527.2 600.8 L 527.5 601.0 L 527.8 602.0 L 528.0 603.0 L 525.0 602.8 L 522.0 602.5 L 521.8 602.2 L 521.5 602.0 L 521.2 601.8 L 521.0 601.5 L 520.0 601.0 L 519.0 600.5 L 518.8 600.2 Q 518.5 600.0 517.2 597.5 Q 516.0 595.0 511.0 594.2 Q 506.0 593.5 501.2 599.2 Q 496.5 605.0 494.0 609.0 Q 491.5 613.0 485.2 619.8 L 479.0 626.5 L 478.8 626.8 L 478.5 627.0 L 478.0 628.5 L 477.5 630.0 L 477.2 630.2 L 477.0 630.5 L 476.8 630.8 L 476.5 631.0 L 476.2 632.5 L 476.0 634.0 L 475.8 634.0 Q 475.5 634.0 475.2 634.5 L 475.0 635.0 L 465.8 649.0 Q 456.5 663.0 440.0 687.0 Q 423.5 711.0 413.2 726.2 Q 403.0 741.5 384.8 769.8 Q 366.5 798.0 366.0 799.0 L 365.5 800.0 L 365.2 800.2 L 365.0 800.5 L 364.8 800.8 L 364.5 801.0 L 364.2 801.2 L 364.0 801.5 L 363.8 801.8 L 363.5 802.0 L 363.2 802.2 L 363.0 802.5 L 362.8 802.8 L 362.5 803.0 L 362.2 803.2 L 362.0 803.5 L 361.8 803.8 L 361.5 804.0 L 361.2 804.2 L 361.0 804.5 L 360.8 804.8 L 360.5 805.0 L 360.5 803.0 L 360.5 801.0 L 360.8 800.8 L 361.0 800.5 L 360.8 800.2 L 360.5 800.0 L 360.2 800.0 L 360.0 800.0 L 360.2 799.0 L 360.5 798.0 L 361.0 797.0 L 361.5 796.0 L 361.8 795.8 Q 362.0 795.5 366.0 789.0 Q 370.0 782.5 379.0 768.5 Q 388.0 754.5 391.0 748.8 Q 394.0 743.0 395.0 743.0 Q 396.0 743.0 396.2 742.0 Q 396.5 741.0 403.0 729.5 Q 409.5 718.0 413.0 712.5 Q 416.5 707.0 418.8 702.5 Q 421.0 698.0 422.0 698.0 Q 423.0 698.0 426.5 690.8 Q 430.0 683.5 432.0 678.2 Q 434.0 673.0 435.0 673.0 Q 436.0 673.0 441.0 666.2 Q 446.0 659.5 447.2 655.8 L 448.5 652.0 L 449.0 651.0 L 449.5 650.0 L 449.5 647.5 L 449.5 645.0 L 449.2 644.0 L 449.0 643.0 L 447.5 643.2 L 446.0 643.5 L 445.8 643.8 Q 445.5 644.0 445.0 644.5 Q 444.5 645.0 441.2 646.0 L 438.0 647.0 L 438.2 646.5 L 438.5 646.0 L 438.8 645.8 L 439.0 645.5 L 440.0 645.0 L 441.0 644.5 L 441.2 644.2 L 441.5 644.0 L 441.8 643.8 L 442.0 643.5 L 442.2 643.2 L 442.5 643.0 L 442.8 642.8 L 443.0 642.5 L 443.2 642.2 L 443.5 642.0 L 443.8 641.8 Q 444.0 641.5 445.2 638.8 Q 446.5 636.0 446.2 635.0 L 446.0 634.0 L 446.5 633.8 Q 447.0 633.5 447.0 633.2 L 447.0 633.0 L 447.2 632.0 L 447.5 631.0 L 447.8 630.8 L 448.0 630.5 L 447.8 630.2 L 447.5 630.0 L 447.2 629.8 L 447.0 629.5 L 447.2 629.2 L 447.5 629.0 L 447.8 628.8 L 448.0 628.5 L 448.2 628.2 L 448.5 628.0 L 448.8 624.5 L 449.0 621.0 L 447.5 621.0 L 446.0 621.0 L 446.0 620.8 Q 446.0 620.5 450.2 618.2 Q 454.5 616.0 460.0 607.0 L 465.5 598.0 L 466.0 597.0 L 466.5 596.0 L 467.0 595.0 L 467.5 594.0 L 467.8 591.5 L 468.0 589.0 L 467.8 585.0 Q 467.5 581.0 461.8 570.8 Q 456.0 560.5 447.0 544.8 L 438.0 529.0 L 438.0 527.0 Q 438.0 525.0 440.8 526.5 Q 443.5 528.0 451.2 535.8 Q 459.0 543.5 464.8 546.8 Q 470.5 550.0 475.2 554.2 Q 480.0 558.5 486.5 562.2 Q 493.0 566.0 496.5 569.8 Q 500.0 573.5 507.0 579.5 Q 514.0 585.5 514.5 585.8 z &#10;"/>
  <path style="opacity:1;fill:#798489;fill-rule:evenodd;stroke:#798489;stroke-width:0.5px;stroke-linecap:butt;stroke-linejoin:miter;stroke-opacity:1;" d="M 420.8 454.0 L 423.0 451.0 L 424.0 455.5 Q 425.0 460.0 426.0 460.0 Q 427.0 460.0 427.8 461.5 Q 428.5 463.0 428.8 462.0 Q 429.0 461.0 438.0 466.2 Q 447.0 471.5 454.5 474.2 Q 462.0 477.0 464.5 483.0 Q 467.0 489.0 476.2 491.0 Q 485.5 493.0 485.8 494.0 Q 486.0 495.0 490.8 499.0 Q 495.5 503.0 495.8 504.0 Q 496.0 505.0 498.2 506.5 Q 500.5 508.0 500.8 509.0 Q 501.0 510.0 509.2 515.0 Q 517.5 520.0 517.8 521.5 Q 518.0 523.0 531.0 528.0 Q 544.0 533.0 544.0 534.0 Q 544.0 535.0 549.5 537.8 Q 555.0 540.5 558.5 544.5 Q 562.0 548.5 565.0 550.0 Q 568.0 551.5 568.5 551.8 L 569.0 552.0 L 569.0 552.2 Q 569.0 552.5 570.0 552.8 L 571.0 553.0 L 575.0 557.2 Q 579.0 561.5 585.0 566.0 Q 591.0 570.5 597.2 575.8 Q 603.5 581.0 603.8 582.0 Q 604.0 583.0 606.2 585.0 Q 608.5 587.0 608.8 587.2 L 609.0 587.5 L 609.2 587.8 L 609.5 588.0 L 609.8 588.2 L 610.0 588.5 L 610.2 588.8 L 610.5 589.0 L 610.8 589.2 L 611.0 589.5 L 611.2 589.8 L 611.5 590.0 L 611.8 590.2 L 612.0 590.5 L 613.8 591.2 Q 615.5 592.0 615.8 592.2 L 616.0 592.5 L 616.2 592.8 L 616.5 593.0 L 616.8 593.2 L 617.0 593.5 L 617.2 593.8 L 617.5 594.0 L 617.5 595.0 L 617.5 596.0 L 615.8 595.8 Q 614.0 595.5 613.8 597.2 Q 613.5 599.0 613.5 600.0 L 613.5 601.0 L 613.8 601.2 L 614.0 601.5 L 615.0 601.8 L 616.0 602.0 L 616.2 603.0 L 616.5 604.0 L 616.5 604.5 L 616.5 605.0 L 616.2 605.2 L 616.0 605.5 L 614.0 606.5 Q 612.0 607.5 613.0 608.0 L 614.0 608.5 L 616.8 609.2 Q 619.5 610.0 619.2 611.0 Q 619.0 612.0 621.2 613.0 Q 623.5 614.0 624.0 615.0 Q 624.5 616.0 625.0 617.0 L 625.5 618.0 L 625.5 618.5 L 625.5 619.0 L 625.5 620.0 L 625.5 621.0 L 625.8 621.2 L 626.0 621.5 L 626.2 621.8 L 626.5 622.0 L 626.8 622.5 L 627.0 623.0 L 626.8 623.5 L 626.5 624.0 L 626.2 624.2 L 626.0 624.5 L 626.2 624.8 L 626.5 625.0 L 626.8 626.0 L 627.0 627.0 L 626.0 626.8 L 625.0 626.5 L 623.0 626.0 Q 621.0 625.5 614.0 625.0 Q 607.0 624.5 603.5 622.8 Q 600.0 621.0 600.0 620.0 Q 600.0 619.0 599.0 618.8 Q 598.0 618.5 597.5 617.2 Q 597.0 616.0 595.8 615.5 Q 594.5 615.0 587.2 613.5 Q 580.0 612.0 579.5 610.8 L 579.0 609.5 L 578.0 609.0 L 577.0 608.5 L 575.5 608.5 L 574.0 608.5 L 574.2 608.8 L 574.5 609.0 L 574.8 609.2 L 575.0 609.5 L 576.0 611.0 Q 577.0 612.5 577.2 612.8 L 577.5 613.0 L 577.8 613.2 L 578.0 613.5 L 577.8 613.8 L 577.5 614.0 L 577.2 614.2 L 577.0 614.5 L 576.5 614.5 L 576.0 614.5 L 575.8 614.2 L 575.5 614.0 L 575.2 613.8 L 575.0 613.5 L 574.8 613.2 L 574.5 613.0 L 574.2 612.8 L 574.0 612.5 L 573.8 612.2 L 573.5 612.0 L 573.2 611.8 L 573.0 611.5 L 572.8 611.2 Q 572.5 611.0 568.2 608.8 Q 564.0 606.5 562.5 603.8 Q 561.0 601.0 558.8 601.5 Q 556.5 602.0 551.2 600.2 Q 546.0 598.5 539.0 598.2 L 532.0 598.0 L 531.0 597.8 Q 530.0 597.5 527.0 595.8 Q 524.0 594.0 524.0 593.0 Q 524.0 592.0 520.0 589.5 L 516.0 587.0 L 515.8 586.5 Q 515.5 586.0 515.2 586.0 L 515.0 586.0 L 514.5 585.8 Q 514.0 585.5 507.0 579.5 Q 500.0 573.5 496.5 569.8 Q 493.0 566.0 486.5 562.2 Q 480.0 558.5 475.2 554.2 Q 470.5 550.0 464.8 546.8 Q 459.0 543.5 451.2 535.8 Q 443.5 528.0 440.8 526.5 Q 438.0 525.0 438.0 527.0 L 438.0 529.0 L 437.5 528.8 Q 437.0 528.5 429.8 519.2 L 422.5 510.0 L 422.0 509.0 L 421.5 508.0 L 421.2 507.8 L 421.0 507.5 L 421.0 507.2 L 421.0 507.0 L 421.5 506.8 L 422.0 506.5 L 422.2 506.2 L 422.5 506.0 L 422.8 505.8 L 423.0 505.5 L 424.0 505.5 L 425.0 505.5 L 425.2 505.8 L 425.5 506.0 L 425.8 506.2 L 426.0 506.5 L 426.5 506.5 L 427.0 506.5 L 428.0 506.0 L 429.0 505.5 L 428.8 505.2 L 428.5 505.0 L 428.2 504.8 L 428.0 504.5 L 428.2 504.2 L 428.5 504.0 L 428.8 503.8 L 429.0 503.5 L 429.2 503.2 L 429.5 503.0 L 429.8 502.8 L 430.0 502.5 L 429.8 502.2 L 429.5 502.0 L 429.2 501.8 L 429.0 501.5 L 428.8 501.2 L 428.5 501.0 L 428.2 500.8 Q 428.0 500.5 425.8 497.8 Q 423.5 495.0 421.8 493.5 Q 420.0 492.0 420.0 491.0 Q 420.0 490.0 419.0 490.0 Q 418.0 490.0 415.8 481.5 Q 413.5 473.0 415.5 466.0 L 417.5 459.0 L 418.0 458.0 Q 418.5 457.0 420.8 454.0 z &#10;M 431.0 506.0 Q 431.0 505.0 432.0 505.0 Q 433.0 505.0 433.0 506.0 L 433.0 507.0 L 432.0 507.0 Q 431.0 507.0 431.0 506.0 z &#10;M 605.5 592.0 L 605.5 591.0 L 605.8 591.2 L 606.0 591.5 L 608.5 592.8 Q 611.0 594.0 611.0 595.0 Q 611.0 596.0 610.0 595.8 Q 609.0 595.5 607.5 595.2 L 606.0 595.0 L 606.2 596.0 L 606.5 597.0 L 606.5 597.5 L 606.5 598.0 L 606.2 598.2 L 606.0 598.5 L 605.0 598.8 L 604.0 599.0 L 604.2 598.0 L 604.5 597.0 L 605.0 595.5 L 605.5 594.0 L 605.5 593.5 L 605.5 593.0 L 605.5 592.0 z &#10;M 611.2 597.8 Q 611.0 597.5 611.2 597.2 Q 611.5 597.0 611.5 597.5 Q 611.5 598.0 611.2 597.8 z &#10;M 609.2 608.8 L 609.0 608.5 L 609.2 608.2 L 609.5 608.0 L 609.5 608.5 Q 609.5 609.0 609.2 608.8 z &#10;"/>
  <path style="opacity:1;fill:#352825;fill-rule:evenodd;stroke:#352825;stroke-width:0.5px;stroke-linecap:butt;stroke-linejoin:miter;stroke-opacity:1;" d="M 535.0 389.2 L 539.0 389.0 L 539.0 389.2 Q 539.0 389.5 540.0 389.8 Q 541.0 390.0 541.0 391.0 Q 541.0 392.0 535.5 394.8 Q 530.0 397.5 522.5 399.0 Q 515.0 400.5 509.5 401.5 L 504.0 402.5 L 503.0 402.5 L 502.0 402.5 L 500.5 402.5 L 499.0 402.5 L 497.5 402.8 L 496.0 403.0 L 494.0 402.8 Q 492.0 402.5 485.5 402.0 Q 479.0 401.5 468.0 405.2 L 457.0 409.0 L 456.5 409.2 Q 456.0 409.5 456.0 409.8 L 456.0 410.0 L 455.0 410.2 Q 454.0 410.5 451.5 412.0 L 449.0 413.5 L 448.8 413.8 Q 448.5 414.0 439.8 421.2 Q 431.0 428.5 425.5 430.5 Q 420.0 432.5 407.5 432.5 Q 395.0 432.5 382.0 437.5 Q 369.0 442.5 359.5 442.5 Q 350.0 442.5 336.0 443.2 Q 322.0 444.0 321.8 445.0 Q 321.5 446.0 318.2 445.5 L 315.0 445.0 L 314.0 444.8 Q 313.0 444.5 311.0 444.2 Q 309.0 444.0 309.0 443.0 Q 309.0 442.0 306.5 441.8 Q 304.0 441.5 303.5 440.2 Q 303.0 439.0 300.0 438.8 Q 297.0 438.5 298.0 438.0 Q 299.0 437.5 288.5 437.0 Q 278.0 436.5 272.0 437.5 Q 266.0 438.5 254.0 440.5 L 242.0 442.5 L 241.5 442.5 L 241.0 442.5 L 239.0 442.0 L 237.0 441.5 L 236.0 441.0 L 235.0 440.5 L 235.2 440.2 L 235.5 440.0 L 235.8 439.8 L 236.0 439.5 L 236.2 439.2 L 236.5 439.0 L 236.8 438.8 L 237.0 438.5 L 238.0 438.0 L 239.0 437.5 L 239.2 437.2 L 239.5 437.0 L 239.8 436.8 L 240.0 436.5 L 240.0 436.2 L 240.0 436.0 L 240.5 435.8 L 241.0 435.5 L 293.0 426.0 Q 345.0 416.5 348.5 416.0 L 352.0 415.5 L 354.0 415.0 L 356.0 414.5 L 356.0 414.2 L 356.0 414.0 L 385.5 409.2 Q 415.0 404.5 421.0 404.0 L 427.0 403.5 L 427.0 403.2 L 427.0 403.0 L 476.5 396.8 Q 526.0 390.5 528.5 390.0 Q 531.0 389.5 535.0 389.2 z &#10;"/>
  <path style="opacity:1;fill:#4B453E;fill-rule:evenodd;stroke:#4B453E;stroke-width:0.5px;stroke-linecap:butt;stroke-linejoin:miter;stroke-opacity:1;" d="M 112.5 393.2 L 119.0 393.0 L 119.2 394.0 L 119.5 395.0 L 119.8 395.0 L 120.0 395.0 L 120.2 397.0 Q 120.5 399.0 120.8 401.5 L 121.0 404.0 L 121.2 405.5 L 121.5 407.0 L 122.0 408.5 L 122.5 410.0 L 123.5 414.5 Q 124.5 419.0 126.0 426.0 Q 127.5 433.0 129.8 436.8 Q 132.0 440.5 135.5 442.0 Q 139.0 443.5 142.0 443.8 Q 145.0 444.0 145.0 445.0 Q 145.0 446.0 143.0 446.2 L 141.0 446.5 L 149.5 447.0 L 158.0 447.5 L 160.0 447.8 L 162.0 448.0 L 162.0 448.2 L 162.0 448.5 L 160.0 449.0 L 158.0 449.5 L 156.0 450.0 L 154.0 450.5 L 153.8 450.8 L 153.5 451.0 L 153.2 451.2 L 153.0 451.5 L 152.8 451.8 L 152.5 452.0 L 152.2 453.0 L 152.0 454.0 L 153.5 454.2 L 155.0 454.5 L 158.2 456.2 Q 161.5 458.0 161.2 458.2 L 161.0 458.5 L 160.0 459.0 Q 159.0 459.5 160.5 460.0 L 162.0 460.5 L 162.2 460.8 L 162.5 461.0 L 162.8 461.2 L 163.0 461.5 L 163.2 461.8 L 163.5 462.0 L 163.8 462.2 L 164.0 462.5 L 162.5 462.8 Q 161.0 463.0 161.0 464.0 Q 161.0 465.0 157.0 465.8 Q 153.0 466.5 153.8 467.2 Q 154.5 468.0 154.0 469.0 L 153.5 470.0 L 153.2 470.2 L 153.0 470.5 L 152.8 470.8 L 152.5 471.0 L 152.2 471.2 L 152.0 471.5 L 151.8 471.8 L 151.5 472.0 L 151.2 472.2 L 151.0 472.5 L 150.0 472.8 Q 149.0 473.0 149.0 474.0 L 149.0 475.0 L 148.8 475.0 Q 148.5 475.0 148.2 475.5 L 148.0 476.0 L 146.0 477.2 Q 144.0 478.5 144.0 478.8 L 144.0 479.0 L 143.0 479.2 Q 142.0 479.5 140.0 480.0 Q 138.0 480.5 127.5 481.5 Q 117.0 482.5 112.2 481.2 Q 107.5 480.0 104.2 479.0 L 101.0 478.0 L 100.0 477.8 Q 99.0 477.5 96.0 472.2 Q 93.0 467.0 90.0 467.2 Q 87.0 467.5 79.5 470.0 L 72.0 472.5 L 70.0 472.8 L 68.0 473.0 L 67.8 472.0 L 67.5 471.0 L 67.2 470.8 L 67.0 470.5 L 67.0 470.2 L 67.0 470.0 L 66.8 469.5 L 66.5 469.0 L 66.2 468.8 L 66.0 468.5 L 66.2 468.2 L 66.5 468.0 L 67.0 466.5 L 67.5 465.0 L 67.8 464.8 L 68.0 464.5 L 68.2 464.2 L 68.5 464.0 L 68.8 463.8 Q 69.0 463.5 72.0 462.0 Q 75.0 460.5 76.8 456.8 Q 78.5 453.0 79.0 449.5 Q 79.5 446.0 79.5 436.5 Q 79.5 427.0 80.5 426.0 Q 81.5 425.0 84.8 418.5 Q 88.0 412.0 89.0 412.0 Q 90.0 412.0 90.2 411.0 Q 90.5 410.0 94.0 405.0 Q 97.5 400.0 101.8 396.8 Q 106.0 393.5 112.5 393.2 z &#10;"/>
  <path style="opacity:1;fill:#945A3F;fill-rule:evenodd;stroke:#945A3F;stroke-width:0.5px;stroke-linecap:butt;stroke-linejoin:miter;stroke-opacity:1;" d="M 340.5 413.5 L 348.0 413.5 L 352.0 413.8 L 356.0 414.0 L 356.0 414.2 L 356.0 414.5 L 354.0 415.0 L 352.0 415.5 L 348.5 416.0 Q 345.0 416.5 293.0 426.0 L 241.0 435.5 L 240.5 435.8 L 240.0 436.0 L 237.0 436.2 Q 234.0 436.5 198.0 442.2 L 162.0 448.0 L 160.0 447.8 L 158.0 447.5 L 149.5 447.0 L 141.0 446.5 L 143.0 446.2 Q 145.0 446.0 145.0 445.0 Q 145.0 444.0 142.0 443.8 Q 139.0 443.5 135.5 442.0 Q 132.0 440.5 129.8 436.8 Q 127.5 433.0 126.0 426.0 Q 124.5 419.0 123.5 414.5 L 122.5 410.0 L 122.0 408.5 L 121.5 407.0 L 121.2 405.5 L 121.0 404.0 L 121.2 404.0 L 121.5 404.0 L 121.8 404.2 L 122.0 404.5 L 122.2 404.8 L 122.5 405.0 L 122.8 405.2 L 123.0 405.5 L 123.2 405.8 L 123.5 406.0 L 123.8 406.2 L 124.0 406.5 L 124.2 406.8 L 124.5 407.0 L 124.8 407.2 L 125.0 407.5 L 125.2 407.8 L 125.5 408.0 L 128.8 409.2 Q 132.0 410.5 144.5 410.0 Q 157.0 409.5 160.0 407.0 Q 163.0 404.5 166.8 404.8 Q 170.5 405.0 170.8 406.0 Q 171.0 407.0 175.5 409.2 Q 180.0 411.5 183.0 410.8 Q 186.0 410.0 186.0 409.0 Q 186.0 408.0 187.5 408.0 Q 189.0 408.0 189.5 406.8 Q 190.0 405.5 195.5 404.8 Q 201.0 404.0 201.0 403.0 Q 201.0 402.0 205.0 402.2 Q 209.0 402.5 210.0 404.8 Q 211.0 407.0 220.0 408.8 Q 229.0 410.5 243.0 410.5 Q 257.0 410.5 263.5 412.5 Q 270.0 414.5 301.5 414.0 Q 333.0 413.5 340.5 413.5 z &#10;"/>
  <path style="opacity:1;fill:#403733;fill-rule:evenodd;stroke:#403733;stroke-width:0.5px;stroke-linecap:butt;stroke-linejoin:miter;stroke-opacity:1;" d="M 237.0 436.2 L 240.0 436.0 L 240.0 436.2 L 240.0 436.5 L 239.8 436.8 L 239.5 437.0 L 239.2 437.2 L 239.0 437.5 L 238.0 438.0 L 237.0 438.5 L 236.8 438.8 L 236.5 439.0 L 236.2 439.2 L 236.0 439.5 L 235.8 439.8 L 235.5 440.0 L 235.2 440.2 L 235.0 440.5 L 236.0 441.0 L 237.0 441.5 L 239.0 442.0 L 241.0 442.5 L 241.5 442.5 L 242.0 442.5 L 254.0 440.5 Q 266.0 438.5 272.0 437.5 Q 278.0 436.5 288.5 437.0 Q 299.0 437.5 298.0 438.0 Q 297.0 438.5 300.0 438.8 Q 303.0 439.0 303.5 440.2 Q 304.0 441.5 306.5 441.8 Q 309.0 442.0 309.0 443.0 Q 309.0 444.0 311.0 444.2 Q 313.0 444.5 314.0 444.8 L 315.0 445.0 L 315.0 446.0 Q 315.0 447.0 314.0 447.2 Q 313.0 447.5 313.8 448.2 Q 314.5 449.0 314.2 449.2 Q 314.0 449.5 313.0 450.0 L 312.0 450.5 L 310.5 451.0 Q 309.0 451.5 302.5 454.5 Q 296.0 457.5 289.5 458.0 Q 283.0 458.5 278.5 460.5 Q 274.0 462.5 263.5 463.0 Q 253.0 463.5 251.0 465.0 Q 249.0 466.5 237.0 468.0 Q 225.0 469.5 220.0 471.5 Q 215.0 473.5 212.5 472.5 L 210.0 471.5 L 208.5 471.2 L 207.0 471.0 L 205.5 470.8 Q 204.0 470.5 196.5 471.0 Q 189.0 471.5 185.0 472.5 Q 181.0 473.5 177.5 476.0 Q 174.0 478.5 169.0 477.8 Q 164.0 477.0 164.0 476.0 Q 164.0 475.0 157.0 475.2 L 150.0 475.5 L 149.0 475.8 L 148.0 476.0 L 148.2 475.0 L 148.5 474.0 L 148.8 473.8 L 149.0 473.5 L 150.0 473.0 L 151.0 472.5 L 151.2 472.2 L 151.5 472.0 L 151.8 471.8 L 152.0 471.5 L 152.2 471.2 L 152.5 471.0 L 152.8 470.8 L 153.0 470.5 L 153.2 470.2 L 153.5 470.0 L 154.0 469.0 Q 154.5 468.0 153.8 467.2 Q 153.0 466.5 157.0 465.5 Q 161.0 464.5 160.0 464.2 Q 159.0 464.0 159.0 463.0 Q 159.0 462.0 161.5 462.2 L 164.0 462.5 L 163.8 462.2 L 163.5 462.0 L 163.2 461.8 L 163.0 461.5 L 162.8 461.2 L 162.5 461.0 L 162.2 460.8 L 162.0 460.5 L 160.5 460.0 Q 159.0 459.5 160.0 459.0 L 161.0 458.5 L 161.2 458.2 Q 161.5 458.0 158.2 456.2 L 155.0 454.5 L 153.5 454.2 L 152.0 454.0 L 152.2 453.0 L 152.5 452.0 L 152.8 451.8 L 153.0 451.5 L 153.2 451.2 L 153.5 451.0 L 153.8 450.8 L 154.0 450.5 L 156.0 450.0 L 158.0 449.5 L 160.0 449.0 L 162.0 448.5 L 162.0 448.2 L 162.0 448.0 L 198.0 442.2 Q 234.0 436.5 237.0 436.2 z &#10;"/>
</svg>