<?xml version="1.0" encoding="utf-8"?>
<svg id="svg5029" width="105.293487549" height="78.817017" viewBox="0 0 128 128" xmlns="http://www.w3.org/2000/svg">
  <defs id="defs5031">
    <filter id="filter4170">
      <feGaussianBlur stdDeviation="0.44299444" id="feGaussianBlur4172"/>
    </filter>
    <filter id="filter15084" height="1.6366205" y="-0.31831026" width="1.2187619" x="-0.10938093">
      <feGaussianBlur id="feGaussianBlur15086" stdDeviation="1.3732664"/>
    </filter>
    <filter id="filter5024" x="-0.16129228" width="1.3225846" y="-0.1323017" height="1.2646034">
      <feGaussianBlur stdDeviation="0.22149727" id="feGaussianBlur5026"/>
    </filter>
    <filter id="filter5020" x="-0.12750667" width="1.2550133" y="-0.17130455" height="1.342609">
      <feGaussianBlur stdDeviation="0.22149726" id="feGaussianBlur5022"/>
    </filter>
    <filter id="filter5016" x="-0.1657991" width="1.3315982" y="-0.12996924" height="1.2599385">
      <feGaussianBlur stdDeviation="0.22149726" id="feGaussianBlur5018"/>
    </filter>
    <filter id="filter5012" x="-0.12697844" width="1.2539569" y="-0.17260484" height="1.3452097">
      <feGaussianBlur stdDeviation="0.22149727" id="feGaussianBlur5014"/>
    </filter>
    <filter id="filter5008" x="-0.1563291" width="1.3126582" y="-0.13527934" height="1.2705587">
      <feGaussianBlur stdDeviation="0.22149728" id="feGaussianBlur5010"/>
    </filter>
    <filter id="filter5004" x="-0.14426371" width="1.2885274" y="-0.14509024" height="1.2901804">
      <feGaussianBlur stdDeviation="0.22149726" id="feGaussianBlur5006"/>
    </filter>
    <filter id="filter5000" x="-0.13954274" width="1.2790855" y="-0.15041474" height="1.3008295">
      <feGaussianBlur stdDeviation="0.22149726" id="feGaussianBlur5002"/>
    </filter>
    <filter id="filter4996" x="-0.12473382" width="1.2494676" y="-0.1787058" height="1.3574116">
      <feGaussianBlur stdDeviation="0.22149727" id="feGaussianBlur4998"/>
    </filter>
    <filter id="filter4992" x="-0.18442087" width="1.3688416" y="-0.12294724" height="1.2458946">
      <feGaussianBlur stdDeviation="0.22149727" id="feGaussianBlur4994"/>
    </filter>
    <filter id="filter4988" x="-0.18897516" width="1.3779503" y="-0.12598343" height="1.251967">
      <feGaussianBlur stdDeviation="0.22696716" id="feGaussianBlur4990"/>
    </filter>
    <filter id="filter4984" x="-0.12346985" width="1.2469397" y="-0.18264432" height="1.3652886">
      <feGaussianBlur stdDeviation="0.22149726" id="feGaussianBlur4986"/>
    </filter>
    <filter id="filter4980" x="-0.17282671" width="1.3456534" y="-0.12689017" height="1.2537802">
      <feGaussianBlur stdDeviation="0.22149728" id="feGaussianBlur4982"/>
    </filter>
    <filter id="filter4976" x="-0.14615186" width="1.2923037" y="-0.1432422" height="1.2864844">
      <feGaussianBlur stdDeviation="0.22149727" id="feGaussianBlur4978"/>
    </filter>
    <filter id="filter4972" x="-0.15300845" width="1.3060169" y="-0.13756356" height="1.2751271">
      <feGaussianBlur stdDeviation="0.22149726" id="feGaussianBlur4974"/>
    </filter>
    <filter id="filter4968" x="-0.1377627" width="1.2755255" y="-0.15273631" height="1.3054726">
      <feGaussianBlur stdDeviation="0.22149727" id="feGaussianBlur4970"/>
    </filter>
    <filter id="filter4964" x="-0.12453609" width="1.2490722" y="-0.17929442" height="1.3585888">
      <feGaussianBlur stdDeviation="0.22149727" id="feGaussianBlur4966"/>
    </filter>
    <filter id="filter4960" x="-0.12301854" width="1.2460371" y="-0.18417066" height="1.3683413">
      <feGaussianBlur stdDeviation="0.22149726" id="feGaussianBlur4962"/>
    </filter>
    <filter id="filter4956" x="-0.16592029" width="1.3318406" y="-0.12991075" height="1.2598215">
      <feGaussianBlur stdDeviation="0.22149727" id="feGaussianBlur4958"/>
    </filter>
    <filter id="filter4952" x="-0.18442087" width="1.3688416" y="-0.12294724" height="1.2458946">
      <feGaussianBlur stdDeviation="0.22149727" id="feGaussianBlur4954"/>
    </filter>
    <filter id="filter4948" x="-0.12485072" width="1.2497014" y="-0.17836216" height="1.3567243">
      <feGaussianBlur stdDeviation="0.22149728" id="feGaussianBlur4950"/>
    </filter>
    <filter id="filter4944" x="-0.12294849" width="1.2458971" y="-0.18441643" height="1.3688329">
      <feGaussianBlur stdDeviation="0.22149727" id="feGaussianBlur4946"/>
    </filter>
    <filter id="filter4940" x="-0.14972199" width="1.299444" y="-0.14010385" height="1.2802078">
      <feGaussianBlur stdDeviation="0.22149727" id="feGaussianBlur4942"/>
    </filter>
    <filter id="filter4936" x="-0.17885673" width="1.3577135" y="-0.12468283" height="1.2493657">
      <feGaussianBlur stdDeviation="0.22149728" id="feGaussianBlur4938"/>
    </filter>
    <filter id="filter4932" x="-0.14740059" width="1.2948012" y="-0.14209475" height="1.2841895">
      <feGaussianBlur stdDeviation="0.22149726" id="feGaussianBlur4934"/>
    </filter>
    <filter id="filter4928" x="-0.18442087" width="1.3688416" y="-0.12294724" height="1.2458946">
      <feGaussianBlur stdDeviation="0.22149727" id="feGaussianBlur4930"/>
    </filter>
    <filter id="filter4924" x="-0.16129228" width="1.3225846" y="-0.1323017" height="1.2646034">
      <feGaussianBlur stdDeviation="0.22149727" id="feGaussianBlur4926"/>
    </filter>
    <filter id="filter4920" x="-0.1657991" width="1.3315982" y="-0.12996924" height="1.2599385">
      <feGaussianBlur stdDeviation="0.22149726" id="feGaussianBlur4922"/>
    </filter>
    <filter id="filter4916" x="-0.14426371" width="1.2885274" y="-0.14509024" height="1.2901804">
      <feGaussianBlur stdDeviation="0.22149726" id="feGaussianBlur4918"/>
    </filter>
    <filter id="filter4912" x="-0.16129228" width="1.3225846" y="-0.1323017" height="1.2646034">
      <feGaussianBlur stdDeviation="0.22149727" id="feGaussianBlur4914"/>
    </filter>
    <filter id="filter4908" x="-0.12750667" width="1.2550133" y="-0.17130455" height="1.342609">
      <feGaussianBlur stdDeviation="0.22149726" id="feGaussianBlur4910"/>
    </filter>
    <filter id="filter4904" x="-0.1657991" width="1.3315982" y="-0.12996924" height="1.2599385">
      <feGaussianBlur stdDeviation="0.22149726" id="feGaussianBlur4906"/>
    </filter>
    <filter id="filter4900" x="-0.12697844" width="1.2539569" y="-0.17260484" height="1.3452097">
      <feGaussianBlur stdDeviation="0.22149727" id="feGaussianBlur4902"/>
    </filter>
    <filter id="filter4896" x="-0.1563291" width="1.3126582" y="-0.13527934" height="1.2705587">
      <feGaussianBlur stdDeviation="0.22149728" id="feGaussianBlur4898"/>
    </filter>
    <filter id="filter4892" x="-0.14426371" width="1.2885274" y="-0.14509024" height="1.2901804">
      <feGaussianBlur stdDeviation="0.22149726" id="feGaussianBlur4894"/>
    </filter>
    <filter id="filter4888" x="-0.13954274" width="1.2790855" y="-0.15041474" height="1.3008295">
      <feGaussianBlur stdDeviation="0.22149726" id="feGaussianBlur4890"/>
    </filter>
    <filter id="filter4884" x="-0.12473382" width="1.2494676" y="-0.1787058" height="1.3574116">
      <feGaussianBlur stdDeviation="0.22149727" id="feGaussianBlur4886"/>
    </filter>
    <filter id="filter4880" x="-0.18442087" width="1.3688416" y="-0.12294724" height="1.2458946">
      <feGaussianBlur stdDeviation="0.22149727" id="feGaussianBlur4882"/>
    </filter>
    <filter id="filter4876" x="-0.18897516" width="1.3779503" y="-0.12598343" height="1.251967">
      <feGaussianBlur stdDeviation="0.22696716" id="feGaussianBlur4878"/>
    </filter>
    <filter id="filter4872" x="-0.12346985" width="1.2469397" y="-0.18264432" height="1.3652886">
      <feGaussianBlur stdDeviation="0.22149726" id="feGaussianBlur4874"/>
    </filter>
    <filter id="filter4868" x="-0.17282671" width="1.3456534" y="-0.12689017" height="1.2537802">
      <feGaussianBlur stdDeviation="0.22149728" id="feGaussianBlur4870"/>
    </filter>
    <filter id="filter4864" x="-0.14615186" width="1.2923037" y="-0.1432422" height="1.2864844">
      <feGaussianBlur stdDeviation="0.22149727" id="feGaussianBlur4866"/>
    </filter>
    <filter id="filter4860" x="-0.15300845" width="1.3060169" y="-0.13756356" height="1.2751271">
      <feGaussianBlur stdDeviation="0.22149726" id="feGaussianBlur4862"/>
    </filter>
    <filter id="filter4856" x="-0.1377627" width="1.2755255" y="-0.15273631" height="1.3054726">
      <feGaussianBlur stdDeviation="0.22149727" id="feGaussianBlur4858"/>
    </filter>
    <filter id="filter4852" x="-0.12453609" width="1.2490722" y="-0.17929442" height="1.3585888">
      <feGaussianBlur stdDeviation="0.22149727" id="feGaussianBlur4854"/>
    </filter>
    <filter id="filter4848" x="-0.12301854" width="1.2460371" y="-0.18417066" height="1.3683413">
      <feGaussianBlur stdDeviation="0.22149726" id="feGaussianBlur4850"/>
    </filter>
    <filter id="filter4844" x="-0.16592029" width="1.3318406" y="-0.12991075" height="1.2598215">
      <feGaussianBlur stdDeviation="0.22149727" id="feGaussianBlur4846"/>
    </filter>
    <filter id="filter4840" x="-0.18442087" width="1.3688416" y="-0.12294724" height="1.2458946">
      <feGaussianBlur stdDeviation="0.22149727" id="feGaussianBlur4842"/>
    </filter>
    <filter id="filter4836" x="-0.12485072" width="1.2497014" y="-0.17836216" height="1.3567243">
      <feGaussianBlur stdDeviation="0.22149728" id="feGaussianBlur4838"/>
    </filter>
    <filter id="filter4832" x="-0.12294849" width="1.2458971" y="-0.18441643" height="1.3688329">
      <feGaussianBlur stdDeviation="0.22149727" id="feGaussianBlur4834"/>
    </filter>
    <filter id="filter4828" x="-0.14972199" width="1.299444" y="-0.14010385" height="1.2802078">
      <feGaussianBlur stdDeviation="0.22149727" id="feGaussianBlur4830"/>
    </filter>
    <filter id="filter4824" x="-0.17885673" width="1.3577135" y="-0.12468283" height="1.2493657">
      <feGaussianBlur stdDeviation="0.22149728" id="feGaussianBlur4826"/>
    </filter>
    <filter id="filter4820" x="-0.14740059" width="1.2948012" y="-0.14209475" height="1.2841895">
      <feGaussianBlur stdDeviation="0.22149726" id="feGaussianBlur4822"/>
    </filter>
    <filter id="filter4816" x="-0.18442087" width="1.3688416" y="-0.12294724" height="1.2458946">
      <feGaussianBlur stdDeviation="0.22149727" id="feGaussianBlur4818"/>
    </filter>
    <filter id="filter4812" x="-0.16129228" width="1.3225846" y="-0.1323017" height="1.2646034">
      <feGaussianBlur stdDeviation="0.22149727" id="feGaussianBlur4814"/>
    </filter>
    <filter id="filter4808" x="-0.1657991" width="1.3315982" y="-0.12996924" height="1.2599385">
      <feGaussianBlur stdDeviation="0.22149726" id="feGaussianBlur4810"/>
    </filter>
    <filter id="filter4804" x="-0.14426371" width="1.2885274" y="-0.14509024" height="1.2901804">
      <feGaussianBlur stdDeviation="0.22149726" id="feGaussianBlur4806"/>
    </filter>
  </defs>
  <path id="path4160" d="M 49.995 24.552 C 49.727 24.571 49.463 24.639 49.182 24.74 C 48.058 25.141 47.352 26.053 47.62 26.802 C 47.807 27.325 48.42 27.62 49.151 27.615 C 49.156 28.082 49.342 28.585 49.557 28.927 C 49.969 29.446 49.532 30.149 48.932 30.24 C 48.736 30.26 48.583 30.314 48.464 30.396 C 47.913 29.583 47.085 29.189 46.464 29.49 C 45.747 29.837 45.568 31.009 46.089 32.084 C 46.609 33.158 47.622 33.743 48.339 33.396 C 48.89 33.129 49.098 32.372 48.932 31.552 C 49.284 31.53 49.703 31.32 49.995 31.24 C 50.856 30.875 51.798 30.897 52.62 31.365 C 55.087 32.318 57.592 33.299 59.682 34.959 C 61.587 36.209 63.383 37.793 64.12 40.021 C 64.801 41.605 64.816 43.369 65.089 45.052 C 65.269 46.945 65.477 48.912 64.995 50.771 C 64.31 52.309 63.125 53.565 61.995 54.771 C 60.375 56.025 58.239 56.074 56.276 56.084 C 54.485 56.243 52.671 56.439 50.901 55.99 C 48.221 55.448 45.388 55.289 42.901 54.084 C 41.713 53.441 40.288 52.754 40.089 51.271 C 39.848 50.225 39.645 49.166 39.307 48.146 C 37.695 47.309 37.312 45.313 36.745 43.709 C 36.43 42.837 36.23 41.918 35.901 41.052 C 35.943 41.002 35.958 40.947 35.995 40.896 C 36.035 40.84 36.087 40.798 36.12 40.74 C 36.142 40.699 36.164 40.656 36.182 40.615 C 36.186 40.606 36.178 40.593 36.182 40.584 C 36.222 40.492 36.258 40.394 36.276 40.302 C 36.294 40.213 36.31 40.14 36.307 40.052 C 36.307 40.042 36.308 40.032 36.307 40.021 C 36.301 39.923 36.28 39.833 36.245 39.74 C 36.212 39.655 36.142 39.562 36.089 39.49 C 36.084 39.483 36.094 39.465 36.089 39.459 C 36.033 39.388 35.975 39.328 35.901 39.271 C 35.894 39.266 35.877 39.276 35.87 39.271 C 35.795 39.215 35.71 39.156 35.62 39.115 C 35.612 39.111 35.597 39.118 35.589 39.115 C 35.089 38.895 34.41 38.88 33.714 39.146 C 32.599 39.571 31.899 40.528 32.182 41.271 C 32.218 41.364 32.278 41.444 32.339 41.521 C 32.399 41.598 32.444 41.679 32.526 41.74 C 32.532 41.744 32.551 41.735 32.557 41.74 C 32.634 41.794 32.716 41.857 32.807 41.896 C 33.013 41.991 33.263 42.037 33.526 42.052 C 33.904 42.075 34.295 41.993 34.714 41.834 C 34.758 41.817 34.795 41.79 34.839 41.771 C 35.084 43.074 36.093 44.307 35.557 45.646 C 35.087 46.691 33.654 46.53 32.682 46.427 C 31.78 46.29 30.885 45.964 30.401 45.146 C 30.217 44.966 29.963 44.805 29.682 44.74 C 29.733 44.126 29.544 43.607 29.12 43.365 C 28.429 42.97 27.368 43.485 26.776 44.521 C 26.184 45.557 26.273 46.72 26.964 47.115 C 27.448 47.392 28.098 47.194 28.651 46.709 C 30.092 47.481 31.658 48.083 33.245 48.49 C 34.333 48.485 35.571 47.878 36.557 48.459 C 37.393 49.069 37.835 49.826 38.464 50.646 C 38.823 51.493 38.891 52.501 38.964 53.427 C 39.087 54.771 38.85 56.482 37.464 57.021 C 36.988 57.119 36.502 57.199 36.245 57.646 C 35.091 58.556 33.556 59.396 32.057 58.959 C 31.372 59.294 30.753 58.681 30.37 58.209 C 30.146 57.971 29.952 57.655 29.745 57.365 C 30.352 56.578 30.483 55.642 29.995 55.146 C 29.436 54.579 28.282 54.808 27.432 55.646 C 26.582 56.484 26.343 57.611 26.901 58.177 C 27.307 58.589 28.027 58.594 28.714 58.24 C 29.337 58.797 30.04 59.41 29.807 60.302 C 29.297 60.764 28.5 60.681 27.807 60.646 C 27.276 60.067 26.584 59.828 26.057 60.084 C 25.341 60.43 25.193 61.572 25.714 62.646 C 26.234 63.72 27.247 64.305 27.964 63.959 C 28.456 63.72 28.662 63.109 28.589 62.396 C 31.319 62.127 33.879 61.011 36.401 59.99 C 38.447 58.984 40.182 57.181 42.526 56.896 C 45.45 56.735 48.347 57.425 51.151 58.177 C 52.151 58.64 53.46 58.476 54.182 59.427 C 55.499 60.767 55.356 62.862 55.214 64.615 C 54.996 67.013 54.688 69.745 52.714 71.365 C 51.347 72.584 49.424 73.04 47.714 73.646 C 43.067 75.11 38.117 75.336 33.307 74.677 C 31.646 74.561 30.048 73.919 28.807 72.802 C 27.674 71.821 26.618 70.973 25.37 70.115 C 23.811 69.018 22.108 68.05 20.37 67.334 C 20.503 66.615 20.32 65.984 19.839 65.709 C 19.148 65.314 18.118 65.829 17.526 66.865 C 16.934 67.901 17.023 69.064 17.714 69.459 C 18.25 69.765 18.973 69.506 19.557 68.896 C 19.656 68.986 19.782 69.063 19.932 69.115 C 21.904 70.382 24.224 71.177 25.839 72.927 C 26.515 73.688 27.362 74.804 26.745 75.865 C 26.339 76.725 25.344 77.042 24.432 77.115 C 22.354 77.407 20.269 77.186 18.182 77.365 C 17.842 77.242 17.627 77.401 17.464 77.646 C 17.284 76.758 16.739 76.115 16.089 76.115 C 15.293 76.115 14.651 77.078 14.651 78.271 C 14.651 79.464 15.293 80.459 16.089 80.459 C 16.61 80.459 17.054 80.019 17.307 79.396 C 17.407 79.41 17.513 79.394 17.651 79.365 C 20.867 79.496 24.186 79.359 27.245 78.271 C 28.026 77.911 28.926 77.406 29.307 76.709 C 31.399 75.944 33.829 75.959 35.839 76.959 C 36.328 77.953 35.565 78.938 34.87 79.584 C 33.764 80.755 32.414 81.713 31.339 82.896 C 30.948 83.546 30.336 83.984 30.026 84.615 C 29.264 83.977 28.322 83.834 27.807 84.302 C 27.219 84.837 27.411 85.982 28.214 86.865 C 29.016 87.748 30.125 88.025 30.714 87.49 C 31.055 87.18 31.14 86.667 30.995 86.115 C 31.655 85.709 32.069 84.927 32.682 84.365 C 35.035 81.749 37.429 79.018 40.589 77.396 C 43.663 75.971 47.151 76.126 50.339 75.084 C 52.633 74.377 54.937 73.254 57.401 73.521 C 59.375 73.597 61.422 73.517 63.307 74.177 C 64.363 74.664 64.452 76.116 64.37 77.177 C 64.146 79.166 63.333 81.043 63.214 83.052 C 62.952 86.226 61.999 89.422 59.932 91.896 C 58.548 93.573 56.977 95.131 55.307 96.552 C 54.295 97.354 52.82 97.054 51.651 96.74 C 50.869 96.547 50.075 96.389 49.276 96.365 C 49.204 95.622 48.825 95.022 48.276 94.896 C 47.501 94.718 46.668 95.546 46.401 96.709 C 46.134 97.872 46.532 98.937 47.307 99.115 C 47.944 99.261 48.622 98.759 48.995 97.927 C 48.997 97.923 49.024 97.932 49.026 97.927 C 50.033 97.864 51.066 97.764 51.964 98.146 C 52.383 98.52 52.069 99.092 51.776 99.552 C 51.301 99.397 50.845 99.409 50.526 99.677 C 49.917 100.189 50.039 101.358 50.807 102.271 C 51.575 103.185 52.698 103.502 53.307 102.99 C 53.904 102.488 53.784 101.394 53.057 100.49 C 53.7 99.958 54.366 99.197 55.089 98.646 C 57.444 96.554 59.891 94.484 61.839 91.99 C 62.377 91.213 63.033 90.218 63.495 89.334 C 64.79 88.99 65.695 90.147 66.495 90.959 C 67.374 91.895 68.338 92.578 69.307 93.334 C 70.376 94.537 69.826 96.332 70.057 97.802 C 70.099 97.972 70.129 98.164 70.182 98.334 C 69.326 98.521 68.717 99.043 68.714 99.677 C 68.709 100.373 69.448 100.974 70.432 101.115 C 70.573 101.135 70.721 101.145 70.87 101.146 C 72.063 101.153 73.021 100.504 73.026 99.709 C 73.029 99.17 72.587 98.71 71.932 98.459 C 71.617 97.514 70.977 96.568 71.214 95.552 C 71.457 94.868 72.366 95.336 72.839 95.521 C 73.768 95.996 74.801 96.44 75.714 96.865 C 76.429 97.382 75.918 98.326 75.682 99.021 C 74.798 99.002 74.051 99.4 73.901 100.021 C 73.854 100.214 73.866 100.39 73.932 100.584 C 73.998 100.777 74.116 100.973 74.276 101.146 C 74.595 101.491 75.102 101.787 75.682 101.927 C 76.842 102.207 77.933 101.794 78.12 101.021 C 78.279 100.36 77.726 99.641 76.839 99.271 C 77.35 98.904 77.728 98.336 77.901 97.74 C 78.693 97.833 79.438 97.566 80.182 97.334 C 80.241 97.417 80.272 97.516 80.339 97.584 C 80.415 97.661 80.502 97.716 80.589 97.771 C 80.761 97.881 80.952 97.959 81.151 97.959 C 81.947 97.959 82.589 96.964 82.589 95.771 C 82.589 94.578 81.947 93.615 81.151 93.615 C 80.455 93.615 79.879 94.349 79.745 95.334 C 79.739 95.374 79.749 95.418 79.745 95.459 C 79.135 95.689 78.646 96.36 77.964 96.24 C 75.655 95.069 73.288 93.976 71.089 92.615 C 69.844 91.754 68.671 90.604 67.495 89.771 C 66.989 89.533 66.65 89.191 66.464 88.677 C 65.949 87.796 64.655 87.279 64.557 86.084 C 64.467 82.847 65.634 79.751 66.276 76.615 C 66.699 75.169 67.81 74.07 68.776 72.959 C 70.357 71.327 72.222 69.819 74.526 69.427 C 75.891 69.224 77.253 68.016 78.651 68.709 C 81.839 69.821 84.985 71.15 88.37 71.521 C 91.045 71.821 93.794 72.075 96.464 71.615 C 96.814 71.849 96.817 72.721 96.995 73.209 C 97.587 75.908 98.139 78.619 98.464 81.365 C 97.609 82.483 96.399 83.441 95.339 84.24 C 93.975 85.503 92.591 86.797 90.839 87.49 C 90.341 87.679 89.82 87.7 89.307 87.615 C 89.305 87.614 89.31 87.584 89.307 87.584 C 89.447 86.79 89.22 86.061 88.682 85.802 C 87.966 85.457 86.982 86.04 86.464 87.115 C 85.945 88.19 86.091 89.363 86.807 89.709 C 87.429 90.008 88.29 89.617 88.839 88.802 C 89.309 88.92 89.742 89.145 90.026 89.49 C 89.449 89.774 89.065 90.236 89.089 90.74 C 89.125 91.535 90.115 92.138 91.307 92.084 C 92.499 92.029 93.438 91.316 93.401 90.521 C 93.368 89.811 92.577 89.28 91.557 89.209 C 91.888 88.637 92.164 88.048 92.776 87.709 C 94.742 86.269 96.686 84.739 98.526 83.177 C 99.267 82.541 100.567 82.399 101.12 83.302 C 102.267 84.893 101.75 87.011 101.339 88.771 C 101.34 88.787 101.339 88.816 101.339 88.834 C 100.943 88.934 100.587 89.094 100.307 89.302 C 100.206 89.378 100.108 89.468 100.026 89.552 C 99.7 89.891 99.566 90.289 99.651 90.677 C 99.822 91.454 100.892 91.902 102.057 91.646 C 103.223 91.39 104.04 90.548 103.87 89.771 C 103.753 89.24 103.198 88.868 102.495 88.771 C 102.536 88.625 102.578 88.469 102.62 88.334 C 103.011 86.486 103.263 84.309 101.995 82.74 C 101.574 82.011 100.611 81.428 100.026 80.771 C 98.954 78.83 98.767 76.53 98.464 74.365 C 98.363 73.396 98.687 72.427 98.557 71.459 C 101.774 71.035 104.796 72.508 107.807 73.396 C 107.866 73.535 107.805 73.849 107.839 74.115 C 107.248 73.994 106.692 74.107 106.401 74.49 C 105.919 75.123 106.295 76.236 107.245 76.959 C 108.194 77.681 109.357 77.748 109.839 77.115 C 110.32 76.482 109.944 75.4 108.995 74.677 C 108.951 74.644 108.914 74.614 108.87 74.584 C 109.112 74.508 109.348 74.385 109.464 74.209 C 109.766 73.823 109.392 73.317 109.964 73.209 C 110.188 73.041 110.42 72.788 110.557 72.49 C 111.258 73.195 112.158 73.44 112.714 73.021 C 113.349 72.542 113.307 71.38 112.589 70.427 C 111.87 69.474 110.755 69.073 110.12 69.552 C 109.605 69.941 109.551 70.773 109.932 71.584 C 109.707 71.646 109.471 71.728 109.307 71.834 C 108.62 72.188 107.764 72.169 107.151 71.709 C 105.237 70.798 103.057 70.725 101.089 70.021 C 100.596 69.79 100.092 69.39 100.839 69.084 C 103.391 66.662 105.737 64.019 108.307 61.615 C 108.688 61.247 109.01 60.864 109.339 60.49 C 110.138 61.21 111.147 61.404 111.682 60.896 C 112.259 60.348 112.066 59.199 111.245 58.334 C 110.423 57.468 109.291 57.223 108.714 57.771 C 108.353 58.113 108.287 58.676 108.495 59.271 C 106.043 61.772 103.875 64.541 101.276 66.896 C 99.883 68.408 98.185 69.818 96.057 70.021 C 92.782 70.477 89.513 69.692 86.276 69.271 C 83.678 68.81 81.108 67.9 79.026 66.24 C 78.031 65.292 77.223 64.038 77.12 62.615 C 76.919 61.215 77.521 59.864 77.401 58.459 C 77.415 57.59 77.468 56.582 78.245 56.052 C 79.751 54.17 82.157 53.408 84.089 52.052 C 84.977 51.399 85.94 50.512 86.839 49.74 C 87.92 48.816 88.891 47.688 89.807 46.646 C 90.561 46.445 91.236 47.085 91.839 47.459 C 93.109 48.249 94.155 49.417 95.651 49.771 C 97.754 50.576 100.065 50.973 102.276 50.396 C 102.763 50.267 103.26 50.088 103.745 49.896 C 104.17 50.929 105.061 51.555 105.776 51.302 C 106.526 51.038 106.798 49.896 106.401 48.771 C 106.004 47.646 105.057 46.944 104.307 47.209 C 103.815 47.382 103.557 47.942 103.526 48.615 C 102.545 48.748 101.653 49.231 100.682 49.396 C 100.163 48.639 100.72 47.664 100.589 46.802 C 101.568 46.781 102.378 46.298 102.464 45.615 C 102.562 44.825 101.679 44.044 100.495 43.896 C 99.311 43.748 98.25 44.294 98.151 45.084 C 98.071 45.722 98.652 46.323 99.495 46.615 C 99.164 47.382 99.435 48.657 98.464 48.927 C 97.398 49.147 96.339 48.639 95.464 48.052 C 94.17 47.157 92.819 46.341 91.432 45.646 C 90.36 44.929 90.7 43.393 90.776 42.271 C 90.872 40.985 91.192 39.385 92.526 38.896 C 92.636 39.926 93.215 40.709 93.932 40.709 C 94.728 40.709 95.37 39.746 95.37 38.552 C 95.37 37.359 94.728 36.396 93.932 36.396 C 93.194 36.396 92.61 37.228 92.526 38.302 C 92.39 38.162 92.203 38.055 92.026 38.084 C 91.614 37.962 90.721 38.827 91.089 38.021 C 91.105 37.984 91.11 37.937 91.12 37.896 C 91.808 37.663 92.276 37.154 92.276 36.584 C 92.276 35.788 91.35 35.146 90.214 35.146 C 89.645 35.146 89.149 35.323 88.776 35.584 C 88.59 35.714 88.412 35.849 88.307 36.021 C 88.203 36.193 88.151 36.385 88.151 36.584 C 88.151 37.341 88.996 37.963 90.057 38.021 C 89.982 38.261 89.923 38.514 89.839 38.709 C 89.083 41.067 89.695 43.801 88.151 45.896 C 86.599 48.077 84.597 49.991 82.276 51.365 C 79.326 53.225 76.258 55.022 72.901 56.021 C 71.347 56.272 69.76 55.145 69.526 53.584 C 69.157 52.48 67.968 51.826 67.557 50.709 C 67.132 47.805 66.664 44.913 66.432 41.99 C 66.075 40.122 65.442 38.292 65.12 36.427 C 65.38 34.906 66.493 33.609 67.807 32.896 C 68.523 32.449 69.178 33.059 69.651 33.552 C 70.202 34.165 71.062 34.314 71.495 35.052 C 71.653 35.281 71.655 35.671 71.745 35.959 C 70.839 36.319 70.245 37.04 70.401 37.709 C 70.582 38.483 71.676 38.886 72.839 38.615 C 74.001 38.344 74.801 37.483 74.62 36.709 C 74.479 36.105 73.78 35.72 72.932 35.709 C 72.995 35.569 73.067 35.434 73.214 35.365 C 73.698 34.757 74.63 34.574 75.151 34.021 C 76.064 34.74 77.187 34.843 77.682 34.24 C 78.187 33.625 77.854 32.529 76.932 31.771 C 76.01 31.014 74.844 30.906 74.339 31.521 C 74.212 31.675 74.145 31.85 74.12 32.052 C 74.095 32.255 74.114 32.484 74.182 32.709 C 74.201 32.769 74.22 32.835 74.245 32.896 C 73.533 33.421 72.722 33.911 71.839 33.521 C 71.096 33.208 70.661 32.516 70.151 32.021 C 69.252 31.409 68.379 30.664 67.87 29.709 C 67.521 29.105 68.121 28.654 68.682 28.646 C 69.426 28.501 70.226 28.348 70.901 27.99 C 71.569 28.779 72.495 29.11 73.089 28.709 C 73.748 28.263 73.757 27.103 73.089 26.115 C 72.504 25.25 71.589 24.789 70.932 24.99 C 70.838 25.018 70.765 25.059 70.682 25.115 C 70.6 25.171 70.525 25.257 70.464 25.334 C 70.264 25.582 70.163 25.914 70.182 26.302 C 69.092 26.596 68.239 27.65 67.089 27.709 C 67.635 26.942 67.714 26.091 67.245 25.615 C 66.686 25.048 65.564 25.246 64.714 26.084 C 64.395 26.398 64.163 26.762 64.026 27.115 C 63.98 27.232 63.925 27.343 63.901 27.459 C 63.805 27.919 63.903 28.363 64.182 28.646 C 64.608 29.079 65.371 29.024 66.089 28.615 C 66.363 29.659 67.219 30.657 66.745 31.74 C 65.859 32.902 64.773 33.979 63.557 34.802 C 61.843 35.161 60.41 33.874 59.089 32.99 C 56.759 31.491 54.006 30.748 51.776 29.084 C 51.313 28.668 50.819 28.293 50.651 27.646 C 50.611 27.532 50.572 27.391 50.526 27.271 C 51.408 26.813 51.916 26.02 51.682 25.365 C 51.482 24.803 50.799 24.498 49.995 24.552 Z" style="fill-opacity: 1; stroke: none; stroke-width: 0.2; stroke-miterlimit: 4; stroke-dasharray: none; stroke-opacity: 1; filter: url(#filter4170);"/>
  <path id="path4695" d="M 70.401 63.583 C 70.401 66.511 67.403 69.723 63.916 69.723 C 60.429 69.723 57.599 67.346 57.599 64.418 C 57.599 61.489 60.597 58.278 64.084 58.278 C 65.827 58.278 67.406 58.872 68.55 59.832 C 69.693 60.792 70.401 62.118 70.401 63.583 Z" style="opacity: 0.777778; fill-opacity: 1; fill-rule: evenodd; stroke: rgb(83, 46, 131); stroke-width: 0.574476; stroke-linecap: butt; stroke-linejoin: miter; marker: none; stroke-miterlimit: 4; stroke-dashoffset: 0; stroke-opacity: 1; visibility: visible; display: inline; overflow: visible;"/>
  <path id="path4697" d="M 67.997 63.889 C 67.997 64.405 65.741 65.412 63.581 65.412 C 61.421 65.412 60.003 63.619 60.003 63.103 C 60.003 62.588 61.197 64.135 63.357 64.135 C 65.517 64.135 67.997 63.374 67.997 63.889 Z" style="opacity: 0.770609; fill-opacity: 1; fill-rule: evenodd; stroke: none; stroke-width: 2.31; stroke-linecap: butt; stroke-linejoin: miter; marker: none; stroke-miterlimit: 4; stroke-dashoffset: 0; stroke-opacity: 1; visibility: visible; display: inline; overflow: visible; filter: url(#filter15084);"/>
  <path style="opacity: 0.770609; fill-opacity: 1; fill-rule: evenodd; stroke: none; stroke-width: 2.31; stroke-linecap: butt; stroke-linejoin: miter; marker: none; stroke-miterlimit: 4; stroke-dashoffset: 0; stroke-opacity: 1; visibility: visible; display: inline; overflow: visible; filter: url(#filter15084);" d="M 67.813 63.882 C 67.884 64.43 65.901 65.501 63.871 65.501 C 61.839 65.501 60.258 63.595 60.187 63.047 C 60.116 62.499 61.453 64.144 63.484 64.144 C 65.516 64.144 67.743 63.335 67.813 63.882 Z" id="path4699" transform="matrix(0.746891, -0.664946, 0.664946, 0.746891, -26.357598, 58.755516)"/>
  <path style="opacity: 0.770609; fill-opacity: 1; fill-rule: evenodd; stroke: none; stroke-width: 2.31; stroke-linecap: butt; stroke-linejoin: miter; marker: none; stroke-miterlimit: 4; stroke-dashoffset: 0; stroke-opacity: 1; visibility: visible; display: inline; overflow: visible; filter: url(#filter15084);" d="M 67.997 63.889 C 67.997 64.405 65.741 65.412 63.581 65.412 C 61.421 65.412 60.003 63.619 60.003 63.103 C 60.003 62.588 61.197 64.135 63.357 64.135 C 65.517 64.135 67.997 63.374 67.997 63.889 Z" id="path4701"/>
  <path id="path4703" d="M 67.997 63.889 C 67.997 64.405 65.741 65.412 63.581 65.412 C 61.421 65.412 60.003 63.619 60.003 63.103 C 60.003 62.588 61.197 64.135 63.357 64.135 C 65.517 64.135 67.997 63.374 67.997 63.889 Z" style="opacity: 0.770609; fill-opacity: 1; fill-rule: evenodd; stroke: none; stroke-width: 2.31; stroke-linecap: butt; stroke-linejoin: miter; marker: none; stroke-miterlimit: 4; stroke-dashoffset: 0; stroke-opacity: 1; visibility: visible; display: inline; overflow: visible; filter: url(#filter15084);"/>
  <path style="opacity: 0.806; fill-opacity: 0.206349; fill-rule: evenodd; stroke: none; stroke-width: 1.70395; stroke-linecap: butt; stroke-linejoin: miter; marker: none; stroke-miterlimit: 4; stroke-dashoffset: 0; stroke-opacity: 1; visibility: visible; display: inline; overflow: visible;" d="M 70.814 63.537 C 70.814 66.783 67.622 70.344 63.91 70.344 C 60.199 70.344 57.186 67.709 57.186 64.463 C 57.186 61.216 60.377 57.656 64.089 57.656 C 65.945 57.656 67.626 58.315 68.843 59.379 C 70.06 60.444 70.814 61.914 70.814 63.537 Z" id="path4705"/>
  <path d="M 65.441 64 C 65.442 65.664 64.243 66.706 63.28 65.876 C 62.833 65.489 62.558 64.774 62.558 64 C 62.557 62.336 63.758 61.294 64.719 62.124 C 65.166 62.511 65.441 63.226 65.441 64 Z" id="path3806" style="opacity: 0.5; fill-opacity: 1; stroke: none; stroke-width: 0.4; stroke-linejoin: bevel; stroke-miterlimit: 4; stroke-dasharray: none; stroke-opacity: 1; filter: url(#filter5024);" transform="matrix(0.868243, 0.496139, -0.496139, 0.868243, 40.185281, -23.320212)"/>
  <path style="opacity: 0.5; fill-opacity: 1; stroke: none; stroke-width: 0.4; stroke-linejoin: bevel; stroke-miterlimit: 4; stroke-dasharray: none; stroke-opacity: 1; filter: url(#filter5020);" id="path3808" d="M 65.442 64 C 65.443 65.664 64.243 66.706 63.281 65.876 C 62.833 65.489 62.559 64.774 62.559 64 C 62.558 62.336 63.759 61.294 64.72 62.124 C 65.167 62.511 65.442 63.226 65.442 64 Z" transform="matrix(0.356506, 0.934293, -0.934293, 0.356506, 100.978689, -18.611603)"/>
  <path d="M 65.441 64 C 65.442 65.664 64.243 66.706 63.28 65.876 C 62.833 65.489 62.558 64.774 62.559 64 C 62.557 62.336 63.758 61.294 64.719 62.124 C 65.166 62.511 65.442 63.226 65.441 64 Z" id="path3810" style="opacity: 0.5; fill-opacity: 1; stroke: none; stroke-width: 0.4; stroke-linejoin: bevel; stroke-miterlimit: 4; stroke-dasharray: none; stroke-opacity: 1; filter: url(#filter5016);" transform="matrix(0.900039, -0.435809, 0.435809, 0.900039, -21.494336, 34.289062)"/>
  <path style="opacity: 0.5; fill-opacity: 1; stroke: none; stroke-width: 0.4; stroke-linejoin: bevel; stroke-miterlimit: 4; stroke-dasharray: none; stroke-opacity: 1; filter: url(#filter5012);" id="path3812" d="M 65.441 64 C 65.442 65.664 64.242 66.706 63.281 65.876 C 62.834 65.489 62.558 64.774 62.559 64 C 62.558 62.336 63.758 61.294 64.719 62.124 C 65.166 62.511 65.442 63.226 65.441 64 Z" transform="matrix(0.336336, 0.941742, -0.941742, 0.336336, 102.745989, -17.796997)"/>
  <path d="M 65.44 64 C 65.443 65.664 64.242 66.707 63.28 65.876 C 62.833 65.49 62.557 64.773 62.558 64 C 62.557 62.336 63.757 61.293 64.72 62.125 C 65.167 62.511 65.442 63.226 65.44 64 Z" id="path3814" style="opacity: 0.5; fill-opacity: 1; stroke: none; stroke-width: 0.4; stroke-linejoin: bevel; stroke-miterlimit: 4; stroke-dasharray: none; stroke-opacity: 1; filter: url(#filter5008);" transform="matrix(0.828443, -0.560074, 0.560074, 0.828443, -24.865056, 46.824379)"/>
  <path style="opacity: 0.5; fill-opacity: 1; stroke: none; stroke-width: 0.4; stroke-linejoin: bevel; stroke-miterlimit: 4; stroke-dasharray: none; stroke-opacity: 1; filter: url(#filter5004);" id="path3816" d="M 65.441 64 C 65.442 65.665 64.241 66.707 63.28 65.876 C 62.833 65.49 62.558 64.774 62.558 64 C 62.557 62.336 63.757 61.294 64.719 62.125 C 65.166 62.511 65.441 63.226 65.441 64 Z" transform="matrix(0.70185, 0.712325, -0.712325, 0.70185, 64.670605, -26.506683)"/>
  <path d="M 65.441 64 C 65.442 65.664 64.242 66.706 63.28 65.875 C 62.833 65.489 62.558 64.774 62.558 64 C 62.557 62.335 63.757 61.293 64.719 62.124 C 65.166 62.51 65.441 63.226 65.441 64 Z" id="path3818" style="opacity: 0.5; fill-opacity: 1; stroke: none; stroke-width: 0.4; stroke-linejoin: bevel; stroke-miterlimit: 4; stroke-dasharray: none; stroke-opacity: 1; filter: url(#filter5000);" transform="matrix(0.634739, -0.772726, 0.772726, 0.634739, -26.077592, 72.830609)"/>
  <path style="opacity: 0.5; fill-opacity: 1; stroke: none; stroke-width: 0.4; stroke-linejoin: bevel; stroke-miterlimit: 4; stroke-dasharray: none; stroke-opacity: 1; filter: url(#filter4996);" id="path3820" d="M 65.442 64 C 65.443 65.665 64.243 66.707 63.281 65.876 C 62.834 65.49 62.559 64.774 62.56 64 C 62.558 62.336 63.759 61.294 64.72 62.125 C 65.167 62.511 65.443 63.226 65.442 64 Z" transform="matrix(-0.22723, -0.973841, 0.973841, -0.22723, 16.216993, 140.869654)"/>
  <path d="M 65.441 63.999 C 65.442 65.664 64.243 66.706 63.281 65.875 C 62.833 65.49 62.559 64.773 62.559 63.999 C 62.558 62.335 63.758 61.293 64.719 62.124 C 65.166 62.51 65.441 63.225 65.441 63.999 Z" id="path3822" style="opacity: 0.5; fill-opacity: 1; stroke: none; stroke-width: 0.4; stroke-linejoin: bevel; stroke-miterlimit: 4; stroke-dasharray: none; stroke-opacity: 1; filter: url(#filter4992);"/>
  <path style="opacity: 0.5; fill-opacity: 1; stroke: none; stroke-width: 0.4; stroke-linejoin: bevel; stroke-miterlimit: 4; stroke-dasharray: none; stroke-opacity: 1; filter: url(#filter4988);" id="path3825" d="M 66.058 64.001 C 66.06 65.11 64.345 65.805 62.972 65.251 C 62.333 64.993 61.94 64.517 61.94 64.001 C 61.939 62.891 63.654 62.196 65.027 62.75 C 65.666 63.008 66.059 63.485 66.058 64.001 Z"/>
  <path d="M 65.441 64.001 C 65.443 65.665 64.242 66.707 63.281 65.876 C 62.834 65.49 62.558 64.775 62.559 64.001 C 62.558 62.336 63.758 61.294 64.719 62.125 C 65.167 62.511 65.442 63.227 65.441 64.001 Z" id="path3827" style="opacity: 0.5; fill-opacity: 1; stroke: none; stroke-width: 0.4; stroke-linejoin: bevel; stroke-miterlimit: 4; stroke-dasharray: none; stroke-opacity: 1; filter: url(#filter4984);" transform="matrix(0.124035, -0.992278, 0.992278, 0.124035, -7.444097, 119.568474)"/>
  <path style="opacity: 0.5; fill-opacity: 1; stroke: none; stroke-width: 0.4; stroke-linejoin: bevel; stroke-miterlimit: 4; stroke-dasharray: none; stroke-opacity: 1; filter: url(#filter4980);" id="path3829" d="M 65.441 63.999 C 65.442 65.664 64.242 66.706 63.281 65.875 C 62.834 65.489 62.558 64.773 62.559 63.999 C 62.558 62.335 63.758 61.293 64.719 62.124 C 65.166 62.51 65.442 63.225 65.441 63.999 Z" transform="matrix(0.94299, -0.33282, 0.33282, 0.94299, -17.651701, 24.949078)"/>
  <path d="M 65.441 64 C 65.442 65.664 64.242 66.706 63.281 65.875 C 62.833 65.489 62.558 64.774 62.559 64 C 62.558 62.335 63.758 61.293 64.719 62.124 C 65.166 62.51 65.442 63.226 65.441 64 Z" id="path3831" style="opacity: 0.5; fill-opacity: 1; stroke: none; stroke-width: 0.4; stroke-linejoin: bevel; stroke-miterlimit: 4; stroke-dasharray: none; stroke-opacity: 1; filter: url(#filter4976);" transform="matrix(0.725306, -0.688426, 0.688426, 0.725306, -26.478539, 61.639557)"/>
  <path style="opacity: 0.5; fill-opacity: 1; stroke: none; stroke-width: 0.4; stroke-linejoin: bevel; stroke-miterlimit: 4; stroke-dasharray: none; stroke-opacity: 1; filter: url(#filter4972);" id="path3833" d="M 65.442 64 C 65.443 65.664 64.243 66.706 63.281 65.876 C 62.834 65.49 62.559 64.774 62.559 64 C 62.558 62.336 63.759 61.294 64.72 62.125 C 65.167 62.511 65.442 63.226 65.442 64 Z" transform="matrix(0.798427, -0.602092, 0.602092, 0.798427, -25.633097, 51.434864)"/>
  <path d="M 65.441 64 C 65.442 65.664 64.242 66.706 63.281 65.876 C 62.834 65.489 62.558 64.774 62.559 64 C 62.558 62.336 63.758 61.294 64.719 62.124 C 65.166 62.511 65.442 63.226 65.441 64 Z" id="path3835" style="opacity: 0.5; fill-opacity: 1; stroke: none; stroke-width: 0.4; stroke-linejoin: bevel; stroke-miterlimit: 4; stroke-dasharray: none; stroke-opacity: 1; filter: url(#filter4968);" transform="matrix(0.605522, -0.795829, 0.795829, 0.605522, -25.686435, 76.179636)"/>
  <path style="opacity: 0.5; fill-opacity: 1; stroke: none; stroke-width: 0.4; stroke-linejoin: bevel; stroke-miterlimit: 4; stroke-dasharray: none; stroke-opacity: 1; filter: url(#filter4964);" id="path3837" d="M 65.441 64 C 65.442 65.664 64.242 66.706 63.281 65.875 C 62.834 65.489 62.558 64.774 62.559 64 C 62.558 62.336 63.758 61.294 64.719 62.124 C 65.166 62.51 65.442 63.226 65.441 64 Z" transform="matrix(-0.21458, -0.976706, 0.976706, -0.21458, 15.223899, 140.242329)"/>
  <path d="M 65.441 64 C 65.442 65.665 64.243 66.707 63.281 65.876 C 62.834 65.49 62.559 64.774 62.56 64 C 62.558 62.336 63.758 61.294 64.719 62.125 C 65.167 62.511 65.442 63.226 65.441 64 Z" id="path3839" style="opacity: 0.5; fill-opacity: 1; stroke: none; stroke-width: 0.4; stroke-linejoin: bevel; stroke-miterlimit: 4; stroke-dasharray: none; stroke-opacity: 1; filter: url(#filter4960);" transform="matrix(-0.046004, -0.998941, 0.998941, -0.046004, 3.011516, 130.877036)"/>
  <path style="opacity: 0.5; fill-opacity: 1; stroke: none; stroke-width: 0.4; stroke-linejoin: bevel; stroke-miterlimit: 4; stroke-dasharray: none; stroke-opacity: 1; filter: url(#filter4956);" id="path3841" d="M 65.441 64 C 65.442 65.665 64.241 66.707 63.28 65.876 C 62.833 65.49 62.558 64.774 62.558 64 C 62.557 62.336 63.757 61.294 64.719 62.125 C 65.166 62.511 65.441 63.226 65.441 64 Z" transform="matrix(0.900844, 0.434142, -0.434142, 0.900844, 34.131228, -21.438873)"/>
  <path d="M 65.44 64.001 C 65.442 65.665 64.242 66.707 63.281 65.876 C 62.833 65.49 62.557 64.775 62.559 64.001 C 62.557 62.336 63.757 61.293 64.718 62.125 C 65.166 62.511 65.441 63.226 65.44 64.001 Z" id="path3843" style="opacity: 0.5; fill-opacity: 1; stroke: none; stroke-width: 0.4; stroke-linejoin: bevel; stroke-miterlimit: 4; stroke-dasharray: none; stroke-opacity: 1; filter: url(#filter4952);"/>
  <path style="opacity: 0.5; fill-opacity: 1; stroke: none; stroke-width: 0.4; stroke-linejoin: bevel; stroke-miterlimit: 4; stroke-dasharray: none; stroke-opacity: 1; filter: url(#filter4948);" id="path3845" d="M 65.442 63.999 C 65.443 65.664 64.242 66.706 63.281 65.875 C 62.834 65.489 62.558 64.773 62.559 63.999 C 62.558 62.335 63.758 61.293 64.72 62.124 C 65.167 62.51 65.442 63.225 65.442 63.999 Z" transform="matrix(0.234358, -0.97215, 0.97215, 0.234358, -13.215672, 111.218795)"/>
  <path d="M 65.44 64 C 65.442 65.664 64.242 66.706 63.28 65.876 C 62.833 65.489 62.557 64.774 62.558 64 C 62.557 62.336 63.757 61.294 64.719 62.124 C 65.166 62.511 65.441 63.226 65.44 64 Z" id="path3847" style="opacity: 0.5; fill-opacity: 1; stroke: none; stroke-width: 0.4; stroke-linejoin: bevel; stroke-miterlimit: 4; stroke-dasharray: none; stroke-opacity: 1; filter: url(#filter4944);" transform="matrix(0.006097, -0.999981, 0.999981, 0.006097, -0.389507, 127.608116)"/>
  <path style="opacity: 0.5; fill-opacity: 1; stroke: none; stroke-width: 0.4; stroke-linejoin: bevel; stroke-miterlimit: 4; stroke-dasharray: none; stroke-opacity: 1; filter: url(#filter4940);" id="path3849" d="M 65.442 64 C 65.443 65.664 64.243 66.706 63.281 65.876 C 62.834 65.489 62.559 64.774 62.56 64 C 62.558 62.336 63.759 61.294 64.72 62.124 C 65.167 62.511 65.443 63.226 65.442 64 Z" transform="matrix(0.765486, -0.643452, 0.643452, 0.765486, -26.17195, 56.190156)"/>
  <path d="M 65.441 64 C 65.442 65.665 64.242 66.707 63.281 65.876 C 62.834 65.49 62.558 64.774 62.559 64 C 62.558 62.336 63.758 61.294 64.719 62.125 C 65.166 62.511 65.442 63.226 65.441 64 Z" id="path3851" style="opacity: 0.5; fill-opacity: 1; stroke: none; stroke-width: 0.4; stroke-linejoin: bevel; stroke-miterlimit: 4; stroke-dasharray: none; stroke-opacity: 1; filter: url(#filter4936);" transform="matrix(0.97458, 0.224041, -0.224041, 0.97458, 15.965626, -12.711707)"/>
  <path style="opacity: 0.5; fill-opacity: 1; stroke: none; stroke-width: 0.4; stroke-linejoin: bevel; stroke-miterlimit: 4; stroke-dasharray: none; stroke-opacity: 1; filter: url(#filter4932);" id="path3853" d="M 65.441 63.999 C 65.442 65.664 64.243 66.706 63.28 65.875 C 62.833 65.49 62.558 64.773 62.558 63.999 C 62.557 62.335 63.757 61.293 64.719 62.124 C 65.166 62.51 65.441 63.225 65.441 63.999 Z" transform="matrix(0.73994, -0.672673, 0.672673, 0.73994, -26.407013, 59.694441)"/>
  <path d="M 65.441 64 C 65.442 65.664 64.242 66.706 63.281 65.875 C 62.833 65.489 62.558 64.774 62.559 64 C 62.558 62.336 63.758 61.294 64.719 62.124 C 65.166 62.51 65.442 63.226 65.441 64 Z" id="path3855" style="opacity: 0.5; fill-opacity: 1; stroke: none; stroke-width: 0.4; stroke-linejoin: bevel; stroke-miterlimit: 4; stroke-dasharray: none; stroke-opacity: 1; filter: url(#filter4928);"/>
  <path style="opacity: 0.5; fill-opacity: 1; stroke: none; stroke-width: 0.4; stroke-linejoin: bevel; stroke-miterlimit: 4; stroke-dasharray: none; stroke-opacity: 1; filter: url(#filter4924);" id="path3857" d="M 65.441 64 C 65.442 65.665 64.243 66.707 63.28 65.876 C 62.833 65.49 62.558 64.774 62.558 64 C 62.557 62.336 63.757 61.294 64.719 62.125 C 65.166 62.511 65.441 63.226 65.441 64 Z" transform="matrix(0.868243, 0.496139, -0.496139, 0.868243, 40.185532, -23.320145)"/>
  <path d="M 65.441 64 C 65.442 65.664 64.242 66.706 63.28 65.876 C 62.833 65.489 62.558 64.774 62.558 64 C 62.557 62.336 63.757 61.294 64.719 62.124 C 65.166 62.511 65.441 63.226 65.441 64 Z" id="path3859" style="opacity: 0.5; fill-opacity: 1; stroke: none; stroke-width: 0.4; stroke-linejoin: bevel; stroke-miterlimit: 4; stroke-dasharray: none; stroke-opacity: 1; filter: url(#filter4920);" transform="matrix(0.900039, -0.435809, 0.435809, 0.900039, -21.494336, 34.289062)"/>
  <path style="opacity: 0.5; fill-opacity: 1; stroke: none; stroke-width: 0.4; stroke-linejoin: bevel; stroke-miterlimit: 4; stroke-dasharray: none; stroke-opacity: 1; filter: url(#filter4916);" id="path3861" d="M 65.441 64 C 65.442 65.664 64.243 66.706 63.28 65.876 C 62.833 65.489 62.558 64.774 62.558 64 C 62.557 62.336 63.758 61.294 64.719 62.124 C 65.166 62.511 65.441 63.226 65.441 64 Z" transform="matrix(0.70185, 0.712325, -0.712325, 0.70185, 64.670242, -26.506834)"/>
  <path style="opacity: 0.5; fill-opacity: 1; stroke: none; stroke-width: 0.4; stroke-linejoin: bevel; stroke-miterlimit: 4; stroke-dasharray: none; stroke-opacity: 1; filter: url(#filter4912);" id="path3865" d="M 65.441 64 C 65.442 65.664 64.243 66.706 63.28 65.876 C 62.833 65.489 62.558 64.774 62.558 64 C 62.557 62.336 63.758 61.294 64.719 62.124 C 65.166 62.511 65.441 63.226 65.441 64 Z" transform="matrix(0.868243, 0.496139, -0.496139, 0.868243, 40.185281, -23.320212)"/>
  <path d="M 65.442 64 C 65.443 65.664 64.243 66.706 63.281 65.876 C 62.833 65.489 62.559 64.774 62.559 64 C 62.558 62.336 63.759 61.294 64.72 62.124 C 65.167 62.511 65.442 63.226 65.442 64 Z" id="path3867" style="opacity: 0.5; fill-opacity: 1; stroke: none; stroke-width: 0.4; stroke-linejoin: bevel; stroke-miterlimit: 4; stroke-dasharray: none; stroke-opacity: 1; filter: url(#filter4908);" transform="matrix(0.356506, 0.934293, -0.934293, 0.356506, 100.978689, -18.611603)"/>
  <path style="opacity: 0.5; fill-opacity: 1; stroke: none; stroke-width: 0.4; stroke-linejoin: bevel; stroke-miterlimit: 4; stroke-dasharray: none; stroke-opacity: 1; filter: url(#filter4904);" id="path3869" d="M 65.441 64 C 65.442 65.664 64.243 66.706 63.28 65.876 C 62.833 65.489 62.558 64.774 62.559 64 C 62.557 62.336 63.758 61.294 64.719 62.124 C 65.166 62.511 65.442 63.226 65.441 64 Z" transform="matrix(0.900039, -0.435809, 0.435809, 0.900039, -21.494336, 34.289062)"/>
  <path d="M 65.441 64 C 65.442 65.664 64.242 66.706 63.281 65.876 C 62.834 65.489 62.558 64.774 62.559 64 C 62.558 62.336 63.758 61.294 64.719 62.124 C 65.166 62.511 65.442 63.226 65.441 64 Z" id="path3871" style="opacity: 0.5; fill-opacity: 1; stroke: none; stroke-width: 0.4; stroke-linejoin: bevel; stroke-miterlimit: 4; stroke-dasharray: none; stroke-opacity: 1; filter: url(#filter4900);" transform="matrix(0.336336, 0.941742, -0.941742, 0.336336, 102.745989, -17.796997)"/>
  <path style="opacity: 0.5; fill-opacity: 1; stroke: none; stroke-width: 0.4; stroke-linejoin: bevel; stroke-miterlimit: 4; stroke-dasharray: none; stroke-opacity: 1; filter: url(#filter4896);" id="path3873" d="M 65.44 64 C 65.443 65.664 64.242 66.707 63.28 65.876 C 62.833 65.49 62.557 64.773 62.558 64 C 62.557 62.336 63.757 61.293 64.72 62.125 C 65.167 62.511 65.442 63.226 65.44 64 Z" transform="matrix(0.828443, -0.560074, 0.560074, 0.828443, -24.865056, 46.824379)"/>
  <path d="M 65.441 64 C 65.442 65.665 64.241 66.707 63.28 65.876 C 62.833 65.49 62.558 64.774 62.558 64 C 62.557 62.336 63.757 61.294 64.719 62.125 C 65.166 62.511 65.441 63.226 65.441 64 Z" id="path3875" style="opacity: 0.5; fill-opacity: 1; stroke: none; stroke-width: 0.4; stroke-linejoin: bevel; stroke-miterlimit: 4; stroke-dasharray: none; stroke-opacity: 1; filter: url(#filter4892);" transform="matrix(0.70185, 0.712325, -0.712325, 0.70185, 64.670605, -26.506683)"/>
  <path style="opacity: 0.5; fill-opacity: 1; stroke: none; stroke-width: 0.4; stroke-linejoin: bevel; stroke-miterlimit: 4; stroke-dasharray: none; stroke-opacity: 1; filter: url(#filter4888);" id="path3877" d="M 65.441 64 C 65.442 65.664 64.242 66.706 63.28 65.875 C 62.833 65.489 62.558 64.774 62.558 64 C 62.557 62.335 63.757 61.293 64.719 62.124 C 65.166 62.51 65.441 63.226 65.441 64 Z" transform="matrix(0.634739, -0.772726, 0.772726, 0.634739, -26.077592, 72.830609)"/>
  <path d="M 65.442 64 C 65.443 65.665 64.243 66.707 63.281 65.876 C 62.834 65.49 62.559 64.774 62.56 64 C 62.558 62.336 63.759 61.294 64.72 62.125 C 65.167 62.511 65.443 63.226 65.442 64 Z" id="path3879" style="opacity: 0.5; fill-opacity: 1; stroke: none; stroke-width: 0.4; stroke-linejoin: bevel; stroke-miterlimit: 4; stroke-dasharray: none; stroke-opacity: 1; filter: url(#filter4884);" transform="matrix(-0.22723, -0.973841, 0.973841, -0.22723, 16.216993, 140.869654)"/>
  <path style="opacity: 0.5; fill-opacity: 1; stroke: none; stroke-width: 0.4; stroke-linejoin: bevel; stroke-miterlimit: 4; stroke-dasharray: none; stroke-opacity: 1; filter: url(#filter4880);" id="path3881" d="M 65.441 63.999 C 65.442 65.664 64.243 66.706 63.281 65.875 C 62.833 65.49 62.559 64.773 62.559 63.999 C 62.558 62.335 63.758 61.293 64.719 62.124 C 65.166 62.51 65.441 63.225 65.441 63.999 Z"/>
  <path d="M 66.058 64.001 C 66.06 65.11 64.345 65.805 62.972 65.251 C 62.333 64.993 61.94 64.517 61.94 64.001 C 61.939 62.891 63.654 62.196 65.027 62.75 C 65.666 63.008 66.059 63.485 66.058 64.001 Z" id="path3883" style="opacity: 0.5; fill-opacity: 1; stroke: none; stroke-width: 0.4; stroke-linejoin: bevel; stroke-miterlimit: 4; stroke-dasharray: none; stroke-opacity: 1; filter: url(#filter4876);"/>
  <path style="opacity: 0.5; fill-opacity: 1; stroke: none; stroke-width: 0.4; stroke-linejoin: bevel; stroke-miterlimit: 4; stroke-dasharray: none; stroke-opacity: 1; filter: url(#filter4872);" id="path3885" d="M 65.441 64.001 C 65.443 65.665 64.242 66.707 63.281 65.876 C 62.834 65.49 62.558 64.775 62.559 64.001 C 62.558 62.336 63.758 61.294 64.719 62.125 C 65.167 62.511 65.442 63.227 65.441 64.001 Z" transform="matrix(0.124035, -0.992278, 0.992278, 0.124035, -7.444097, 119.568474)"/>
  <path d="M 65.441 63.999 C 65.442 65.664 64.242 66.706 63.281 65.875 C 62.834 65.489 62.558 64.773 62.559 63.999 C 62.558 62.335 63.758 61.293 64.719 62.124 C 65.166 62.51 65.442 63.225 65.441 63.999 Z" id="path3887" style="opacity: 0.5; fill-opacity: 1; stroke: none; stroke-width: 0.4; stroke-linejoin: bevel; stroke-miterlimit: 4; stroke-dasharray: none; stroke-opacity: 1; filter: url(#filter4868);" transform="matrix(0.94299, -0.33282, 0.33282, 0.94299, -17.651701, 24.949078)"/>
  <path style="opacity: 0.5; fill-opacity: 1; stroke: none; stroke-width: 0.4; stroke-linejoin: bevel; stroke-miterlimit: 4; stroke-dasharray: none; stroke-opacity: 1; filter: url(#filter4864);" id="path3889" d="M 65.441 64 C 65.442 65.664 64.242 66.706 63.281 65.875 C 62.833 65.489 62.558 64.774 62.559 64 C 62.558 62.335 63.758 61.293 64.719 62.124 C 65.166 62.51 65.442 63.226 65.441 64 Z" transform="matrix(0.725306, -0.688426, 0.688426, 0.725306, -26.478539, 61.639557)"/>
  <path d="M 65.442 64 C 65.443 65.664 64.243 66.706 63.281 65.876 C 62.834 65.49 62.559 64.774 62.559 64 C 62.558 62.336 63.759 61.294 64.72 62.125 C 65.167 62.511 65.442 63.226 65.442 64 Z" id="path3891" style="opacity: 0.5; fill-opacity: 1; stroke: none; stroke-width: 0.4; stroke-linejoin: bevel; stroke-miterlimit: 4; stroke-dasharray: none; stroke-opacity: 1; filter: url(#filter4860);" transform="matrix(0.798427, -0.602092, 0.602092, 0.798427, -25.633097, 51.434864)"/>
  <path style="opacity: 0.5; fill-opacity: 1; stroke: none; stroke-width: 0.4; stroke-linejoin: bevel; stroke-miterlimit: 4; stroke-dasharray: none; stroke-opacity: 1; filter: url(#filter4856);" id="path3893" d="M 65.441 64 C 65.442 65.664 64.242 66.706 63.281 65.876 C 62.834 65.489 62.558 64.774 62.559 64 C 62.558 62.336 63.758 61.294 64.719 62.124 C 65.166 62.511 65.442 63.226 65.441 64 Z" transform="matrix(0.605522, -0.795829, 0.795829, 0.605522, -25.686435, 76.179636)"/>
  <path d="M 65.441 64 C 65.442 65.664 64.242 66.706 63.281 65.875 C 62.834 65.489 62.558 64.774 62.559 64 C 62.558 62.336 63.758 61.294 64.719 62.124 C 65.166 62.51 65.442 63.226 65.441 64 Z" id="path3895" style="opacity: 0.5; fill-opacity: 1; stroke: none; stroke-width: 0.4; stroke-linejoin: bevel; stroke-miterlimit: 4; stroke-dasharray: none; stroke-opacity: 1; filter: url(#filter4852);" transform="matrix(-0.21458, -0.976706, 0.976706, -0.21458, 15.223899, 140.242329)"/>
  <path style="opacity: 0.5; fill-opacity: 1; stroke: none; stroke-width: 0.4; stroke-linejoin: bevel; stroke-miterlimit: 4; stroke-dasharray: none; stroke-opacity: 1; filter: url(#filter4848);" id="path3897" d="M 65.441 64 C 65.442 65.665 64.243 66.707 63.281 65.876 C 62.834 65.49 62.559 64.774 62.56 64 C 62.558 62.336 63.758 61.294 64.719 62.125 C 65.167 62.511 65.442 63.226 65.441 64 Z" transform="matrix(-0.046004, -0.998941, 0.998941, -0.046004, 3.011516, 130.877036)"/>
  <path d="M 65.441 64 C 65.442 65.665 64.241 66.707 63.28 65.876 C 62.833 65.49 62.558 64.774 62.558 64 C 62.557 62.336 63.757 61.294 64.719 62.125 C 65.166 62.511 65.441 63.226 65.441 64 Z" id="path3899" style="opacity: 0.5; fill-opacity: 1; stroke: none; stroke-width: 0.4; stroke-linejoin: bevel; stroke-miterlimit: 4; stroke-dasharray: none; stroke-opacity: 1; filter: url(#filter4844);" transform="matrix(0.900844, 0.434142, -0.434142, 0.900844, 34.131228, -21.438873)"/>
  <path style="opacity: 0.5; fill-opacity: 1; stroke: none; stroke-width: 0.4; stroke-linejoin: bevel; stroke-miterlimit: 4; stroke-dasharray: none; stroke-opacity: 1; filter: url(#filter4840);" id="path3901" d="M 65.44 64.001 C 65.442 65.665 64.242 66.707 63.281 65.876 C 62.833 65.49 62.557 64.775 62.559 64.001 C 62.557 62.336 63.757 61.293 64.718 62.125 C 65.166 62.511 65.441 63.226 65.44 64.001 Z"/>
  <path d="M 65.442 63.999 C 65.443 65.664 64.242 66.706 63.281 65.875 C 62.834 65.489 62.558 64.773 62.559 63.999 C 62.558 62.335 63.758 61.293 64.72 62.124 C 65.167 62.51 65.442 63.225 65.442 63.999 Z" id="path3903" style="opacity: 0.5; fill-opacity: 1; stroke: none; stroke-width: 0.4; stroke-linejoin: bevel; stroke-miterlimit: 4; stroke-dasharray: none; stroke-opacity: 1; filter: url(#filter4836);" transform="matrix(0.234358, -0.97215, 0.97215, 0.234358, -13.215672, 111.218795)"/>
  <path style="opacity: 0.5; fill-opacity: 1; stroke: none; stroke-width: 0.4; stroke-linejoin: bevel; stroke-miterlimit: 4; stroke-dasharray: none; stroke-opacity: 1; filter: url(#filter4832);" id="path3905" d="M 65.44 64 C 65.442 65.664 64.242 66.706 63.28 65.876 C 62.833 65.489 62.557 64.774 62.558 64 C 62.557 62.336 63.757 61.294 64.719 62.124 C 65.166 62.511 65.441 63.226 65.44 64 Z" transform="matrix(0.006097, -0.999981, 0.999981, 0.006097, -0.389507, 127.608116)"/>
  <path d="M 65.442 64 C 65.443 65.664 64.243 66.706 63.281 65.876 C 62.834 65.489 62.559 64.774 62.56 64 C 62.558 62.336 63.759 61.294 64.72 62.124 C 65.167 62.511 65.443 63.226 65.442 64 Z" id="path3907" style="opacity: 0.5; fill-opacity: 1; stroke: none; stroke-width: 0.4; stroke-linejoin: bevel; stroke-miterlimit: 4; stroke-dasharray: none; stroke-opacity: 1; filter: url(#filter4828);" transform="matrix(0.765486, -0.643452, 0.643452, 0.765486, -26.17195, 56.190156)"/>
  <path style="opacity: 0.5; fill-opacity: 1; stroke: none; stroke-width: 0.4; stroke-linejoin: bevel; stroke-miterlimit: 4; stroke-dasharray: none; stroke-opacity: 1; filter: url(#filter4824);" id="path3909" d="M 65.441 64 C 65.442 65.665 64.242 66.707 63.281 65.876 C 62.834 65.49 62.558 64.774 62.559 64 C 62.558 62.336 63.758 61.294 64.719 62.125 C 65.166 62.511 65.442 63.226 65.441 64 Z" transform="matrix(0.97458, 0.224041, -0.224041, 0.97458, 15.965626, -12.711707)"/>
  <path d="M 65.441 63.999 C 65.442 65.664 64.243 66.706 63.28 65.875 C 62.833 65.49 62.558 64.773 62.558 63.999 C 62.557 62.335 63.757 61.293 64.719 62.124 C 65.166 62.51 65.441 63.225 65.441 63.999 Z" id="path3911" style="opacity: 0.5; fill-opacity: 1; stroke: none; stroke-width: 0.4; stroke-linejoin: bevel; stroke-miterlimit: 4; stroke-dasharray: none; stroke-opacity: 1; filter: url(#filter4820);" transform="matrix(0.73994, -0.672673, 0.672673, 0.73994, -26.407013, 59.694441)"/>
  <path style="opacity: 0.5; fill-opacity: 1; stroke: none; stroke-width: 0.4; stroke-linejoin: bevel; stroke-miterlimit: 4; stroke-dasharray: none; stroke-opacity: 1; filter: url(#filter4816);" id="path3913" d="M 65.441 64 C 65.442 65.664 64.242 66.706 63.281 65.875 C 62.833 65.489 62.558 64.774 62.559 64 C 62.558 62.336 63.758 61.294 64.719 62.124 C 65.166 62.51 65.442 63.226 65.441 64 Z"/>
  <path d="M 65.441 64 C 65.442 65.665 64.243 66.707 63.28 65.876 C 62.833 65.49 62.558 64.774 62.558 64 C 62.557 62.336 63.757 61.294 64.719 62.125 C 65.166 62.511 65.441 63.226 65.441 64 Z" id="path3915" style="opacity: 0.5; fill-opacity: 1; stroke: none; stroke-width: 0.4; stroke-linejoin: bevel; stroke-miterlimit: 4; stroke-dasharray: none; stroke-opacity: 1; filter: url(#filter4812);" transform="matrix(0.868243, 0.496139, -0.496139, 0.868243, 40.185532, -23.320145)"/>
  <path style="opacity: 0.5; fill-opacity: 1; stroke: none; stroke-width: 0.4; stroke-linejoin: bevel; stroke-miterlimit: 4; stroke-dasharray: none; stroke-opacity: 1; filter: url(#filter4808);" id="path3917" d="M 65.441 64 C 65.442 65.664 64.242 66.706 63.28 65.876 C 62.833 65.489 62.558 64.774 62.558 64 C 62.557 62.336 63.757 61.294 64.719 62.124 C 65.166 62.511 65.441 63.226 65.441 64 Z" transform="matrix(0.900039, -0.435809, 0.435809, 0.900039, -21.494336, 34.289062)"/>
  <path d="M 65.441 64 C 65.442 65.664 64.243 66.706 63.28 65.876 C 62.833 65.489 62.558 64.774 62.558 64 C 62.557 62.336 63.758 61.294 64.719 62.124 C 65.166 62.511 65.441 63.226 65.441 64 Z" id="path3919" style="opacity: 0.5; fill-opacity: 1; stroke: none; stroke-width: 0.4; stroke-linejoin: bevel; stroke-miterlimit: 4; stroke-dasharray: none; stroke-opacity: 1; filter: url(#filter4804);" transform="matrix(0.70185, 0.712325, -0.712325, 0.70185, 64.670242, -26.506834)"/>
</svg>