<?xml version="1.0" encoding="utf-8"?>
<svg id="svg17265" width="1262.9628" height="1333.1053" xmlns="http://www.w3.org/2000/svg">
  <defs id="defs17267">
    <filter color-interpolation-filters="sRGB" id="filter17007">
      <feGaussianBlur id="feGaussianBlur17009" stdDeviation="23.302482"/>
    </filter>
    <linearGradient x1="-942.85706" y1="-1061.9235" x2="-331.42859" y2="-239.06639" id="linearGradient18192" gradientUnits="userSpaceOnUse" gradientTransform="matrix(0.9826112,0,0,1,-28.529043,0)">
      <stop id="stop16995" style="stop-color:#ffffff;stop-opacity:1" offset="0"/>
      <stop id="stop16997" style="stop-color:#ffffff;stop-opacity:0" offset="1"/>
    </linearGradient>
    <linearGradient x1="-942.85706" y1="-1061.9235" x2="-331.42859" y2="-239.06639" id="linearGradient18194" gradientUnits="userSpaceOnUse" gradientTransform="matrix(0.9826112,0,0,1,-28.529043,0)">
      <stop id="stop16995" style="stop-color:#ffffff;stop-opacity:1" offset="0"/>
      <stop id="stop16997" style="stop-color:#ffffff;stop-opacity:0" offset="1"/>
    </linearGradient>
    <linearGradient x1="-942.85706" y1="-1061.9235" x2="-331.42859" y2="-239.06639" id="linearGradient18196" gradientUnits="userSpaceOnUse" gradientTransform="matrix(0.9826112,0,0,1,-28.529043,0)">
      <stop id="stop16995" style="stop-color:#ffffff;stop-opacity:1" offset="0"/>
      <stop id="stop16997" style="stop-color:#ffffff;stop-opacity:0" offset="1"/>
    </linearGradient>
    <linearGradient x1="-942.85706" y1="-1061.9235" x2="-331.42859" y2="-239.06639" id="linearGradient18198" gradientUnits="userSpaceOnUse" gradientTransform="matrix(0.9826112,0,0,1,-28.529043,0)">
      <stop id="stop16995" style="stop-color:#ffffff;stop-opacity:1" offset="0"/>
      <stop id="stop16997" style="stop-color:#ffffff;stop-opacity:0" offset="1"/>
    </linearGradient>
    <linearGradient x1="-942.85706" y1="-1061.9235" x2="-331.42859" y2="-239.06639" id="linearGradient18200" gradientUnits="userSpaceOnUse" gradientTransform="matrix(0.9826112,0,0,1,-28.529043,0)">
      <stop id="stop16995" style="stop-color:#ffffff;stop-opacity:1" offset="0"/>
      <stop id="stop16997" style="stop-color:#ffffff;stop-opacity:0" offset="1"/>
    </linearGradient>
    <linearGradient x1="-942.85706" y1="-1061.9235" x2="-331.42859" y2="-239.06639" id="linearGradient18202" gradientUnits="userSpaceOnUse" gradientTransform="matrix(0.9826112,0,0,1,-28.529043,0)">
      <stop id="stop16995" style="stop-color:#ffffff;stop-opacity:1" offset="0"/>
      <stop id="stop16997" style="stop-color:#ffffff;stop-opacity:0" offset="1"/>
    </linearGradient>
    <linearGradient x1="-942.85706" y1="-1061.9235" x2="-331.42859" y2="-239.06639" id="linearGradient18204" gradientUnits="userSpaceOnUse" gradientTransform="matrix(0.9826112,0,0,1,-28.529043,0)">
      <stop id="stop16995" style="stop-color:#ffffff;stop-opacity:1" offset="0"/>
      <stop id="stop16997" style="stop-color:#ffffff;stop-opacity:0" offset="1"/>
    </linearGradient>
    <linearGradient x1="-942.85706" y1="-1061.9235" x2="-331.42859" y2="-239.06639" id="linearGradient18206" gradientUnits="userSpaceOnUse" gradientTransform="matrix(0.9826112,0,0,1,-28.529043,0)">
      <stop id="stop16995" style="stop-color:#ffffff;stop-opacity:1" offset="0"/>
      <stop id="stop16997" style="stop-color:#ffffff;stop-opacity:0" offset="1"/>
    </linearGradient>
    <linearGradient x1="-942.85706" y1="-1061.9235" x2="-331.42859" y2="-239.06639" id="linearGradient18208" gradientUnits="userSpaceOnUse" gradientTransform="matrix(0.9826112,0,0,1,-28.529043,0)">
      <stop id="stop16995" style="stop-color:#ffffff;stop-opacity:1" offset="0"/>
      <stop id="stop16997" style="stop-color:#ffffff;stop-opacity:0" offset="1"/>
    </linearGradient>
  </defs>
  <g transform="translate(314.77937,492.19672)" id="layer1">
    <g transform="matrix(0.09326423,0.04788931,-0.04788931,0.09326423,374.48769,103.65684)" id="g17107">
      <path d="m 79.999995,-301.92349 -822.604975,-89.12145 -539.76352,627.11795 -169.4394,-809.88387 -763.2207,-319.55552 717.8857,-411.41432 68.0672,-824.6141 613.11708,555.6158 805.288558,-190.084 -338.958458,754.8038 z" transform="matrix(0.97625854,0,0,0.99538674,437.51279,447.06137)" id="path17109" style="opacity:0.8495575;fill:#000000;fill-opacity:1;stroke:none;filter:url(#filter17007)"/>
      <path d="m 79.999995,-301.92349 -822.604975,-89.12145 -539.76352,627.11795 -169.4394,-809.88387 -763.2207,-319.55552 717.8857,-411.41432 68.0672,-824.6141 613.11708,555.6158 805.288558,-190.084 -338.958458,754.8038 z" transform="translate(434.28571,445.71429)" id="path17111" style="opacity:0.78761058;fill:#ff6600;fill-opacity:1;stroke:none"/>
      <path d="m 79.999995,-301.92349 -822.604975,-89.12145 -539.76352,627.11795 -169.4394,-809.88387 -763.2207,-319.55552 717.8857,-411.41432 68.0672,-824.6141 613.11708,555.6158 805.288558,-190.084 -338.958458,754.8038 z" transform="matrix(-0.7446731,-0.52829332,0.52829332,-0.7446731,-747.4126,-1770.0372)" id="path17113" style="opacity:0.58407078;fill:#ffff00;fill-opacity:1;stroke:none"/>
      <path d="m -1010.7718,-832.84375 c 0,8.25172 -8.739,11.06946 -14.6163,14.1875 -96.4914,56.82683 -193.5194,112.92999 -290.2171,169.47854 -108.3503,63.18423 -216.7007,126.36847 -325.051,189.55271 187.0543,79.70833 374.1087,159.41667 561.1631,239.125 184.08624,-71.85488 366.35561,-150.12487 540.20089,-245.18304 80.39465,-44.4593 159.27074,-92.25217 229.77617,-151.874 38.95037,-33.25109 71.98867,-73.0008 99.61082,-116.40786 56.45584,-87.15154 97.4236,-183.32248 134.121817,-280.4332 17.873893,-48.0348 34.225204,-96.5864 49.649474,-145.5081 -129.291421,31.0685 -258.584371,62.1306 -387.885771,93.1562 -179.12169,-165.319 -358.34675,-330.5222 -537.54974,-495.75 -19.7341,243.2188 -39.46822,486.4375 -59.20236,729.65625 z" id="path17115" style="fill:url(#linearGradient18192);fill-opacity:1;stroke:none"/>
    </g>
    <g transform="matrix(0.05938655,-0.06980399,0.06980399,0.05938655,668.279,205.04257)" id="g17025">
      <path d="m 79.999995,-301.92349 -822.604975,-89.12145 -539.76352,627.11795 -169.4394,-809.88387 -763.2207,-319.55552 717.8857,-411.41432 68.0672,-824.6141 613.11708,555.6158 805.288558,-190.084 -338.958458,754.8038 z" transform="matrix(0.97625854,0,0,0.99538674,437.51279,447.06137)" id="path17027" style="opacity:0.8495575;fill:#000000;fill-opacity:1;stroke:none;filter:url(#filter17007)"/>
      <path d="m 79.999995,-301.92349 -822.604975,-89.12145 -539.76352,627.11795 -169.4394,-809.88387 -763.2207,-319.55552 717.8857,-411.41432 68.0672,-824.6141 613.11708,555.6158 805.288558,-190.084 -338.958458,754.8038 z" transform="translate(434.28571,445.71429)" id="path17029" style="opacity:0.78761058;fill:#ff6600;fill-opacity:1;stroke:none"/>
      <path d="m 79.999995,-301.92349 -822.604975,-89.12145 -539.76352,627.11795 -169.4394,-809.88387 -763.2207,-319.55552 717.8857,-411.41432 68.0672,-824.6141 613.11708,555.6158 805.288558,-190.084 -338.958458,754.8038 z" transform="matrix(-0.7446731,-0.52829332,0.52829332,-0.7446731,-747.4126,-1770.0372)" id="path17031" style="opacity:0.58407078;fill:#ffff00;fill-opacity:1;stroke:none"/>
      <path d="m -1010.7718,-832.84375 c 0,8.25172 -8.739,11.06946 -14.6163,14.1875 -96.4914,56.82683 -193.5194,112.92999 -290.2171,169.47854 -108.3503,63.18423 -216.7007,126.36847 -325.051,189.55271 187.0543,79.70833 374.1087,159.41667 561.1631,239.125 184.08624,-71.85488 366.35561,-150.12487 540.20089,-245.18304 80.39465,-44.4593 159.27074,-92.25217 229.77617,-151.874 38.95037,-33.25109 71.98867,-73.0008 99.61082,-116.40786 56.45584,-87.15154 97.4236,-183.32248 134.121817,-280.4332 17.873893,-48.0348 34.225204,-96.5864 49.649474,-145.5081 -129.291421,31.0685 -258.584371,62.1306 -387.885771,93.1562 -179.12169,-165.319 -358.34675,-330.5222 -537.54974,-495.75 -19.7341,243.2188 -39.46822,486.4375 -59.20236,729.65625 z" id="path17033" style="fill:url(#linearGradient18194);fill-opacity:1;stroke:none"/>
    </g>
    <g transform="matrix(0.03282063,-0.03857793,0.03857793,0.03282063,78.651267,-74.747567)" id="g17037">
      <path d="m 79.999995,-301.92349 -822.604975,-89.12145 -539.76352,627.11795 -169.4394,-809.88387 -763.2207,-319.55552 717.8857,-411.41432 68.0672,-824.6141 613.11708,555.6158 805.288558,-190.084 -338.958458,754.8038 z" transform="matrix(0.97625854,0,0,0.99538674,437.51279,447.06137)" id="path17039" style="opacity:0.8495575;fill:#000000;fill-opacity:1;stroke:none;filter:url(#filter17007)"/>
      <path d="m 79.999995,-301.92349 -822.604975,-89.12145 -539.76352,627.11795 -169.4394,-809.88387 -763.2207,-319.55552 717.8857,-411.41432 68.0672,-824.6141 613.11708,555.6158 805.288558,-190.084 -338.958458,754.8038 z" transform="translate(434.28571,445.71429)" id="path17041" style="opacity:0.78761058;fill:#ff6600;fill-opacity:1;stroke:none"/>
      <path d="m 79.999995,-301.92349 -822.604975,-89.12145 -539.76352,627.11795 -169.4394,-809.88387 -763.2207,-319.55552 717.8857,-411.41432 68.0672,-824.6141 613.11708,555.6158 805.288558,-190.084 -338.958458,754.8038 z" transform="matrix(-0.7446731,-0.52829332,0.52829332,-0.7446731,-747.4126,-1770.0372)" id="path17043" style="opacity:0.58407078;fill:#ffff00;fill-opacity:1;stroke:none"/>
      <path d="m -1010.7718,-832.84375 c 0,8.25172 -8.739,11.06946 -14.6163,14.1875 -96.4914,56.82683 -193.5194,112.92999 -290.2171,169.47854 -108.3503,63.18423 -216.7007,126.36847 -325.051,189.55271 187.0543,79.70833 374.1087,159.41667 561.1631,239.125 184.08624,-71.85488 366.35561,-150.12487 540.20089,-245.18304 80.39465,-44.4593 159.27074,-92.25217 229.77617,-151.874 38.95037,-33.25109 71.98867,-73.0008 99.61082,-116.40786 56.45584,-87.15154 97.4236,-183.32248 134.121817,-280.4332 17.873893,-48.0348 34.225204,-96.5864 49.649474,-145.5081 -129.291421,31.0685 -258.584371,62.1306 -387.885771,93.1562 -179.12169,-165.319 -358.34675,-330.5222 -537.54974,-495.75 -19.7341,243.2188 -39.46822,486.4375 -59.20236,729.65625 z" id="path17045" style="fill:url(#linearGradient18196);fill-opacity:1;stroke:none"/>
    </g>
    <g transform="matrix(-0.04375211,-0.0514985,0.0514985,-0.04375211,600.79187,-117.08715)" id="g17049">
      <path d="m 79.999995,-301.92349 -822.604975,-89.12145 -539.76352,627.11795 -169.4394,-809.88387 -763.2207,-319.55552 717.8857,-411.41432 68.0672,-824.6141 613.11708,555.6158 805.288558,-190.084 -338.958458,754.8038 z" transform="matrix(0.97625854,0,0,0.99538674,437.51279,447.06137)" id="path17051" style="opacity:0.8495575;fill:#000000;fill-opacity:1;stroke:none;filter:url(#filter17007)"/>
      <path d="m 79.999995,-301.92349 -822.604975,-89.12145 -539.76352,627.11795 -169.4394,-809.88387 -763.2207,-319.55552 717.8857,-411.41432 68.0672,-824.6141 613.11708,555.6158 805.288558,-190.084 -338.958458,754.8038 z" transform="translate(434.28571,445.71429)" id="path17053" style="opacity:0.78761058;fill:#ff6600;fill-opacity:1;stroke:none"/>
      <path d="m 79.999995,-301.92349 -822.604975,-89.12145 -539.76352,627.11795 -169.4394,-809.88387 -763.2207,-319.55552 717.8857,-411.41432 68.0672,-824.6141 613.11708,555.6158 805.288558,-190.084 -338.958458,754.8038 z" transform="matrix(-0.7446731,-0.52829332,0.52829332,-0.7446731,-747.4126,-1770.0372)" id="path17055" style="opacity:0.58407078;fill:#ffff00;fill-opacity:1;stroke:none"/>
      <path d="m -1010.7718,-832.84375 c 0,8.25172 -8.739,11.06946 -14.6163,14.1875 -96.4914,56.82683 -193.5194,112.92999 -290.2171,169.47854 -108.3503,63.18423 -216.7007,126.36847 -325.051,189.55271 187.0543,79.70833 374.1087,159.41667 561.1631,239.125 184.08624,-71.85488 366.35561,-150.12487 540.20089,-245.18304 80.39465,-44.4593 159.27074,-92.25217 229.77617,-151.874 38.95037,-33.25109 71.98867,-73.0008 99.61082,-116.40786 56.45584,-87.15154 97.4236,-183.32248 134.121817,-280.4332 17.873893,-48.0348 34.225204,-96.5864 49.649474,-145.5081 -129.291421,31.0685 -258.584371,62.1306 -387.885771,93.1562 -179.12169,-165.319 -358.34675,-330.5222 -537.54974,-495.75 -19.7341,243.2188 -39.46822,486.4375 -59.20236,729.65625 z" id="path17057" style="fill:url(#linearGradient18198);fill-opacity:1;stroke:none"/>
    </g>
    <g transform="matrix(0.0505833,0.02597351,-0.02597351,0.0505833,655.06203,475.41618)" id="g17095">
      <path d="m 79.999995,-301.92349 -822.604975,-89.12145 -539.76352,627.11795 -169.4394,-809.88387 -763.2207,-319.55552 717.8857,-411.41432 68.0672,-824.6141 613.11708,555.6158 805.288558,-190.084 -338.958458,754.8038 z" transform="matrix(0.97625854,0,0,0.99538674,437.51279,447.06137)" id="path17097" style="opacity:0.8495575;fill:#000000;fill-opacity:1;stroke:none;filter:url(#filter17007)"/>
      <path d="m 79.999995,-301.92349 -822.604975,-89.12145 -539.76352,627.11795 -169.4394,-809.88387 -763.2207,-319.55552 717.8857,-411.41432 68.0672,-824.6141 613.11708,555.6158 805.288558,-190.084 -338.958458,754.8038 z" transform="translate(434.28571,445.71429)" id="path17099" style="opacity:0.78761058;fill:#ff6600;fill-opacity:1;stroke:none"/>
      <path d="m 79.999995,-301.92349 -822.604975,-89.12145 -539.76352,627.11795 -169.4394,-809.88387 -763.2207,-319.55552 717.8857,-411.41432 68.0672,-824.6141 613.11708,555.6158 805.288558,-190.084 -338.958458,754.8038 z" transform="matrix(-0.7446731,-0.52829332,0.52829332,-0.7446731,-747.4126,-1770.0372)" id="path17101" style="opacity:0.58407078;fill:#ffff00;fill-opacity:1;stroke:none"/>
      <path d="m -1010.7718,-832.84375 c 0,8.25172 -8.739,11.06946 -14.6163,14.1875 -96.4914,56.82683 -193.5194,112.92999 -290.2171,169.47854 -108.3503,63.18423 -216.7007,126.36847 -325.051,189.55271 187.0543,79.70833 374.1087,159.41667 561.1631,239.125 184.08624,-71.85488 366.35561,-150.12487 540.20089,-245.18304 80.39465,-44.4593 159.27074,-92.25217 229.77617,-151.874 38.95037,-33.25109 71.98867,-73.0008 99.61082,-116.40786 56.45584,-87.15154 97.4236,-183.32248 134.121817,-280.4332 17.873893,-48.0348 34.225204,-96.5864 49.649474,-145.5081 -129.291421,31.0685 -258.584371,62.1306 -387.885771,93.1562 -179.12169,-165.319 -358.34675,-330.5222 -537.54974,-495.75 -19.7341,243.2188 -39.46822,486.4375 -59.20236,729.65625 z" id="path17103" style="fill:url(#linearGradient18200);fill-opacity:1;stroke:none"/>
    </g>
    <g transform="matrix(0.17008038,0,0,0.17008038,425.39428,590.05954)" id="g17019">
      <path d="m 79.999995,-301.92349 -822.604975,-89.12145 -539.76352,627.11795 -169.4394,-809.88387 -763.2207,-319.55552 717.8857,-411.41432 68.0672,-824.6141 613.11708,555.6158 805.288558,-190.084 -338.958458,754.8038 z" transform="matrix(0.97625854,0,0,0.99538674,437.51279,447.06137)" id="path17001" style="opacity:0.8495575;fill:#000000;fill-opacity:1;stroke:none;filter:url(#filter17007)"/>
      <path d="m 79.999995,-301.92349 -822.604975,-89.12145 -539.76352,627.11795 -169.4394,-809.88387 -763.2207,-319.55552 717.8857,-411.41432 68.0672,-824.6141 613.11708,555.6158 805.288558,-190.084 -338.958458,754.8038 z" transform="translate(434.28571,445.71429)" id="path16976" style="opacity:0.78761058;fill:#ff6600;fill-opacity:1;stroke:none"/>
      <path d="m 79.999995,-301.92349 -822.604975,-89.12145 -539.76352,627.11795 -169.4394,-809.88387 -763.2207,-319.55552 717.8857,-411.41432 68.0672,-824.6141 613.11708,555.6158 805.288558,-190.084 -338.958458,754.8038 z" transform="matrix(-0.7446731,-0.52829332,0.52829332,-0.7446731,-747.4126,-1770.0372)" id="path16978" style="opacity:0.58407078;fill:#ffff00;fill-opacity:1;stroke:none"/>
      <path d="m -1010.7718,-832.84375 c 0,8.25172 -8.739,11.06946 -14.6163,14.1875 -96.4914,56.82683 -193.5194,112.92999 -290.2171,169.47854 -108.3503,63.18423 -216.7007,126.36847 -325.051,189.55271 187.0543,79.70833 374.1087,159.41667 561.1631,239.125 184.08624,-71.85488 366.35561,-150.12487 540.20089,-245.18304 80.39465,-44.4593 159.27074,-92.25217 229.77617,-151.874 38.95037,-33.25109 71.98867,-73.0008 99.61082,-116.40786 56.45584,-87.15154 97.4236,-183.32248 134.121817,-280.4332 17.873893,-48.0348 34.225204,-96.5864 49.649474,-145.5081 -129.291421,31.0685 -258.584371,62.1306 -387.885771,93.1562 -179.12169,-165.319 -358.34675,-330.5222 -537.54974,-495.75 -19.7341,243.2188 -39.46822,486.4375 -59.20236,729.65625 z" id="path16988" style="fill:url(#linearGradient18202);fill-opacity:1;stroke:none"/>
    </g>
    <g transform="matrix(0.01480695,-0.0863179,0.0863179,0.01480695,277.57168,-234.05577)" id="g17498">
      <path d="m 79.999995,-301.92349 -822.604975,-89.12145 -539.76352,627.11795 -169.4394,-809.88387 -763.2207,-319.55552 717.8857,-411.41432 68.0672,-824.6141 613.11708,555.6158 805.288558,-190.084 -338.958458,754.8038 z" transform="matrix(0.97625854,0,0,0.99538674,437.51279,447.06137)" id="path17500" style="opacity:0.8495575;fill:#000000;fill-opacity:1;stroke:none;filter:url(#filter17007)"/>
      <path d="m 79.999995,-301.92349 -822.604975,-89.12145 -539.76352,627.11795 -169.4394,-809.88387 -763.2207,-319.55552 717.8857,-411.41432 68.0672,-824.6141 613.11708,555.6158 805.288558,-190.084 -338.958458,754.8038 z" transform="translate(434.28571,445.71429)" id="path17502" style="opacity:0.78761058;fill:#ff6600;fill-opacity:1;stroke:none"/>
      <path d="m 79.999995,-301.92349 -822.604975,-89.12145 -539.76352,627.11795 -169.4394,-809.88387 -763.2207,-319.55552 717.8857,-411.41432 68.0672,-824.6141 613.11708,555.6158 805.288558,-190.084 -338.958458,754.8038 z" transform="matrix(-0.7446731,-0.52829332,0.52829332,-0.7446731,-747.4126,-1770.0372)" id="path17504" style="opacity:0.58407078;fill:#ffff00;fill-opacity:1;stroke:none"/>
      <path d="m -1010.7718,-832.84375 c 0,8.25172 -8.739,11.06946 -14.6163,14.1875 -96.4914,56.82683 -193.5194,112.92999 -290.2171,169.47854 -108.3503,63.18423 -216.7007,126.36847 -325.051,189.55271 187.0543,79.70833 374.1087,159.41667 561.1631,239.125 184.08624,-71.85488 366.35561,-150.12487 540.20089,-245.18304 80.39465,-44.4593 159.27074,-92.25217 229.77617,-151.874 38.95037,-33.25109 71.98867,-73.0008 99.61082,-116.40786 56.45584,-87.15154 97.4236,-183.32248 134.121817,-280.4332 17.873893,-48.0348 34.225204,-96.5864 49.649474,-145.5081 -129.291421,31.0685 -258.584371,62.1306 -387.885771,93.1562 -179.12169,-165.319 -358.34675,-330.5222 -537.54974,-495.75 -19.7341,243.2188 -39.46822,486.4375 -59.20236,729.65625 z" id="path17506" style="fill:url(#linearGradient18204);fill-opacity:1;stroke:none"/>
    </g>
    <g transform="matrix(0.01717471,-0.02018744,0.02018744,0.01717471,-58.408387,92.245198)" id="g17510">
      <path d="m 79.999995,-301.92349 -822.604975,-89.12145 -539.76352,627.11795 -169.4394,-809.88387 -763.2207,-319.55552 717.8857,-411.41432 68.0672,-824.6141 613.11708,555.6158 805.288558,-190.084 -338.958458,754.8038 z" transform="matrix(0.97625854,0,0,0.99538674,437.51279,447.06137)" id="path17512" style="opacity:0.8495575;fill:#000000;fill-opacity:1;stroke:none;filter:url(#filter17007)"/>
      <path d="m 79.999995,-301.92349 -822.604975,-89.12145 -539.76352,627.11795 -169.4394,-809.88387 -763.2207,-319.55552 717.8857,-411.41432 68.0672,-824.6141 613.11708,555.6158 805.288558,-190.084 -338.958458,754.8038 z" transform="translate(434.28571,445.71429)" id="path17514" style="opacity:0.78761058;fill:#ff6600;fill-opacity:1;stroke:none"/>
      <path d="m 79.999995,-301.92349 -822.604975,-89.12145 -539.76352,627.11795 -169.4394,-809.88387 -763.2207,-319.55552 717.8857,-411.41432 68.0672,-824.6141 613.11708,555.6158 805.288558,-190.084 -338.958458,754.8038 z" transform="matrix(-0.7446731,-0.52829332,0.52829332,-0.7446731,-747.4126,-1770.0372)" id="path17516" style="opacity:0.58407078;fill:#ffff00;fill-opacity:1;stroke:none"/>
      <path d="m -1010.7718,-832.84375 c 0,8.25172 -8.739,11.06946 -14.6163,14.1875 -96.4914,56.82683 -193.5194,112.92999 -290.2171,169.47854 -108.3503,63.18423 -216.7007,126.36847 -325.051,189.55271 187.0543,79.70833 374.1087,159.41667 561.1631,239.125 184.08624,-71.85488 366.35561,-150.12487 540.20089,-245.18304 80.39465,-44.4593 159.27074,-92.25217 229.77617,-151.874 38.95037,-33.25109 71.98867,-73.0008 99.61082,-116.40786 56.45584,-87.15154 97.4236,-183.32248 134.121817,-280.4332 17.873893,-48.0348 34.225204,-96.5864 49.649474,-145.5081 -129.291421,31.0685 -258.584371,62.1306 -387.885771,93.1562 -179.12169,-165.319 -358.34675,-330.5222 -537.54974,-495.75 -19.7341,243.2188 -39.46822,486.4375 -59.20236,729.65625 z" id="path17518" style="fill:url(#linearGradient18206);fill-opacity:1;stroke:none"/>
    </g>
    <g transform="matrix(0.0255398,-0.00708676,0.00708676,0.0255398,-89.201466,-157.24383)" id="g17522">
      <path d="m 79.999995,-301.92349 -822.604975,-89.12145 -539.76352,627.11795 -169.4394,-809.88387 -763.2207,-319.55552 717.8857,-411.41432 68.0672,-824.6141 613.11708,555.6158 805.288558,-190.084 -338.958458,754.8038 z" transform="matrix(0.97625854,0,0,0.99538674,437.51279,447.06137)" id="path17524" style="opacity:0.8495575;fill:#000000;fill-opacity:1;stroke:none;filter:url(#filter17007)"/>
      <path d="m 79.999995,-301.92349 -822.604975,-89.12145 -539.76352,627.11795 -169.4394,-809.88387 -763.2207,-319.55552 717.8857,-411.41432 68.0672,-824.6141 613.11708,555.6158 805.288558,-190.084 -338.958458,754.8038 z" transform="translate(434.28571,445.71429)" id="path17526" style="opacity:0.78761058;fill:#ff6600;fill-opacity:1;stroke:none"/>
      <path d="m 79.999995,-301.92349 -822.604975,-89.12145 -539.76352,627.11795 -169.4394,-809.88387 -763.2207,-319.55552 717.8857,-411.41432 68.0672,-824.6141 613.11708,555.6158 805.288558,-190.084 -338.958458,754.8038 z" transform="matrix(-0.7446731,-0.52829332,0.52829332,-0.7446731,-747.4126,-1770.0372)" id="path17528" style="opacity:0.58407078;fill:#ffff00;fill-opacity:1;stroke:none"/>
      <path d="m -1010.7718,-832.84375 c 0,8.25172 -8.739,11.06946 -14.6163,14.1875 -96.4914,56.82683 -193.5194,112.92999 -290.2171,169.47854 -108.3503,63.18423 -216.7007,126.36847 -325.051,189.55271 187.0543,79.70833 374.1087,159.41667 561.1631,239.125 184.08624,-71.85488 366.35561,-150.12487 540.20089,-245.18304 80.39465,-44.4593 159.27074,-92.25217 229.77617,-151.874 38.95037,-33.25109 71.98867,-73.0008 99.61082,-116.40786 56.45584,-87.15154 97.4236,-183.32248 134.121817,-280.4332 17.873893,-48.0348 34.225204,-96.5864 49.649474,-145.5081 -129.291421,31.0685 -258.584371,62.1306 -387.885771,93.1562 -179.12169,-165.319 -358.34675,-330.5222 -537.54974,-495.75 -19.7341,243.2188 -39.46822,486.4375 -59.20236,729.65625 z" id="path17530" style="fill:url(#linearGradient18208);fill-opacity:1;stroke:none"/>
    </g>
  </g>
</svg>