<?xml version="1.0" encoding="utf-8"?>
<svg id="Layer_1" x="0px" y="0px" width="266.893px" height="266.895px" viewBox="0 0 258 258" xmlns="http://www.w3.org/2000/svg">
  <path id="Blue_1_" fill="#3C5A99" d="M 243.635 257.859 C 251.49 257.859 257.858 251.493 257.858 243.635 L 257.858 14.365 C 257.858 6.507 251.491 0.14 243.635 0.14 L 14.366 0.14 C 6.509 0.14 0.142 6.507 0.142 14.365 L 0.142 243.635 C 0.142 251.492 6.508 257.859 14.366 257.859 L 243.635 257.859 Z"/>
  <path id="f" fill="#FFFFFF" d="M182.409,262.307v-99.803h33.499l5.016-38.895h-38.515V98.777c0-11.261,3.127-18.935,19.275-18.935&#10;&#9;l20.596-0.009V45.045c-3.562-0.474-15.788-1.533-30.012-1.533c-29.695,0-50.025,18.126-50.025,51.413v28.684h-33.585v38.895h33.585&#10;&#9;v99.803H182.409z"/>
</svg>