<?xml version="1.0" encoding="utf-8"?>
<svg width="720px" height="405px" viewBox="0 0 7200 4050" preserveAspectRatio="xMidYMid meet" xmlns="http://www.w3.org/2000/svg">
  <g transform="matrix(2.169801, 0, 0, 2.169801, -3930.791748, -1820.940796)">
    <g id="layer1" fill="#fefefe" stroke="none">
      <path d="M0 1510 l0 -1510 3500 0 3500 0 0 1510 0 1510 -3500 0 -3500 0 0 -1510z m4850 1101 c0 -36 -7 -40 -85 -61 -34 -9 -60 -21 -59 -28 1 -6 2 -32 3 -57 1 -39 5 -48 29 -62 l28 -16 -12 -105 c-7 -58 -10 -112 -7 -120 3 -7 0 -47 -7 -88 l-13 -74 -41 -2 -41 -1 38 -4 c34 -4 38 -7 34 -25 -10 -37 9 -6 73 119 34 67 59 127 55 132 -11 18 5 33 21 20 11 -9 14 -7 14 9 0 12 5 24 10 27 6 3 10 1 10 -6 0 -8 4 -8 13 -1 14 12 47 -7 47 -27 0 -6 5 -11 10 -11 20 0 9 -23 -36 -74 -43 -49 -126 -210 -143 -281 -16 -63 -58 -120 -101 -137 l-25 -10 30 -12 c34 -15 95 -79 95 -101 0 -10 10 -15 30 -15 38 0 64 -37 57 -82 -3 -20 2 -45 11 -63 12 -21 17 -57 17 -125 0 -81 -4 -103 -26 -150 -14 -30 -38 -70 -54 -88 -29 -35 -173 -134 -219 -152 -73 -27 -171 2 -373 111 l-92 50 -45 -35 c-68 -52 -192 -96 -269 -96 -79 0 -166 29 -249 82 l-62 40 -20 -28 c-73 -101 -221 -174 -350 -174 -141 0 -231 29 -307 97 l-40 36 -27 -20 c-109 -79 -235 -118 -359 -111 -108 6 -184 38 -249 102 -75 76 -88 121 -81 297 3 88 9 145 17 154 9 11 10 22 2 42 -6 16 -13 46 -17 68 -4 22 -13 47 -21 56 -8 9 -17 32 -20 50 -5 27 -1 39 15 53 21 19 21 19 21 -1 0 -11 7 -26 15 -33 8 -7 15 -21 15 -31 0 -10 5 -21 10 -24 6 -3 10 -22 10 -41 0 -39 17 -46 26 -10 14 56 152 146 224 146 11 0 28 8 39 19 10 10 24 20 30 22 17 6 -16 49 -38 49 -29 0 -47 -28 -33 -50 15 -25 2 -32 -39 -20 -19 6 -49 10 -68 10 -27 0 -42 9 -72 40 -35 37 -38 44 -37 99 1 73 -28 194 -57 241 -19 30 -21 39 -10 54 7 9 23 18 35 19 14 1 26 12 34 32 14 33 69 85 91 85 9 0 15 24 20 85 8 97 4 115 -27 115 -44 1 -93 33 -96 63 l-3 27 98 0 c58 0 108 -5 122 -13 23 -12 24 -15 22 -129 -2 -91 1 -118 11 -118 7 0 24 -3 37 -7 l24 -6 -7 120 c-9 150 -12 146 135 151 l109 4 0 -26 c0 -28 -26 -46 -97 -65 -46 -13 -43 4 -28 -143 l6 -56 70 -23 c83 -27 99 -42 75 -67 -9 -10 -16 -23 -16 -28 0 -5 -15 -46 -34 -90 -37 -87 -54 -164 -37 -164 5 0 23 17 38 38 15 20 30 39 33 42 32 30 80 97 80 112 0 10 7 18 15 18 8 0 15 5 15 10 0 6 7 10 16 8 12 -2 22 10 33 41 15 40 51 76 106 107 18 10 20 22 20 105 l0 94 -40 9 c-80 17 -96 27 -93 55 3 26 4 26 93 27 50 0 105 -3 123 -8 31 -8 32 -10 31 -66 0 -31 -3 -87 -8 -124 -6 -58 -5 -68 8 -68 9 0 33 -3 53 -6 l36 -6 -8 38 c-16 69 -15 214 0 224 19 12 124 22 185 18 37 -2 51 -7 53 -20 5 -26 -31 -55 -79 -62 -24 -4 -49 -10 -55 -14 -7 -4 -9 -41 -6 -103 l4 -95 73 -23 c115 -35 115 -36 76 -117 -18 -38 -36 -76 -40 -84 -5 -8 -17 -48 -27 -88 -16 -62 -17 -74 -5 -82 14 -8 54 34 67 73 8 23 17 22 45 -6 28 -27 124 -97 133 -97 12 0 5 46 -18 125 -13 44 -20 85 -16 90 5 6 0 51 -9 100 -10 50 -16 93 -14 98 2 4 19 13 37 21 l32 13 -4 69 c-2 38 -5 70 -6 72 -2 1 -30 7 -62 12 -59 10 -84 28 -84 61 0 19 34 26 156 28 109 3 110 1 108 -128 l-1 -102 28 -6 c29 -5 29 -7 44 -95 3 -21 10 -38 14 -38 14 0 21 28 21 90 0 55 1 58 28 63 l27 5 -3 103 c-4 90 -2 104 14 116 23 17 229 18 240 2 4 -8 9 -7 15 2 6 10 39 14 128 14 65 0 123 -4 128 -8 4 -5 10 -58 11 -118 4 -107 4 -109 27 -109 27 0 31 -10 41 -92 4 -40 11 -58 20 -58 11 0 14 18 14 79 l0 79 30 6 30 6 -6 84 c-8 99 -1 134 29 146 12 5 70 9 130 9 l107 1 0 -29z"/>
      <path d="M3350 2570 c0 -7 3 -10 7 -7 3 4 3 10 0 14 -4 3 -7 0 -7 -7z"/>
      <path d="M4143 2539 c-6 -6 -40 -17 -75 -23 -39 -7 -63 -16 -62 -24 1 -6 2 -32 3 -57 1 -39 4 -45 27 -51 l26 -7 -8 -96 c-4 -53 -7 -105 -6 -116 1 -27 -18 -253 -24 -291 -5 -29 -3 -31 38 -44 24 -7 51 -22 61 -33 16 -18 21 -19 77 -7 33 7 60 16 60 20 0 5 18 11 39 15 l39 6 -14 52 c-19 72 -18 75 19 80 29 4 29 4 -5 3 l-36 -1 -21 79 c-13 47 -18 83 -13 90 6 6 2 48 -8 101 -19 96 -16 109 25 119 24 6 25 10 25 86 l0 80 -32 0 c-18 1 -51 7 -73 15 -49 18 -48 18 -62 4z"/>
      <path d="M3038 2353 c7 -3 16 -2 19 1 4 3 -2 6 -13 5 -11 0 -14 -3 -6 -6z"/>
      <path d="M3228 2343 c6 -2 18 -2 25 0 6 3 1 5 -13 5 -14 0 -19 -2 -12 -5z"/>
      <path d="M2186 2114 c4 -15 18 -57 31 -92 12 -36 23 -73 23 -83 0 -10 5 -21 12 -25 8 -5 9 4 4 34 -10 64 -52 186 -65 190 -8 3 -10 -4 -5 -24z"/>
      <path d="M2854 2093 c-38 -36 -86 -100 -113 -150 -11 -21 -8 -22 67 -39 42 -9 80 -18 83 -20 3 -2 1 -19 -5 -38 -6 -19 -13 -33 -17 -30 -4 2 -9 -11 -13 -28 -3 -17 -14 -40 -23 -50 -23 -26 -12 -31 51 -23 l55 7 -23 32 c-12 17 -23 44 -24 60 -3 39 23 78 51 76 35 -3 36 -2 26 33 -5 17 -12 50 -14 72 -3 22 -10 44 -15 49 -6 6 -10 17 -10 26 0 8 -8 25 -18 38 l-18 23 -40 -38z"/>
      <path d="M4608 2063 c18 -2 45 -2 60 0 15 2 0 4 -33 4 -33 0 -45 -2 -27 -4z"/>
      <path d="M4438 2053 c17 -2 47 -2 65 0 17 2 3 4 -33 4 -36 0 -50 -2 -32 -4z"/>
      <path d="M4308 2043 c12 -2 30 -2 40 0 9 3 -1 5 -23 4 -22 0 -30 -2 -17 -4z"/>
      <path d="M4548 1983 c12 -2 32 -2 45 0 12 2 2 4 -23 4 -25 0 -35 -2 -22 -4z"/>
      <path d="M4438 1973 c12 -2 32 -2 45 0 12 2 2 4 -23 4 -25 0 -35 -2 -22 -4z"/>
      <path d="M2320 1899 c0 -24 23 -21 28 4 2 10 -3 17 -12 17 -10 0 -16 -9 -16 -21z"/>
      <path d="M3424 1893 c25 -28 27 -36 21 -74 -6 -35 -5 -41 8 -36 8 3 35 9 61 12 65 10 77 36 34 68 -18 13 -42 27 -53 31 -16 6 -17 9 -5 17 12 8 11 9 -5 7 -11 -2 -25 -10 -32 -18 -10 -13 -14 -12 -35 5 -16 14 -14 10 6 -12z"/>
      <path d="M2540 1886 c0 -10 9 -16 21 -16 24 0 21 23 -4 28 -10 2 -17 -3 -17 -12z"/>
      <path d="M3035 1881 c-3 -5 -1 -12 5 -16 12 -7 30 2 30 16 0 12 -27 12 -35 0z"/>
      <path d="M3273 1865 c-3 -9 -3 -18 0 -21 9 -9 27 6 27 22 0 19 -19 18 -27 -1z"/>
      <path d="M2714 1843 c-18 -59 -35 -82 -73 -99 -43 -19 -53 -34 -23 -34 10 0 27 -7 38 -15 25 -19 44 -19 44 0 0 10 10 15 33 15 29 0 33 4 45 43 8 23 21 50 29 59 15 17 13 19 -20 33 -47 20 -66 19 -73 -2z"/>
      <path d="M2505 1805 c-14 -13 -25 -29 -25 -34 0 -14 41 -41 61 -41 22 0 35 65 18 86 -16 20 -26 18 -54 -11z"/>
      <path d="M3235 1792 c-6 -4 -15 -18 -21 -32 -10 -22 -8 -29 16 -52 l28 -27 16 24 c9 13 16 40 16 60 0 30 -3 35 -22 35 -13 0 -28 -4 -33 -8z"/>
      <path d="M3098 1769 c-17 -9 -17 -12 -3 -39 16 -32 39 -39 52 -16 4 7 14 15 21 17 9 3 9 9 -3 27 -17 24 -39 28 -67 11z"/>
      <path d="M3680 1708 c-25 -5 -67 -6 -94 -3 -35 4 -52 2 -58 -7 -6 -10 -10 -10 -15 -1 -6 8 -28 8 -87 -3 -43 -7 -81 -16 -84 -18 -2 -3 23 -13 56 -23 56 -16 62 -21 71 -53 8 -32 9 -33 10 -7 1 25 4 27 46 27 29 0 66 10 104 29 33 16 75 31 95 35 22 4 36 13 36 21 0 17 -14 17 -80 3z"/>
      <path d="M3856 1711 c9 -9 49 -14 89 -12 17 1 17 3 5 11 -19 13 -107 13 -94 1z"/>
      <path d="M4298 1693 c7 -3 16 -2 19 1 4 3 -2 6 -13 5 -11 0 -14 -3 -6 -6z"/>
      <path d="M4058 1662 l-28 -18 33 -32 c18 -18 37 -32 42 -32 5 0 18 -9 30 -20 l21 -20 37 45 c20 24 37 46 37 49 0 3 -18 15 -40 26 -49 25 -96 26 -132 2z"/>
      <path d="M4030 1470 c0 -7 3 -10 7 -7 3 4 3 10 0 14 -4 3 -7 0 -7 -7z"/>
      <path d="M3950 1450 c0 -7 3 -10 7 -7 3 4 3 10 0 14 -4 3 -7 0 -7 -7z"/>
      <path d="M4000 1419 c-7 -11 -10 -23 -7 -25 2 -2 9 7 15 21 14 30 7 33 -8 4z"/>
      <path d="M3824 1318 c-4 -7 -3 -8 4 -4 12 7 16 16 8 16 -3 0 -8 -5 -12 -12z"/>
      <path d="M3616 1237 c3 -10 9 -15 12 -12 3 3 0 11 -7 18 -10 9 -11 8 -5 -6z"/>
    </g>
    <g id="layer2" fill="#f8d8c0" stroke="none">
      <path d="M4108 2603 c6 -2 18 -2 25 0 6 3 1 5 -13 5 -14 0 -19 -2 -12 -5z"/>
      <path d="M3523 2583 c4 -3 10 -3 14 0 3 4 0 7 -7 7 -7 0 -10 -3 -7 -7z"/>
      <path d="M3693 2583 c4 -3 10 -3 14 0 3 4 0 7 -7 7 -7 0 -10 -3 -7 -7z"/>
      <path d="M2920 2563 c0 -14 10 -22 38 -29 l37 -9 1 -90 c0 -49 -4 -96 -10 -104 -9 -12 -7 -12 11 -3 12 7 52 13 90 14 37 0 54 3 38 5 l-31 4 8 67 c16 144 13 148 -107 159 -70 6 -75 5 -75 -14z m137 -209 c-3 -3 -12 -4 -19 -1 -8 3 -5 6 6 6 11 1 17 -2 13 -5z"/>
      <path d="M3234 2571 c-17 -4 -36 -11 -42 -15 -13 -8 -15 -128 -3 -181 6 -27 10 -30 41 -28 26 2 30 0 16 -6 -19 -7 -18 -8 5 -14 13 -4 28 -7 33 -7 5 0 7 45 4 100 l-5 100 39 11 c29 7 38 14 34 25 -3 9 -6 18 -6 20 0 6 -82 3 -116 -5z"/>
      <path d="M3975 2565 c-5 -2 -27 -6 -47 -10 l-38 -6 0 -69 c0 -98 0 -98 66 -86 l56 11 -4 49 -3 50 43 9 c76 15 44 59 -42 56 -11 0 -25 -2 -31 -4z"/>
      <path d="M3540 2526 c0 -20 6 -24 40 -30 44 -7 41 2 42 -127 1 -25 2 -25 51 -18 28 5 53 13 56 18 6 8 6 43 2 128 -1 28 -6 33 -38 42 -21 6 -64 11 -95 11 -54 0 -58 -2 -58 -24z"/>
      <path d="M2223 2523 c4 -3 10 -3 14 0 3 4 0 7 -7 7 -7 0 -10 -3 -7 -7z"/>
      <path d="M2452 2505 c0 -16 2 -22 5 -12 2 9 2 23 0 30 -3 6 -5 -1 -5 -18z"/>
      <path d="M2276 2507 c3 -10 9 -15 12 -12 3 3 0 11 -7 18 -10 9 -11 8 -5 -6z"/>
      <path d="M4582 2490 c0 -19 2 -27 5 -17 2 9 2 25 0 35 -3 9 -5 1 -5 -18z"/>
      <path d="M4700 2500 c0 -7 3 -10 7 -7 3 4 3 10 0 14 -4 3 -7 0 -7 -7z"/>
      <path d="M2561 2474 c0 -11 3 -14 6 -6 3 7 2 16 -1 19 -3 4 -6 -2 -5 -13z"/>
      <path d="M2272 2375 c0 -16 2 -22 5 -12 2 9 2 23 0 30 -3 6 -5 -1 -5 -18z"/>
      <path d="M2381 2363 c-1 -19 4 -23 27 -22 22 1 23 2 5 6 -12 2 -24 12 -26 21 -3 12 -5 10 -6 -5z"/>
      <path d="M2571 2354 c0 -11 3 -14 6 -6 3 7 2 16 -1 19 -3 4 -6 -2 -5 -13z"/>
      <path d="M2211 2294 c-18 -14 -36 -36 -42 -48 -8 -17 -7 -16 10 4 11 14 32 35 48 47 15 13 25 23 21 23 -3 0 -20 -12 -37 -26z"/>
      <path d="M2583 2313 c4 -3 10 -3 14 0 3 4 0 7 -7 7 -7 0 -10 -3 -7 -7z"/>
      <path d="M2944 2308 c-4 -7 -3 -8 4 -4 12 7 16 16 8 16 -3 0 -8 -5 -12 -12z"/>
      <path d="M2623 2303 c4 -3 10 -3 14 0 3 4 0 7 -7 7 -7 0 -10 -3 -7 -7z"/>
      <path d="M3343 2303 c4 -3 10 -3 14 0 3 4 0 7 -7 7 -7 0 -10 -3 -7 -7z"/>
      <path d="M3380 2290 c8 -5 20 -10 25 -10 6 0 3 5 -5 10 -8 5 -19 10 -25 10 -5 0 -3 -5 5 -10z"/>
      <path d="M2673 2283 c4 -3 10 -3 14 0 3 4 0 7 -7 7 -7 0 -10 -3 -7 -7z"/>
      <path d="M2895 2270 c-10 -11 -16 -22 -14 -24 2 -2 12 7 22 20 22 29 17 32 -8 4z"/>
      <path d="M2715 2267 c11 -9 15 -19 10 -28 -6 -11 -5 -12 5 -2 11 10 11 15 0 28 -7 8 -17 15 -23 15 -6 0 -3 -6 8 -13z"/>
      <path d="M3423 2273 c4 -3 10 -3 14 0 3 4 0 7 -7 7 -7 0 -10 -3 -7 -7z"/>
      <path d="M4909 2263 c-13 -16 -12 -17 4 -4 16 13 21 21 13 21 -2 0 -10 -8 -17 -17z"/>
      <path d="M3456 2257 c3 -10 9 -15 12 -12 3 3 0 11 -7 18 -10 9 -11 8 -5 -6z"/>
      <path d="M4840 2230 c0 -7 3 -10 7 -7 3 4 3 10 0 14 -4 3 -7 0 -7 -7z"/>
      <path d="M3437 2195 c-24 -50 -20 -58 4 -12 11 22 19 41 17 43 -3 2 -12 -12 -21 -31z"/>
      <path d="M2136 2198 c3 -5 10 -6 15 -3 13 9 11 12 -6 12 -8 0 -12 -4 -9 -9z"/>
      <path d="M2696 2185 c-9 -26 -7 -32 5 -12 6 10 9 21 6 23 -2 3 -7 -2 -11 -11z"/>
      <path d="M2860 2174 c0 -8 5 -12 10 -9 6 4 8 11 5 16 -9 14 -15 11 -15 -7z"/>
      <path d="M2163 2173 c4 -3 10 -3 14 0 3 4 0 7 -7 7 -7 0 -10 -3 -7 -7z"/>
      <path d="M2880 2153 c0 -6 8 -17 18 -24 16 -13 16 -13 2 6 -8 11 -16 22 -17 24 -2 2 -3 0 -3 -6z"/>
      <path d="M2183 2143 c4 -3 10 -3 14 0 3 4 0 7 -7 7 -7 0 -10 -3 -7 -7z"/>
      <path d="M2670 2120 c0 -7 3 -10 7 -7 3 4 3 10 0 14 -4 3 -7 0 -7 -7z"/>
      <path d="M2115 2110 c3 -5 8 -10 11 -10 3 0 2 5 -1 10 -3 6 -8 10 -11 10 -3 0 -2 -4 1 -10z"/>
      <path d="M2130 2070 c0 -7 3 -10 7 -7 3 4 3 10 0 14 -4 3 -7 0 -7 -7z"/>
      <path d="M2650 2070 c0 -7 3 -10 7 -7 3 4 3 10 0 14 -4 3 -7 0 -7 -7z"/>
      <path d="M3580 2070 c0 -7 3 -10 7 -7 3 4 3 10 0 14 -4 3 -7 0 -7 -7z"/>
      <path d="M2930 2060 c0 -7 3 -10 7 -7 3 4 3 10 0 14 -4 3 -7 0 -7 -7z"/>
      <path d="M3380 2060 c0 -7 3 -10 7 -7 3 4 3 10 0 14 -4 3 -7 0 -7 -7z"/>
      <path d="M2724 2048 c-4 -7 -3 -8 4 -4 12 7 16 16 8 16 -3 0 -8 -5 -12 -12z"/>
      <path d="M2804 2048 c-4 -7 -3 -8 4 -4 12 7 16 16 8 16 -3 0 -8 -5 -12 -12z"/>
      <path d="M3370 2030 c0 -7 3 -10 7 -7 3 4 3 10 0 14 -4 3 -7 0 -7 -7z"/>
      <path d="M2240 2010 c0 -7 3 -10 7 -7 3 4 3 10 0 14 -4 3 -7 0 -7 -7z"/>
      <path d="M2631 2004 c0 -11 3 -14 6 -6 3 7 2 16 -1 19 -3 4 -6 -2 -5 -13z"/>
      <path d="M3436 2003 c-3 -10 -17 -33 -30 -51 -22 -30 -26 -31 -40 -16 -14 14 -16 14 -16 0 0 -9 6 -16 14 -16 7 0 25 -9 39 -20 25 -20 27 -20 45 -3 10 10 27 19 37 21 16 2 17 1 5 -7 -12 -8 -11 -11 5 -17 30 -10 86 -54 81 -63 -3 -4 11 -5 31 -3 33 4 35 6 29 34 -3 17 -6 38 -6 47 0 13 -2 14 -9 2 -7 -11 -20 -7 -63 24 -29 22 -64 49 -77 62 -28 28 -37 29 -45 6z m-15 -100 c13 -16 12 -17 -3 -4 -17 13 -22 21 -14 21 2 0 10 -8 17 -17z"/>
      <path d="M2684 1998 c-4 -7 -3 -8 4 -4 7 4 12 9 12 12 0 8 -9 4 -16 -8z"/>
      <path d="M2950 1990 c0 -7 3 -10 7 -7 3 4 3 10 0 14 -4 3 -7 0 -7 -7z"/>
      <path d="M3360 1990 c0 -7 3 -10 7 -7 3 4 3 10 0 14 -4 3 -7 0 -7 -7z"/>
      <path d="M2250 1970 c0 -7 3 -10 7 -7 3 4 3 10 0 14 -4 3 -7 0 -7 -7z"/>
      <path d="M2230 1960 c0 -7 3 -10 7 -7 3 4 3 10 0 14 -4 3 -7 0 -7 -7z"/>
      <path d="M2620 1963 c0 -19 21 -27 33 -13 9 10 9 11 -2 5 -8 -4 -17 -2 -22 6 -6 9 -9 10 -9 2z"/>
      <path d="M2160 1920 c0 -7 3 -10 7 -7 3 4 3 10 0 14 -4 3 -7 0 -7 -7z"/>
      <path d="M2260 1920 c0 -7 3 -10 7 -7 3 4 3 10 0 14 -4 3 -7 0 -7 -7z"/>
      <path d="M2727 1913 c-2 -4 -7 -20 -11 -35 -5 -22 -3 -26 9 -22 8 3 29 1 46 -5 25 -9 34 -8 46 5 15 14 18 12 37 -17 l20 -32 8 31 c11 42 19 41 13 0 -5 -32 -5 -32 4 -5 5 16 16 36 23 45 11 15 11 15 -3 5 -9 -7 -19 -9 -25 -4 -5 5 -34 14 -64 20 -30 7 -64 14 -76 17 -12 3 -24 2 -27 -3z"/>
      <path d="M2310 1900 c0 -7 3 -10 7 -7 3 4 3 10 0 14 -4 3 -7 0 -7 -7z"/>
      <path d="M2346 1893 c-6 -14 -5 -15 5 -6 7 7 10 15 7 18 -3 3 -9 -2 -12 -12z"/>
      <path d="M2550 1906 c0 -2 7 -7 16 -10 8 -3 12 -2 9 4 -6 10 -25 14 -25 6z"/>
      <path d="M3035 1890 c-3 -6 1 -7 9 -4 18 7 21 14 7 14 -6 0 -13 -4 -16 -10z"/>
      <path d="M4020 1890 c0 -7 3 -10 7 -7 3 4 3 10 0 14 -4 3 -7 0 -7 -7z"/>
      <path d="M2162 1860 c0 -19 2 -27 5 -17 2 9 2 25 0 35 -3 9 -5 1 -5 -18z"/>
      <path d="M2533 1880 c2 -8 12 -16 23 -17 13 -2 15 -1 4 4 -8 3 -19 11 -23 17 -6 7 -7 6 -4 -4z"/>
      <path d="M3265 1869 c-4 -6 -5 -12 -2 -15 2 -3 7 2 10 11 7 17 1 20 -8 4z"/>
      <path d="M3442 1845 c0 -16 2 -22 5 -12 2 9 2 23 0 30 -3 6 -5 -1 -5 -18z"/>
      <path d="M4033 1833 c4 -3 10 -3 14 0 3 4 0 7 -7 7 -7 0 -10 -3 -7 -7z"/>
      <path d="M2513 1823 c4 -3 10 -3 14 0 3 4 0 7 -7 7 -7 0 -10 -3 -7 -7z"/>
      <path d="M2555 1820 c3 -5 8 -10 11 -10 3 0 2 5 -1 10 -3 6 -8 10 -11 10 -3 0 -2 -4 1 -10z"/>
      <path d="M2180 1806 c0 -2 8 -10 18 -17 15 -13 16 -12 3 4 -13 16 -21 21 -21 13z"/>
      <path d="M2374 1798 c-4 -7 -3 -8 4 -4 7 4 12 9 12 12 0 8 -9 4 -16 -8z"/>
      <path d="M2890 1791 c0 -6 4 -13 10 -16 6 -3 7 1 4 9 -7 18 -14 21 -14 7z"/>
      <path d="M3430 1783 c0 -24 -53 -73 -80 -73 -9 0 -23 -7 -30 -15 -10 -13 -9 -15 11 -14 13 0 58 6 99 13 56 11 77 11 83 2 6 -8 10 -8 14 2 2 6 15 12 27 12 19 0 21 4 18 41 -5 48 -16 54 -79 41 -35 -8 -50 -8 -55 1 -5 8 -8 4 -8 -10z"/>
      <path d="M4118 1782 c-7 -24 6 -29 32 -12 13 8 13 10 -2 10 -9 0 -18 6 -20 12 -3 7 -7 2 -10 -10z"/>
      <path d="M3106 1781 c-4 -5 3 -7 14 -4 23 6 26 13 6 13 -8 0 -17 -4 -20 -9z"/>
      <path d="M2674 1768 c-4 -7 -3 -8 4 -4 7 4 12 9 12 12 0 8 -9 4 -16 -8z"/>
      <path d="M2475 1760 c3 -5 8 -10 11 -10 3 0 2 5 -1 10 -3 6 -8 10 -11 10 -3 0 -2 -4 1 -10z"/>
      <path d="M3205 1759 c-4 -6 -5 -12 -2 -15 2 -3 7 2 10 11 7 17 1 20 -8 4z"/>
      <path d="M2374 1752 c3 -5 0 -13 -6 -15 -9 -4 -10 -6 -1 -6 17 -1 25 16 12 25 -7 4 -9 3 -5 -4z"/>
      <path d="M2925 1740 c10 -11 20 -20 23 -20 3 0 -3 9 -13 20 -10 11 -20 20 -23 20 -3 0 3 -9 13 -20z"/>
      <path d="M3772 1748 c-7 -7 -12 -22 -12 -35 0 -18 -7 -23 -36 -29 -20 -4 -62 -19 -95 -35 -59 -29 -59 -29 -58 -71 l1 -43 9 42 10 41 57 6 c31 2 87 8 124 12 75 7 118 -9 118 -45 0 -16 -14 -20 -104 -30 -57 -6 -110 -10 -116 -9 -8 2 -24 -28 -40 -72 -25 -68 -26 -76 -13 -97 12 -19 13 -26 3 -38 -7 -8 -19 -15 -26 -15 -9 0 -14 -11 -14 -31 0 -17 4 -28 10 -24 5 3 7 0 4 -8 -3 -8 3 -20 12 -28 15 -12 17 -12 9 0 -5 10 -4 12 4 7 7 -5 9 -17 5 -29 -10 -33 7 -12 41 50 21 39 42 62 71 78 37 21 104 42 104 33 0 -2 -9 -23 -20 -46 -30 -62 -25 -85 7 -37 15 22 27 43 25 48 -1 4 1 6 5 5 14 -4 83 34 78 42 -3 4 3 7 13 6 9 0 16 4 15 11 -2 9 4 10 22 3 21 -8 27 -6 39 18 7 15 11 34 8 42 -2 8 -1 12 3 7 5 -4 24 7 42 25 18 17 36 29 39 25 4 -4 13 -2 21 5 11 9 11 14 -3 29 -10 11 -22 19 -29 19 -6 0 -28 18 -50 40 -44 45 -92 71 -144 77 -50 6 -63 11 -56 23 19 30 -56 55 -83 28z m35 -234 c-3 -3 -12 -4 -19 -1 -8 3 -5 6 6 6 11 1 17 -2 13 -5z m208 -45 c4 -5 4 -22 0 -37 -4 -15 -10 -21 -12 -14 -3 6 -10 12 -16 12 -7 0 -18 4 -26 9 -12 8 -12 12 -2 25 15 18 47 21 56 5z m-175 -143 c0 -3 -5 -8 -12 -12 -7 -4 -8 -3 -4 4 7 12 16 16 16 8z"/>
      <path d="M2590 1730 c0 -5 7 -7 15 -4 8 4 15 8 15 10 0 2 -7 4 -15 4 -8 0 -15 -4 -15 -10z"/>
      <path d="M3225 1710 c3 -5 8 -10 11 -10 3 0 2 5 -1 10 -3 6 -8 10 -11 10 -3 0 -2 -4 1 -10z"/>
      <path d="M3106 1698 c3 -4 -10 -8 -29 -8 -51 0 -129 -27 -175 -60 -23 -16 -54 -30 -69 -30 -16 0 -23 -4 -17 -8 6 -4 19 -22 29 -39 11 -18 24 -33 30 -33 5 0 16 -9 23 -21 10 -16 21 -20 43 -17 17 3 32 1 35 -3 7 -12 -36 -31 -57 -26 -17 4 -19 2 -13 -16 19 -61 37 -125 41 -154 3 -18 7 -33 9 -33 3 0 80 18 173 40 92 22 179 40 192 40 l24 0 -24 13 c-28 14 -48 43 -38 53 4 4 16 -1 26 -10 12 -11 31 -16 48 -14 18 2 27 -2 25 -10 -3 -16 43 -16 60 1 7 6 27 17 43 22 50 17 44 79 -8 87 -14 2 -24 14 -31 36 -20 71 -145 170 -226 179 -14 2 -36 6 -50 9 -38 10 -69 11 -64 2z m96 -68 c45 -13 98 -55 98 -78 0 -13 -6 -10 -23 10 -36 42 -83 61 -139 55 -52 -7 -61 -2 -25 13 30 12 45 12 89 0z m-228 -33 c30 -22 16 -52 -23 -52 -41 0 -62 25 -42 49 16 19 41 20 65 3z m437 -77 c25 -14 24 -46 -2 -60 -16 -9 -26 -8 -45 5 -30 19 -31 43 -1 55 29 11 26 11 48 0z m92 -83 c5 -14 -9 -45 -16 -37 -3 3 -8 15 -11 28 -5 16 -3 22 7 22 8 0 17 -6 20 -13z"/>
      <path d="M4181 1698 l-65 -10 37 -13 c20 -7 48 -20 61 -28 23 -15 26 -15 60 12 l35 28 -25 12 c-14 6 -28 10 -32 10 -4 -1 -36 -6 -71 -11z"/>
      <path d="M2234 1668 c-4 -7 -3 -8 4 -4 7 4 12 9 12 12 0 8 -9 4 -16 -8z"/>
      <path d="M2164 1598 c-4 -7 -3 -8 4 -4 7 4 12 9 12 12 0 8 -9 4 -16 -8z"/>
      <path d="M2250 1460 c0 -7 3 -10 7 -7 3 4 3 10 0 14 -4 3 -7 0 -7 -7z"/>
      <path d="M3980 1381 c0 -5 -3 -18 -6 -28 -6 -16 -5 -16 9 2 19 23 21 35 7 35 -5 0 -10 -4 -10 -9z"/>
      <path d="M3520 1096 c0 -2 8 -10 18 -17 15 -13 16 -12 3 4 -13 16 -21 21 -21 13z"/>
      <path d="M4099 1073 c-13 -16 -12 -17 4 -4 9 7 17 15 17 17 0 8 -8 3 -21 -13z"/>
      <path d="M3565 1060 c3 -5 8 -10 11 -10 3 0 2 5 -1 10 -3 6 -8 10 -11 10 -3 0 -2 -4 1 -10z"/>
      <path d="M4064 1048 c-4 -7 -3 -8 4 -4 12 7 16 16 8 16 -3 0 -8 -5 -12 -12z"/>
      <path d="M3595 1040 c3 -5 8 -10 11 -10 3 0 2 5 -1 10 -3 6 -8 10 -11 10 -3 0 -2 -4 1 -10z"/>
      <path d="M3454 1018 c-4 -7 -3 -8 4 -4 12 7 16 16 8 16 -3 0 -8 -5 -12 -12z"/>
      <path d="M3650 1010 c8 -5 20 -10 25 -10 6 0 3 5 -5 10 -8 5 -19 10 -25 10 -5 0 -3 -5 5 -10z"/>
      <path d="M3943 1000 c-34 -14 -28 -21 7 -9 17 6 30 13 30 15 0 6 -12 4 -37 -6z"/>
      <path d="M3720 985 c46 -18 64 -17 25 0 -16 8 -37 14 -45 14 -8 0 1 -7 20 -14z"/>
    </g>
    <g id="layer3" fill="#dcd473" stroke="none">
      <path d="M2319 2340 c-89 -16 -194 -127 -148 -156 17 -10 59 -111 80 -193 21 -83 20 -85 -42 -95 -36 -6 -39 -9 -39 -39 0 -41 57 -107 93 -107 13 0 44 -3 68 -6 l44 -6 0 33 c0 28 4 35 23 37 13 2 32 -4 41 -12 10 -9 21 -13 25 -9 4 4 4 -1 0 -12 -4 -14 2 -11 20 10 14 17 25 34 26 38 0 5 12 7 28 5 25 -3 27 -6 27 -52 0 -31 5 -51 13 -53 6 -3 12 0 12 6 0 6 10 11 23 11 46 0 87 47 100 117 6 28 2 36 -26 56 -18 13 -40 27 -49 30 -14 5 -16 13 -12 39 7 38 64 190 89 238 10 19 13 36 8 41 -18 18 -179 69 -233 74 -115 11 -136 12 -171 5z m39 -437 c5 -17 -26 -29 -40 -15 -6 6 -7 15 -3 22 9 14 37 9 43 -7z m220 -16 c4 -21 -25 -34 -40 -19 -8 8 -8 16 2 27 16 19 34 15 38 -8z"/>
      <path d="M3208 2333 c7 -3 16 -2 19 1 4 3 -2 6 -13 5 -11 0 -14 -3 -6 -6z"/>
      <path d="M3293 2313 c4 -3 10 -3 14 0 3 4 0 7 -7 7 -7 0 -10 -3 -7 -7z"/>
      <path d="M2960 1960 c0 -7 3 -10 7 -7 3 4 3 10 0 14 -4 3 -7 0 -7 -7z"/>
      <path d="M3065 1890 c3 -5 8 -10 11 -10 3 0 2 5 -1 10 -3 6 -8 10 -11 10 -3 0 -2 -4 1 -10z"/>
      <path d="M3296 1853 c-6 -14 -5 -15 5 -6 7 7 10 15 7 18 -3 3 -9 -2 -12 -12z"/>
      <path d="M3140 1786 c0 -2 8 -10 18 -17 15 -13 16 -12 3 4 -13 16 -21 21 -21 13z"/>
      <path d="M3416 1763 c-6 -14 -5 -15 5 -6 7 7 10 15 7 18 -3 3 -9 -2 -12 -12z"/>
      <path d="M3003 1723 c4 -3 10 -3 14 0 3 4 0 7 -7 7 -7 0 -10 -3 -7 -7z"/>
      <path d="M4044 1468 c-4 -7 -3 -8 4 -4 7 4 12 9 12 12 0 8 -9 4 -16 -8z"/>
      <path d="M3980 1400 c0 -7 3 -10 7 -7 3 4 3 10 0 14 -4 3 -7 0 -7 -7z"/>
      <path d="M3824 1358 c-4 -7 -3 -8 4 -4 12 7 16 16 8 16 -3 0 -8 -5 -12 -12z"/>
      <path d="M3976 1357 c3 -10 9 -15 12 -12 3 3 0 11 -7 18 -10 9 -11 8 -5 -6z"/>
      <path d="M3869 1343 c-13 -16 -12 -17 4 -4 9 7 17 15 17 17 0 8 -8 3 -21 -13z"/>
      <path d="M3689 1313 c-13 -16 -12 -17 4 -4 16 13 21 21 13 21 -2 0 -10 -8 -17 -17z"/>
      <path d="M4054 1048 c-4 -7 -3 -8 4 -4 7 4 12 9 12 12 0 8 -9 4 -16 -8z"/>
      <path d="M3983 1013 c4 -3 10 -3 14 0 3 4 0 7 -7 7 -7 0 -10 -3 -7 -7z"/>
      <path d="M3875 980 c-13 -5 -14 -9 -5 -9 8 0 24 4 35 9 13 5 14 9 5 9 -8 0 -24 -4 -35 -9z"/>
    </g>
    <g id="layer4" fill="#ca967e" stroke="none">
      <path d="M2963 2613 c9 -2 23 -2 30 0 6 3 -1 5 -18 5 -16 0 -22 -2 -12 -5z"/>
      <path d="M3046 2611 c10 -10 72 -26 63 -17 -4 4 -21 11 -39 16 -19 5 -29 6 -24 1z"/>
      <path d="M3303 2613 c9 -2 23 -2 30 0 6 3 -1 5 -18 5 -16 0 -22 -2 -12 -5z"/>
      <path d="M2334 2600 c22 -6 47 -16 55 -22 15 -11 15 -10 0 5 -8 10 -33 20 -55 22 l-39 5 39 -10z"/>
      <path d="M2523 2603 c4 -3 10 -3 14 0 3 4 0 7 -7 7 -7 0 -10 -3 -7 -7z"/>
      <path d="M3213 2603 c4 -3 10 -3 14 0 3 4 0 7 -7 7 -7 0 -10 -3 -7 -7z"/>
      <path d="M3913 2602 c-6 -4 26 -6 70 -4 120 4 135 9 32 10 -49 1 -95 -2 -102 -6z"/>
      <path d="M2473 2593 c4 -3 10 -3 14 0 3 4 0 7 -7 7 -7 0 -10 -3 -7 -7z"/>
      <path d="M2691 2584 c0 -11 3 -14 6 -6 3 7 2 16 -1 19 -3 4 -6 -2 -5 -13z"/>
      <path d="M4140 2593 c5 -2 10 -11 10 -18 0 -8 4 -17 10 -20 6 -4 7 2 1 16 -4 13 -13 24 -20 25 -6 1 -7 0 -1 -3z"/>
      <path d="M3543 2583 c4 -3 10 -3 14 0 3 4 0 7 -7 7 -7 0 -10 -3 -7 -7z"/>
      <path d="M3577 2570 c-5 -18 -1 -20 36 -19 30 2 34 3 15 6 -16 2 -28 9 -28 15 0 7 15 9 40 5 22 -3 43 -1 46 4 3 5 -19 9 -49 9 -46 0 -55 -3 -60 -20z"/>
      <path d="M2228 2573 c-9 -3 -18 -12 -20 -21 -3 -13 7 -20 37 -27 l40 -11 -3 -74 c-2 -41 -6 -83 -9 -93 -4 -15 -1 -18 14 -14 10 3 34 8 54 11 44 8 49 20 49 128 l0 76 -32 10 c-40 12 -107 20 -130 15z"/>
      <path d="M2543 2569 c-29 -4 -59 -9 -67 -12 -8 -3 -17 -1 -20 6 -4 7 -4 -3 -1 -22 3 -18 5 -70 5 -116 l0 -82 58 -10 c31 -6 57 -10 58 -9 1 0 -3 41 -7 90 -5 49 -6 92 -4 97 3 4 23 10 44 14 35 6 39 9 32 28 -9 23 -23 26 -98 16z"/>
      <path d="M2860 2570 c0 -7 3 -10 7 -7 3 4 3 10 0 14 -4 3 -7 0 -7 -7z"/>
      <path d="M3028 2573 c7 -3 16 -2 19 1 4 3 -2 6 -13 5 -11 0 -14 -3 -6 -6z"/>
      <path d="M3238 2573 c7 -3 16 -2 19 1 4 3 -2 6 -13 5 -11 0 -14 -3 -6 -6z"/>
      <path d="M3473 2565 c-3 -9 -3 -18 -1 -21 3 -3 8 4 11 16 6 23 -1 27 -10 5z"/>
      <path d="M3715 2570 c3 -5 8 -10 11 -10 3 0 2 5 -1 10 -3 6 -8 10 -11 10 -3 0 -2 -4 1 -10z"/>
      <path d="M3891 2564 c0 -11 3 -14 6 -6 3 7 2 16 -1 19 -3 4 -6 -2 -5 -13z"/>
      <path d="M3361 2554 c0 -11 3 -14 6 -6 3 7 2 16 -1 19 -3 4 -6 -2 -5 -13z"/>
      <path d="M3948 2563 c6 -2 18 -2 25 0 6 3 1 5 -13 5 -14 0 -19 -2 -12 -5z"/>
      <path d="M4058 2563 c6 -2 18 -2 25 0 6 3 1 5 -13 5 -14 0 -19 -2 -12 -5z"/>
      <path d="M4582 2545 c0 -16 2 -22 5 -12 2 9 2 23 0 30 -3 6 -5 -1 -5 -18z"/>
      <path d="M3093 2553 c4 -3 10 -3 14 0 3 4 0 7 -7 7 -7 0 -10 -3 -7 -7z"/>
      <path d="M4423 2525 c0 -22 2 -30 4 -17 2 12 2 30 0 40 -3 9 -5 -1 -4 -23z"/>
      <path d="M4773 2553 c4 -3 10 -3 14 0 3 4 0 7 -7 7 -7 0 -10 -3 -7 -7z"/>
      <path d="M3528 2525 c-3 -14 -1 -25 3 -25 5 0 9 11 9 25 0 14 -2 25 -4 25 -2 0 -6 -11 -8 -25z"/>
      <path d="M3678 2543 c7 -3 16 -2 19 1 4 3 -2 6 -13 5 -11 0 -14 -3 -6 -6z"/>
      <path d="M3720 2540 c-13 -8 -12 -10 3 -10 9 0 17 5 17 10 0 12 -1 12 -20 0z"/>
      <path d="M4134 2538 c-4 -7 -3 -8 4 -4 7 4 12 9 12 12 0 8 -9 4 -16 -8z"/>
      <path d="M4723 2543 c4 -3 10 -3 14 0 3 4 0 7 -7 7 -7 0 -10 -3 -7 -7z"/>
      <path d="M3487 2519 c7 -7 15 -10 18 -7 3 3 -2 9 -12 12 -14 6 -15 5 -6 -5z"/>
      <path d="M4098 2523 c7 -3 16 -2 19 1 4 3 -2 6 -13 5 -11 0 -14 -3 -6 -6z"/>
      <path d="M4248 2523 c7 -3 16 -2 19 1 4 3 -2 6 -13 5 -11 0 -14 -3 -6 -6z"/>
      <path d="M4700 2456 c0 -19 3 -37 8 -40 4 -2 6 13 4 35 -5 48 -12 51 -12 5z"/>
      <path d="M3958 2393 c7 -3 16 -2 19 1 4 3 -2 6 -13 5 -11 0 -14 -3 -6 -6z"/>
      <path d="M3993 2393 c4 -3 10 -3 14 0 3 4 0 7 -7 7 -7 0 -10 -3 -7 -7z"/>
      <path d="M3713 2353 c9 -2 23 -2 30 0 6 3 -1 5 -18 5 -16 0 -22 -2 -12 -5z"/>
      <path d="M3790 2310 c0 -7 3 -10 7 -7 3 4 3 10 0 14 -4 3 -7 0 -7 -7z"/>
      <path d="M4050 2290 c0 -7 3 -10 7 -7 3 4 3 10 0 14 -4 3 -7 0 -7 -7z"/>
      <path d="M4884 2268 c-4 -7 -3 -8 4 -4 12 7 16 16 8 16 -3 0 -8 -5 -12 -12z"/>
      <path d="M3445 2260 c3 -5 8 -10 11 -10 3 0 2 5 -1 10 -3 6 -8 10 -11 10 -3 0 -2 -4 1 -10z"/>
      <path d="M4932 2250 c0 -14 2 -19 5 -12 2 6 2 18 0 25 -3 6 -5 1 -5 -13z"/>
      <path d="M3560 2250 c0 -7 3 -10 7 -7 3 4 3 10 0 14 -4 3 -7 0 -7 -7z"/>
      <path d="M4850 2246 c0 -2 8 -10 18 -17 15 -13 16 -12 3 4 -13 16 -21 21 -21 13z"/>
      <path d="M4900 2240 c0 -7 3 -10 7 -7 3 4 3 10 0 14 -4 3 -7 0 -7 -7z"/>
      <path d="M3826 2223 c-6 -14 -5 -15 5 -6 7 7 10 15 7 18 -3 3 -9 -2 -12 -12z"/>
      <path d="M4950 2220 c0 -5 7 -7 15 -4 8 4 15 8 15 10 0 2 -7 4 -15 4 -8 0 -15 -4 -15 -10z"/>
      <path d="M4041 2194 c0 -11 3 -14 6 -6 3 7 2 16 -1 19 -3 4 -6 -2 -5 -13z"/>
      <path d="M4935 2168 l-40 -43 43 40 c39 36 47 45 39 45 -2 0 -21 -19 -42 -42z"/>
      <path d="M2095 2180 c-4 -13 1 -31 15 -50 12 -17 30 -72 42 -135 l22 -105 35 6 c20 4 37 7 38 8 1 1 -13 53 -32 116 -20 62 -33 122 -29 132 3 12 0 18 -10 18 -9 0 -15 5 -13 11 1 7 -12 14 -30 16 -25 3 -33 0 -38 -17z"/>
      <path d="M4834 2178 c-4 -7 -3 -8 4 -4 12 7 16 16 8 16 -3 0 -8 -5 -12 -12z"/>
      <path d="M2820 2165 c0 -9 -6 -12 -15 -9 -10 4 -15 0 -15 -12 0 -11 -32 -60 -70 -109 l-71 -90 33 -27 33 -27 17 35 c29 60 86 141 120 169 32 27 48 78 21 68 -7 -3 -13 -1 -13 4 0 5 -9 9 -20 10 -11 1 -20 -4 -20 -12z"/>
      <path d="M3580 2150 c0 -7 3 -10 7 -7 3 4 3 10 0 14 -4 3 -7 0 -7 -7z"/>
      <path d="M4041 2104 c0 -11 3 -14 6 -6 3 7 2 16 -1 19 -3 4 -6 -2 -5 -13z"/>
      <path d="M4794 2098 c-4 -7 -3 -8 4 -4 7 4 12 9 12 12 0 8 -9 4 -16 -8z"/>
      <path d="M3590 2040 c0 -7 3 -10 7 -7 3 4 3 10 0 14 -4 3 -7 0 -7 -7z"/>
      <path d="M4032 2005 c0 -16 2 -22 5 -12 2 9 2 23 0 30 -3 6 -5 -1 -5 -18z"/>
      <path d="M3754 1976 c-22 -22 -34 -44 -34 -61 0 -33 58 -95 89 -95 49 0 101 48 101 94 0 47 -51 96 -101 96 -11 0 -36 -15 -55 -34z m111 -11 c14 -13 25 -36 25 -50 0 -33 -41 -75 -73 -75 -41 0 -71 32 -71 75 0 69 71 99 119 50z"/>
      <path d="M3610 1970 c0 -7 3 -10 7 -7 3 4 3 10 0 14 -4 3 -7 0 -7 -7z"/>
      <path d="M4714 1948 c-4 -7 -3 -8 4 -4 12 7 16 16 8 16 -3 0 -8 -5 -12 -12z"/>
      <path d="M3620 1930 c0 -7 3 -10 7 -7 3 4 3 10 0 14 -4 3 -7 0 -7 -7z"/>
      <path d="M4022 1920 c0 -14 2 -19 5 -12 2 6 2 18 0 25 -3 6 -5 1 -5 -13z"/>
      <path d="M3631 1884 c0 -11 3 -14 6 -6 3 7 2 16 -1 19 -3 4 -6 -2 -5 -13z"/>
      <path d="M3035 1860 c3 -5 8 -10 11 -10 3 0 2 5 -1 10 -3 6 -8 10 -11 10 -3 0 -2 -4 1 -10z"/>
      <path d="M2811 1844 c0 -11 3 -14 6 -6 3 7 2 16 -1 19 -3 4 -6 -2 -5 -13z"/>
      <path d="M3640 1845 c0 -10 -10 -15 -28 -15 -29 0 -52 -16 -52 -34 0 -6 5 -3 11 7 6 11 22 17 44 17 28 0 35 4 35 20 0 11 -2 20 -5 20 -3 0 -5 -7 -5 -15z"/>
      <path d="M2845 1840 c3 -5 8 -10 11 -10 3 0 2 5 -1 10 -3 6 -8 10 -11 10 -3 0 -2 -4 1 -10z"/>
      <path d="M4093 1813 c4 -3 10 -3 14 0 3 4 0 7 -7 7 -7 0 -10 -3 -7 -7z"/>
      <path d="M3258 1803 c7 -3 16 -2 19 1 4 3 -2 6 -13 5 -11 0 -14 -3 -6 -6z"/>
      <path d="M4150 1770 c-9 -6 -10 -10 -3 -10 6 0 15 5 18 10 8 12 4 12 -15 0z"/>
      <path d="M3570 1749 c0 -13 5 -31 10 -39 7 -11 8 -5 4 20 -8 43 -14 51 -14 19z"/>
      <path d="M3810 1763 c14 -3 32 -10 40 -16 13 -11 13 -10 1 6 -7 9 -25 16 -40 16 l-26 -2 25 -4z"/>
      <path d="M2425 1740 c-10 -11 -28 -20 -41 -20 -38 0 -126 -37 -166 -70 -44 -37 -78 -103 -78 -154 0 -26 -4 -36 -12 -33 -18 5 -37 -23 -38 -55 0 -21 6 -29 24 -34 14 -3 29 -3 35 0 6 4 17 -6 25 -21 33 -64 143 -142 203 -144 152 -6 188 -3 239 24 67 34 111 79 140 142 25 54 32 134 14 180 -8 20 -7 27 6 32 9 3 23 -2 32 -11 14 -14 15 -20 4 -37 -8 -12 -11 -23 -8 -26 2 -3 10 4 17 16 10 15 16 17 27 9 7 -7 5 2 -5 20 -10 18 -22 32 -28 33 -5 1 1 5 15 9 17 6 10 7 -22 3 -44 -5 -50 -3 -78 27 -16 18 -30 35 -30 39 0 10 -135 61 -162 61 -13 0 -32 7 -42 15 -27 20 -50 19 -71 -5z m153 -136 c33 -21 29 -48 -5 -40 -84 20 -119 18 -176 -9 -31 -14 -61 -24 -66 -20 -29 17 40 70 111 85 51 10 105 4 136 -16z m-60 -102 c6 -18 -15 -14 -22 4 -4 10 -1 14 6 12 6 -2 14 -10 16 -16z m166 -44 c15 -24 -13 -53 -43 -43 -21 6 -29 43 -14 59 12 12 45 2 57 -16z m-427 -5 c-4 -3 -7 0 -7 7 0 7 3 10 7 7 3 -4 3 -10 0 -14z m-113 -40 c11 -26 -13 -42 -29 -19 -8 10 -12 23 -9 27 9 15 31 10 38 -8z m147 7 c24 -13 25 -46 1 -59 -37 -20 -70 27 -40 57 15 15 15 15 39 2z"/>
      <path d="M2829 1743 c-13 -16 -12 -17 4 -4 16 13 21 21 13 21 -2 0 -10 -8 -17 -17z"/>
      <path d="M3764 1748 c-4 -7 -3 -8 4 -4 12 7 16 16 8 16 -3 0 -8 -5 -12 -12z"/>
      <path d="M4113 1753 c4 -3 10 -3 14 0 3 4 0 7 -7 7 -7 0 -10 -3 -7 -7z"/>
      <path d="M3172 1729 c-12 -5 -22 -13 -22 -18 0 -10 12 -14 73 -26 24 -4 21 8 -6 32 -17 14 -29 18 -45 12z"/>
      <path d="M2946 1722 c-3 -5 1 -9 9 -9 8 0 12 4 9 9 -3 4 -7 8 -9 8 -2 0 -6 -4 -9 -8z"/>
      <path d="M3863 1723 c4 -3 10 -3 14 0 3 4 0 7 -7 7 -7 0 -10 -3 -7 -7z"/>
      <path d="M3898 1723 c6 -2 18 -2 25 0 6 3 1 5 -13 5 -14 0 -19 -2 -12 -5z"/>
      <path d="M2888 1713 c7 -3 16 -2 19 1 4 3 -2 6 -13 5 -11 0 -14 -3 -6 -6z"/>
      <path d="M3678 1713 c6 -2 18 -2 25 0 6 3 1 5 -13 5 -14 0 -19 -2 -12 -5z"/>
      <path d="M3613 1703 c9 -2 23 -2 30 0 6 3 -1 5 -18 5 -16 0 -22 -2 -12 -5z"/>
      <path d="M4203 1703 c9 -2 23 -2 30 0 6 3 -1 5 -18 5 -16 0 -22 -2 -12 -5z"/>
      <path d="M4330 1700 c-9 -6 -10 -10 -3 -10 6 0 15 5 18 10 8 12 4 12 -15 0z"/>
      <path d="M4715 1700 c3 -5 8 -10 11 -10 3 0 2 5 -1 10 -3 6 -8 10 -11 10 -3 0 -2 -4 1 -10z"/>
      <path d="M3063 1693 c9 -2 25 -2 35 0 9 3 1 5 -18 5 -19 0 -27 -2 -17 -5z"/>
      <path d="M3265 1689 c-4 -6 -5 -12 -2 -15 2 -3 7 2 10 11 7 17 1 20 -8 4z"/>
      <path d="M3304 1688 c-4 -7 -3 -8 4 -4 7 4 12 9 12 12 0 8 -9 4 -16 -8z"/>
      <path d="M4148 1693 c7 -3 16 -2 19 1 4 3 -2 6 -13 5 -11 0 -14 -3 -6 -6z"/>
      <path d="M3013 1683 c4 -3 10 -3 14 0 3 4 0 7 -7 7 -7 0 -10 -3 -7 -7z"/>
      <path d="M3963 1683 c4 -3 10 -3 14 0 3 4 0 7 -7 7 -7 0 -10 -3 -7 -7z"/>
      <path d="M4103 1683 c4 -3 10 -3 14 0 3 4 0 7 -7 7 -7 0 -10 -3 -7 -7z"/>
      <path d="M2973 1673 c4 -3 10 -3 14 0 3 4 0 7 -7 7 -7 0 -10 -3 -7 -7z"/>
      <path d="M3323 1673 c4 -3 10 -3 14 0 3 4 0 7 -7 7 -7 0 -10 -3 -7 -7z"/>
      <path d="M4004 1666 c11 -9 24 -16 30 -16 12 0 7 5 -24 19 -24 11 -24 11 -6 -3z"/>
      <path d="M4267 1655 c-37 -33 -24 -32 15 0 16 14 26 25 21 25 -4 0 -21 -12 -36 -25z"/>
      <path d="M4755 1660 c3 -5 8 -10 11 -10 3 0 2 5 -1 10 -3 6 -8 10 -11 10 -3 0 -2 -4 1 -10z"/>
      <path d="M2904 1638 c-4 -7 -3 -8 4 -4 12 7 16 16 8 16 -3 0 -8 -5 -12 -12z"/>
      <path d="M4455 1638 c-22 -13 -44 -38 -45 -52 0 -4 15 -6 33 -2 17 3 55 8 82 12 28 3 52 8 55 11 3 3 -6 13 -19 24 -26 21 -75 24 -106 7z"/>
      <path d="M3113 1630 c-36 -15 -27 -20 25 -13 56 6 103 -13 139 -55 17 -20 23 -23 23 -10 0 23 -53 65 -98 78 -44 12 -59 12 -89 0z"/>
      <path d="M3695 1625 c-22 -8 -32 -14 -22 -14 17 -1 25 -21 7 -21 -5 0 -14 -8 -19 -18 -12 -23 -7 -24 127 -10 88 9 102 13 102 29 0 46 -104 64 -195 34z m170 -15 c3 -5 4 -10 1 -10 -3 0 -8 5 -11 10 -3 6 -4 10 -1 10 3 0 8 -4 11 -10z m-178 -47 c-4 -3 -10 -3 -14 0 -3 4 0 7 7 7 7 0 10 -3 7 -7z"/>
      <path d="M2050 1626 c0 -2 8 -10 18 -17 15 -13 16 -12 3 4 -13 16 -21 21 -21 13z"/>
      <path d="M4670 1616 c-28 -35 11 -93 48 -70 35 22 22 84 -18 84 -10 0 -23 -7 -30 -14z"/>
      <path d="M4780 1620 c0 -7 3 -10 7 -7 3 4 3 10 0 14 -4 3 -7 0 -7 -7z"/>
      <path d="M2864 1608 c-4 -7 -3 -8 4 -4 7 4 12 9 12 12 0 8 -9 4 -16 -8z"/>
      <path d="M3385 1600 c10 -11 20 -20 23 -20 3 0 -3 9 -13 20 -10 11 -20 20 -23 20 -3 0 3 -9 13 -20z"/>
      <path d="M3562 1555 c-1 -45 2 -65 7 -55 5 9 6 40 1 70 l-8 55 0 -70z"/>
      <path d="M2909 1594 c-20 -24 1 -49 42 -49 25 0 35 5 37 19 8 38 -53 61 -79 30z"/>
      <path d="M3460 1600 c0 -7 3 -10 7 -7 3 4 3 10 0 14 -4 3 -7 0 -7 -7z"/>
      <path d="M4840 1596 c0 -2 8 -10 18 -17 15 -13 16 -12 3 4 -13 16 -21 21 -21 13z"/>
      <path d="M3580 1580 c0 -7 3 -10 7 -7 3 4 3 10 0 14 -4 3 -7 0 -7 -7z"/>
      <path d="M4184 1578 c-4 -7 -3 -8 4 -4 12 7 16 16 8 16 -3 0 -8 -5 -12 -12z"/>
      <path d="M4220 1566 c-28 -35 11 -93 48 -70 35 22 22 84 -18 84 -10 0 -23 -7 -30 -14z"/>
      <path d="M3470 1553 c0 -4 5 -15 10 -23 8 -13 10 -13 10 2 0 9 -4 20 -10 23 -5 3 -10 3 -10 -2z"/>
      <path d="M4164 1548 c-4 -7 -3 -8 4 -4 7 4 12 9 12 12 0 8 -9 4 -16 -8z"/>
      <path d="M3640 1530 c0 -7 3 -10 7 -7 3 4 3 10 0 14 -4 3 -7 0 -7 -7z"/>
      <path d="M3363 1520 c-30 -12 -29 -36 1 -55 19 -13 29 -14 45 -5 26 14 27 46 2 60 -22 11 -19 11 -48 0z"/>
      <path d="M2868 1513 c7 -3 16 -2 19 1 4 3 -2 6 -13 5 -11 0 -14 -3 -6 -6z"/>
      <path d="M3788 1513 c7 -3 16 -2 19 1 4 3 -2 6 -13 5 -11 0 -14 -3 -6 -6z"/>
      <path d="M3453 1490 c2 -8 12 -16 23 -17 13 -2 15 -1 4 4 -8 3 -19 11 -23 17 -6 7 -7 6 -4 -4z"/>
      <path d="M2963 1475 c0 -8 4 -12 9 -9 5 3 6 10 3 15 -9 13 -12 11 -12 -6z"/>
      <path d="M3505 1460 c3 -5 8 -10 11 -10 3 0 2 5 -1 10 -3 6 -8 10 -11 10 -3 0 -2 -4 1 -10z"/>
      <path d="M3610 1450 c0 -7 3 -10 7 -7 3 4 3 10 0 14 -4 3 -7 0 -7 -7z"/>
      <path d="M3476 1428 c9 -31 14 -35 24 -19 11 18 2 41 -17 41 -10 0 -12 -6 -7 -22z"/>
      <path d="M3520 1430 c0 -7 3 -10 7 -7 3 4 3 10 0 14 -4 3 -7 0 -7 -7z"/>
      <path d="M2910 1400 c0 -7 3 -10 7 -7 3 4 3 10 0 14 -4 3 -7 0 -7 -7z"/>
      <path d="M3290 1396 c0 -2 8 -10 18 -17 15 -13 16 -12 3 4 -13 16 -21 21 -21 13z"/>
      <path d="M3375 1370 c3 -5 8 -10 11 -10 3 0 2 5 -1 10 -3 6 -8 10 -11 10 -3 0 -2 -4 1 -10z"/>
      <path d="M3442 1364 c-7 -8 -8 -14 -3 -14 10 0 25 19 20 25 -2 1 -10 -3 -17 -11z"/>
      <path d="M3338 1363 c7 -3 16 -2 19 1 4 3 -2 6 -13 5 -11 0 -14 -3 -6 -6z"/>
      <path d="M3378 1343 c6 -2 18 -2 25 0 6 3 1 5 -13 5 -14 0 -19 -2 -12 -5z"/>
      <path d="M3343 1333 c4 -3 10 -3 14 0 3 4 0 7 -7 7 -7 0 -10 -3 -7 -7z"/>
      <path d="M3588 1333 c7 -3 16 -2 19 1 4 3 -2 6 -13 5 -11 0 -14 -3 -6 -6z"/>
      <path d="M3283 1323 c4 -3 10 -3 14 0 3 4 0 7 -7 7 -7 0 -10 -3 -7 -7z"/>
      <path d="M3238 1313 c7 -3 16 -2 19 1 4 3 -2 6 -13 5 -11 0 -14 -3 -6 -6z"/>
      <path d="M2941 1294 c0 -11 3 -14 6 -6 3 7 2 16 -1 19 -3 4 -6 -2 -5 -13z"/>
      <path d="M3193 1303 c4 -3 10 -3 14 0 3 4 0 7 -7 7 -7 0 -10 -3 -7 -7z"/>
      <path d="M3153 1293 c4 -3 10 -3 14 0 3 4 0 7 -7 7 -7 0 -10 -3 -7 -7z"/>
      <path d="M3023 1263 c4 -3 10 -3 14 0 3 4 0 7 -7 7 -7 0 -10 -3 -7 -7z"/>
      <path d="M2983 1253 c4 -3 10 -3 14 0 3 4 0 7 -7 7 -7 0 -10 -3 -7 -7z"/>
      <path d="M4694 998 c-4 -7 -3 -8 4 -4 7 4 12 9 12 12 0 8 -9 4 -16 -8z"/>
      <path d="M3404 978 c-4 -7 -3 -8 4 -4 7 4 12 9 12 12 0 8 -9 4 -16 -8z"/>
      <path d="M4483 933 c4 -3 10 -3 14 0 3 4 0 7 -7 7 -7 0 -10 -3 -7 -7z"/>
      <path d="M4573 933 c4 -3 10 -3 14 0 3 4 0 7 -7 7 -7 0 -10 -3 -7 -7z"/>
      <path d="M2993 903 c4 -3 10 -3 14 0 3 4 0 7 -7 7 -7 0 -10 -3 -7 -7z"/>
      <path d="M3068 893 c7 -3 16 -2 19 1 4 3 -2 6 -13 5 -11 0 -14 -3 -6 -6z"/>
    </g>
    <g id="layer5" fill="#f99c1d" stroke="none">
      <path d="M3125 2036 c-31 -13 -55 -51 -55 -86 0 -19 8 -20 105 -20 l105 0 -6 28 c-11 46 -24 63 -59 78 -41 17 -51 17 -90 0z"/>
      <path d="M3350 1897 c0 -13 -5 -28 -12 -35 -6 -6 -12 -44 -12 -85 l-1 -74 27 8 c41 11 49 18 69 63 27 60 24 90 -12 120 -38 32 -59 33 -59 3z"/>
      <path d="M2916 1868 c-41 -59 0 -142 71 -144 l39 0 -9 65 c-5 40 -15 72 -25 81 -27 24 -58 23 -76 -2z"/>
      <path d="M3084 1835 c-2 -5 -7 -33 -12 -61 -8 -45 -6 -53 10 -63 19 -12 21 -7 8 24 -9 24 14 55 42 55 10 0 27 -14 37 -30 l18 -31 18 28 c10 15 24 32 32 36 7 4 13 14 13 21 0 16 -161 37 -166 21z"/>
      <path d="M3288 1693 c7 -3 16 -2 19 1 4 3 -2 6 -13 5 -11 0 -14 -3 -6 -6z"/>
      <path d="M4066 1487 c-37 -46 -76 -115 -76 -134 0 -7 -5 -13 -10 -13 -7 0 -8 13 -4 36 l7 36 -44 -28 c-73 -46 -99 -67 -119 -99 -11 -16 -20 -23 -20 -15 0 17 21 79 33 98 12 18 -11 15 -63 -9 -59 -27 -87 -53 -117 -113 l-25 -49 -22 38 c-19 30 -24 34 -29 20 -4 -9 -7 -26 -7 -36 0 -11 -10 -43 -22 -71 l-22 -51 25 -19 c55 -45 211 -108 267 -108 16 0 64 11 106 25 154 50 228 106 274 203 21 48 24 64 20 142 -4 76 -8 95 -34 136 -40 66 -71 69 -118 11z"/>
    </g>
    <g id="layer6" fill="#d56c48" stroke="none">
      <path d="M3023 2333 c4 -3 10 -3 14 0 3 4 0 7 -7 7 -7 0 -10 -3 -7 -7z"/>
      <path d="M3163 2333 c4 -3 10 -3 14 0 3 4 0 7 -7 7 -7 0 -10 -3 -7 -7z"/>
      <path d="M3243 2323 c4 -3 10 -3 14 0 3 4 0 7 -7 7 -7 0 -10 -3 -7 -7z"/>
      <path d="M2963 2313 c4 -3 10 -3 14 0 3 4 0 7 -7 7 -7 0 -10 -3 -7 -7z"/>
      <path d="M3323 2303 c4 -3 10 -3 14 0 3 4 0 7 -7 7 -7 0 -10 -3 -7 -7z"/>
      <path d="M2865 2190 c3 -5 8 -10 11 -10 3 0 2 5 -1 10 -3 6 -8 10 -11 10 -3 0 -2 -4 1 -10z"/>
      <path d="M3360 2010 c0 -7 3 -10 7 -7 3 4 3 10 0 14 -4 3 -7 0 -7 -7z"/>
      <path d="M3350 1970 c0 -7 3 -10 7 -7 3 4 3 10 0 14 -4 3 -7 0 -7 -7z"/>
      <path d="M3265 1880 c-3 -6 1 -7 9 -4 18 7 21 14 7 14 -6 0 -13 -4 -16 -10z"/>
      <path d="M3062 1864 c-7 -8 -8 -14 -3 -14 10 0 25 19 20 25 -2 1 -10 -3 -17 -11z"/>
      <path d="M3267 1839 c7 -7 15 -10 18 -7 3 3 -2 9 -12 12 -14 6 -15 5 -6 -5z"/>
      <path d="M2790 1760 c0 -12 28 -25 36 -17 3 3 -4 10 -15 17 -15 7 -21 7 -21 0z"/>
      <path d="M3290 1740 c0 -7 3 -10 7 -7 3 4 3 10 0 14 -4 3 -7 0 -7 -7z"/>
      <path d="M2084 1625 c-17 -13 -17 -14 -2 -15 9 0 20 5 23 11 11 17 0 20 -21 4z"/>
      <path d="M2442 1620 c-71 -15 -140 -68 -111 -85 5 -4 35 6 66 20 57 27 92 29 176 9 21 -5 27 -3 27 10 0 37 -83 61 -158 46z"/>
      <path d="M3855 1610 c3 -5 8 -10 11 -10 3 0 2 5 -1 10 -3 6 -8 10 -11 10 -3 0 -2 -4 1 -10z"/>
      <path d="M3673 1563 c4 -3 10 -3 14 0 3 4 0 7 -7 7 -7 0 -10 -3 -7 -7z"/>
      <path d="M4140 1536 c0 -2 8 -10 18 -17 15 -13 16 -12 3 4 -13 16 -21 21 -21 13z"/>
      <path d="M4175 1490 c3 -5 8 -10 11 -10 3 0 2 5 -1 10 -3 6 -8 10 -11 10 -3 0 -2 -4 1 -10z"/>
      <path d="M4210 1410 c0 -7 3 -10 7 -7 3 4 3 10 0 14 -4 3 -7 0 -7 -7z"/>
    </g>
    <g id="layer7" fill="#059fc6" stroke="none">
      <path d="M4741 2214 c0 -11 3 -14 6 -6 3 7 2 16 -1 19 -3 4 -6 -2 -5 -13z"/>
      <path d="M4353 2152 c-45 -10 -84 -20 -88 -23 -3 -3 4 -42 16 -85 l21 -79 36 1 c34 1 34 1 5 -3 -37 -5 -38 -8 -19 -80 l14 -52 -40 -6 -40 -7 6 -51 c9 -62 12 -67 38 -67 25 0 126 28 148 41 46 27 64 30 100 14 19 -9 61 -17 92 -18 50 -2 60 1 86 26 16 16 37 46 47 67 l17 38 -41 37 c-32 29 -40 42 -35 60 5 21 2 24 -33 28 l-38 4 41 1 41 2 11 64 c22 116 35 106 -145 105 -104 -1 -186 -7 -240 -17z m315 -89 c-15 -2 -42 -2 -60 0 -18 2 -6 4 27 4 33 0 48 -2 33 -4z m-165 -10 c-18 -2 -48 -2 -65 0 -18 2 -4 4 32 4 36 0 50 -2 33 -4z m-155 -10 c-10 -2 -28 -2 -40 0 -13 2 -5 4 17 4 22 1 32 -1 23 -4z m245 -60 c-13 -2 -33 -2 -45 0 -13 2 -3 4 22 4 25 0 35 -2 23 -4z m-110 -10 c-13 -2 -33 -2 -45 0 -13 2 -3 4 22 4 25 0 35 -2 23 -4z"/>
    </g>
    <g id="layer8" fill="#7d845d" stroke="none">
      <path d="M2867 2614 c-12 -13 -7 -34 13 -54 26 -26 40 -25 40 1 0 20 4 21 73 16 39 -3 82 -8 95 -12 16 -6 22 -3 22 8 0 11 -15 20 -42 28 -51 13 -191 22 -201 13z"/>
      <path d="M3256 2612 c-2 -1 -18 -4 -36 -7 -37 -4 -35 -3 -44 -32 -8 -26 -1 -28 34 -8 14 8 52 14 88 15 56 0 65 -3 69 -20 3 -11 9 -20 14 -20 17 0 50 41 47 58 -3 14 -16 17 -86 17 -46 0 -85 -1 -86 -3z"/>
      <path d="M2150 2587 c0 -13 5 -28 12 -35 17 -17 48 -15 48 3 0 8 8 16 18 16 34 3 97 -2 130 -11 28 -7 33 -6 30 8 -4 23 -74 40 -165 41 -70 1 -73 0 -73 -22z"/>
      <path d="M2482 2593 c-48 -19 -30 -35 31 -28 120 14 119 14 124 -6 10 -36 56 -16 58 26 l1 26 -91 -2 c-49 -1 -105 -9 -123 -16z"/>
      <path d="M4580 2580 c0 -5 5 -10 11 -10 5 0 7 5 4 10 -3 6 -8 10 -11 10 -2 0 -4 -4 -4 -10z"/>
      <path d="M4045 2370 c3 -5 8 -10 11 -10 3 0 2 5 -1 10 -3 6 -8 10 -11 10 -3 0 -2 -4 1 -10z"/>
      <path d="M4408 2373 c6 -2 18 -2 25 0 6 3 1 5 -13 5 -14 0 -19 -2 -12 -5z"/>
      <path d="M3843 2363 c4 -3 10 -3 14 0 3 4 0 7 -7 7 -7 0 -10 -3 -7 -7z"/>
      <path d="M3554 2308 c-4 -7 -3 -8 4 -4 12 7 16 16 8 16 -3 0 -8 -5 -12 -12z"/>
      <path d="M4050 2310 c0 -7 3 -10 7 -7 3 4 3 10 0 14 -4 3 -7 0 -7 -7z"/>
      <path d="M3800 2236 c0 -8 4 -17 9 -20 5 -4 7 3 4 14 -6 23 -13 26 -13 6z"/>
      <path d="M3570 2220 c0 -7 3 -10 7 -7 3 4 3 10 0 14 -4 3 -7 0 -7 -7z"/>
      <path d="M4040 2220 c0 -7 3 -10 7 -7 3 4 3 10 0 14 -4 3 -7 0 -7 -7z"/>
      <path d="M4755 1900 c10 -11 20 -20 23 -20 3 0 -3 9 -13 20 -10 11 -20 20 -23 20 -3 0 3 -9 13 -20z"/>
      <path d="M2852 1805 c0 -16 2 -22 5 -12 2 9 2 23 0 30 -3 6 -5 -1 -5 -18z"/>
      <path d="M4053 1823 c4 -3 10 -3 14 0 3 4 0 7 -7 7 -7 0 -10 -3 -7 -7z"/>
      <path d="M4508 1763 c7 -3 16 -2 19 1 4 3 -2 6 -13 5 -11 0 -14 -3 -6 -6z"/>
      <path d="M4260 1750 c0 -7 3 -10 7 -7 3 4 3 10 0 14 -4 3 -7 0 -7 -7z"/>
      <path d="M4547 1749 c7 -7 15 -10 18 -7 3 3 -2 9 -12 12 -14 6 -15 5 -6 -5z"/>
      <path d="M4454 1738 c-4 -7 -3 -8 4 -4 7 4 12 9 12 12 0 8 -9 4 -16 -8z"/>
      <path d="M4623 1733 c4 -3 10 -3 14 0 3 4 0 7 -7 7 -7 0 -10 -3 -7 -7z"/>
      <path d="M4403 1723 c4 -3 10 -3 14 0 3 4 0 7 -7 7 -7 0 -10 -3 -7 -7z"/>
      <path d="M2993 1713 c4 -3 10 -3 14 0 3 4 0 7 -7 7 -7 0 -10 -3 -7 -7z"/>
      <path d="M4373 1713 c4 -3 10 -3 14 0 3 4 0 7 -7 7 -7 0 -10 -3 -7 -7z"/>
      <path d="M2700 1700 c0 -7 3 -10 7 -7 3 4 3 10 0 14 -4 3 -7 0 -7 -7z"/>
      <path d="M2040 1660 c0 -7 3 -10 7 -7 3 4 3 10 0 14 -4 3 -7 0 -7 -7z"/>
      <path d="M3373 1653 c4 -3 10 -3 14 0 3 4 0 7 -7 7 -7 0 -10 -3 -7 -7z"/>
      <path d="M3403 1643 c4 -3 10 -3 14 0 3 4 0 7 -7 7 -7 0 -10 -3 -7 -7z"/>
      <path d="M3433 1633 c4 -3 10 -3 14 0 3 4 0 7 -7 7 -7 0 -10 -3 -7 -7z"/>
      <path d="M3483 1585 c0 -22 2 -30 4 -17 2 12 2 30 0 40 -3 9 -5 -1 -4 -23z"/>
      <path d="M3538 1613 c7 -3 16 -2 19 1 4 3 -2 6 -13 5 -11 0 -14 -3 -6 -6z"/>
      <path d="M3460 1580 c0 -7 3 -10 7 -7 3 4 3 10 0 14 -4 3 -7 0 -7 -7z"/>
      <path d="M2090 1510 c0 -7 3 -10 7 -7 3 4 3 10 0 14 -4 3 -7 0 -7 -7z"/>
      <path d="M2895 1490 c3 -5 8 -10 11 -10 3 0 2 5 -1 10 -3 6 -8 10 -11 10 -3 0 -2 -4 1 -10z"/>
      <path d="M2923 1453 c4 -3 10 -3 14 0 3 4 0 7 -7 7 -7 0 -10 -3 -7 -7z"/>
      <path d="M3965 1440 c3 -5 8 -10 11 -10 3 0 2 5 -1 10 -3 6 -8 10 -11 10 -3 0 -2 -4 1 -10z"/>
      <path d="M4004 1438 c-4 -7 -3 -8 4 -4 7 4 12 9 12 12 0 8 -9 4 -16 -8z"/>
      <path d="M4890 1430 c0 -7 3 -10 7 -7 3 4 3 10 0 14 -4 3 -7 0 -7 -7z"/>
      <path d="M3280 1390 c0 -7 3 -10 7 -7 3 4 3 10 0 14 -4 3 -7 0 -7 -7z"/>
      <path d="M4901 1374 c0 -11 3 -14 6 -6 3 7 2 16 -1 19 -3 4 -6 -2 -5 -13z"/>
      <path d="M3616 1353 c-6 -14 -5 -15 5 -6 7 7 10 15 7 18 -3 3 -9 -2 -12 -12z"/>
      <path d="M3364 1348 c-4 -7 -3 -8 4 -4 12 7 16 16 8 16 -3 0 -8 -5 -12 -12z"/>
      <path d="M2080 1330 c0 -7 3 -10 7 -7 3 4 3 10 0 14 -4 3 -7 0 -7 -7z"/>
      <path d="M4901 1284 c0 -11 3 -14 6 -6 3 7 2 16 -1 19 -3 4 -6 -2 -5 -13z"/>
      <path d="M3479 1053 c-13 -16 -12 -17 4 -4 16 13 21 21 13 21 -2 0 -10 -8 -17 -17z"/>
      <path d="M2749 993 c-13 -16 -12 -17 4 -4 16 13 21 21 13 21 -2 0 -10 -8 -17 -17z"/>
      <path d="M3424 998 c-4 -7 -3 -8 4 -4 12 7 16 16 8 16 -3 0 -8 -5 -12 -12z"/>
      <path d="M2855 970 c3 -5 8 -10 11 -10 3 0 2 5 -1 10 -3 6 -8 10 -11 10 -3 0 -2 -4 1 -10z"/>
      <path d="M3384 968 c-4 -7 -3 -8 4 -4 12 7 16 16 8 16 -3 0 -8 -5 -12 -12z"/>
      <path d="M3354 948 c-4 -7 -3 -8 4 -4 12 7 16 16 8 16 -3 0 -8 -5 -12 -12z"/>
      <path d="M3243 903 c4 -3 10 -3 14 0 3 4 0 7 -7 7 -7 0 -10 -3 -7 -7z"/>
      <path d="M2353 893 c4 -3 10 -3 14 0 3 4 0 7 -7 7 -7 0 -10 -3 -7 -7z"/>
      <path d="M2503 893 c4 -3 10 -3 14 0 3 4 0 7 -7 7 -7 0 -10 -3 -7 -7z"/>
      <path d="M3093 893 c4 -3 10 -3 14 0 3 4 0 7 -7 7 -7 0 -10 -3 -7 -7z"/>
    </g>
    <g id="layer9" fill="#9b6b4e" stroke="none">
      <path d="M3913 2593 c-7 -2 -13 -13 -13 -24 0 -16 4 -17 26 -9 14 6 57 10 95 10 62 0 69 -2 69 -20 0 -13 7 -20 18 -20 37 0 58 52 26 64 -19 7 -203 7 -221 -1z"/>
      <path d="M4630 2587 l-35 -12 -3 -86 -3 -86 56 10 55 10 0 58 c0 56 1 59 28 65 48 10 52 13 52 34 0 18 -6 20 -57 19 -32 0 -74 -5 -93 -12z"/>
      <path d="M3485 2572 c-12 -12 -3 -42 14 -52 27 -14 31 -13 31 9 0 12 8 21 22 23 12 2 23 9 26 16 3 9 -9 12 -42 10 -25 0 -48 -4 -51 -6z"/>
      <path d="M3600 2571 c0 -8 121 -33 128 -26 3 2 0 11 -6 18 -12 14 -122 22 -122 8z"/>
      <path d="M4238 2574 c-21 -21 -7 -41 34 -50 l41 -9 -2 -72 -2 -73 38 0 c84 0 85 1 81 104 -2 73 -6 92 -18 93 -130 12 -166 14 -172 7z"/>
      <path d="M3923 2383 c4 -3 10 -3 14 0 3 4 0 7 -7 7 -7 0 -10 -3 -7 -7z"/>
      <path d="M3883 2373 c4 -3 10 -3 14 0 3 4 0 7 -7 7 -7 0 -10 -3 -7 -7z"/>
      <path d="M3648 2343 c7 -3 16 -2 19 1 4 3 -2 6 -13 5 -11 0 -14 -3 -6 -6z"/>
      <path d="M4050 2330 c0 -7 3 -10 7 -7 3 4 3 10 0 14 -4 3 -7 0 -7 -7z"/>
      <path d="M3560 2280 c0 -7 3 -10 7 -7 3 4 3 10 0 14 -4 3 -7 0 -7 -7z"/>
      <path d="M4887 2264 c-4 -4 -7 -16 -7 -27 0 -16 -3 -17 -15 -7 -13 11 -15 8 -15 -13 0 -14 -30 -83 -66 -152 l-66 -127 28 -24 c16 -13 32 -23 35 -24 3 0 30 53 60 118 36 77 69 134 99 166 25 27 37 47 27 43 -14 -5 -16 -2 -11 21 5 25 4 26 -10 9 -14 -18 -15 -18 -19 5 l-4 23 -9 -25 -8 -25 -5 23 c-4 13 -9 20 -14 16z"/>
      <path d="M4040 2240 c0 -7 3 -10 7 -7 3 4 3 10 0 14 -4 3 -7 0 -7 -7z"/>
      <path d="M3683 2142 c-51 -9 -95 -22 -97 -28 -3 -7 11 -70 30 -141 18 -70 34 -134 34 -140 0 -8 -14 -13 -35 -13 -42 0 -49 -12 -37 -65 l8 -40 78 2 c69 1 80 4 101 27 29 31 68 34 88 5 10 -13 28 -21 54 -23 22 -2 48 -8 59 -14 19 -11 19 -11 -1 -12 -13 0 -4 -8 23 -20 43 -20 44 -20 103 0 33 11 86 23 119 27 l60 6 -6 36 c-4 20 -8 39 -10 43 -5 7 -73 -10 -89 -22 -5 -4 -20 -11 -33 -15 -21 -6 -23 -4 -20 21 3 25 -2 30 -42 44 -54 19 -56 27 -40 159 15 128 18 154 13 166 -6 17 -258 15 -360 -3z m176 -146 c27 -14 51 -53 51 -82 0 -46 -52 -94 -101 -94 -31 0 -89 62 -89 95 0 33 58 95 89 95 12 0 34 -6 50 -14z"/>
      <path d="M3769 1971 c-50 -40 -17 -131 48 -131 32 0 73 42 73 75 0 33 -41 75 -73 75 -14 0 -35 -8 -48 -19z"/>
      <path d="M4468 1749 c-2 -5 -36 -21 -76 -35 -42 -14 -87 -37 -105 -54 -18 -17 -38 -30 -45 -30 -7 0 -27 -20 -44 -45 -18 -25 -36 -45 -41 -45 -4 0 2 -15 15 -32 12 -18 30 -55 40 -83 9 -27 21 -49 25 -48 189 39 368 24 433 -37 l30 -28 26 47 c34 59 103 131 126 131 18 0 23 15 19 54 -2 29 -31 56 -58 56 -15 0 -27 8 -32 23 -23 61 -121 117 -202 117 -15 0 -31 5 -34 10 -8 13 -72 13 -77 -1z m94 -116 c27 -24 23 -30 -29 -37 -27 -4 -65 -9 -85 -12 -46 -7 -49 7 -12 41 32 30 97 34 126 8z m168 -17 c28 -35 -11 -93 -47 -70 -36 22 -23 84 17 84 10 0 23 -7 30 -14z m-450 -50 c28 -35 -11 -93 -47 -70 -36 22 -23 84 17 84 10 0 23 -7 30 -14z m566 -11 c15 -23 12 -45 -5 -45 -8 0 -31 44 -31 60 0 18 19 10 36 -15z m-136 -66 c0 -25 -22 -49 -45 -49 -14 0 -29 8 -35 19 -14 27 -13 29 13 34 43 8 67 7 67 -4z m-340 -37 c0 -17 -32 -52 -49 -52 -39 0 -56 46 -18 53 39 8 67 7 67 -1z"/>
      <path d="M2973 1713 c4 -3 10 -3 14 0 3 4 0 7 -7 7 -7 0 -10 -3 -7 -7z"/>
      <path d="M3033 1693 c4 -3 10 -3 14 0 3 4 0 7 -7 7 -7 0 -10 -3 -7 -7z"/>
      <path d="M2993 1683 c4 -3 10 -3 14 0 3 4 0 7 -7 7 -7 0 -10 -3 -7 -7z"/>
      <path d="M3270 1680 c0 -5 7 -7 15 -4 8 4 15 8 15 10 0 2 -7 4 -15 4 -8 0 -15 -4 -15 -10z"/>
      <path d="M3304 1668 c-4 -7 -3 -8 4 -4 12 7 16 16 8 16 -3 0 -8 -5 -12 -12z"/>
      <path d="M2703 1653 c4 -3 10 -3 14 0 3 4 0 7 -7 7 -7 0 -10 -3 -7 -7z"/>
      <path d="M2884 1628 c-4 -7 -3 -8 4 -4 7 4 12 9 12 12 0 8 -9 4 -16 -8z"/>
      <path d="M3355 1630 c3 -5 8 -10 11 -10 3 0 2 5 -1 10 -3 6 -8 10 -11 10 -3 0 -2 -4 1 -10z"/>
      <path d="M2749 1607 c5 -5 21 -7 37 -5 27 3 26 4 -8 9 -22 3 -34 1 -29 -4z"/>
      <path d="M3596 1612 c-2 -4 11 -6 30 -4 19 2 34 6 34 8 0 8 -59 4 -64 -4z"/>
      <path d="M3669 1593 c-13 -16 -12 -17 4 -4 16 13 21 21 13 21 -2 0 -10 -8 -17 -17z"/>
      <path d="M2768 1584 c-8 -8 3 -44 14 -44 5 0 4 9 -2 20 -13 24 7 28 30 8 12 -11 12 -10 1 5 -13 17 -33 22 -43 11z"/>
      <path d="M3415 1570 c3 -5 8 -10 11 -10 3 0 2 5 -1 10 -3 6 -8 10 -11 10 -3 0 -2 -4 1 -10z"/>
      <path d="M3580 1560 c0 -7 3 -10 7 -7 3 4 3 10 0 14 -4 3 -7 0 -7 -7z"/>
      <path d="M2799 1533 c-13 -16 -12 -17 4 -4 9 7 17 15 17 17 0 8 -8 3 -21 -13z"/>
      <path d="M3470 1535 c0 -5 5 -17 10 -25 5 -8 10 -10 10 -5 0 6 -5 17 -10 25 -5 8 -10 11 -10 5z"/>
      <path d="M2496 1506 c3 -9 11 -16 16 -16 13 0 5 23 -10 28 -7 2 -10 -2 -6 -12z"/>
      <path d="M3566 1495 c-3 -9 -6 -22 -5 -28 0 -7 5 -1 10 12 5 13 8 26 5 28 -2 2 -6 -3 -10 -12z"/>
      <path d="M2132 1480 c0 -14 2 -19 5 -12 2 6 2 18 0 25 -3 6 -5 1 -5 -13z"/>
      <path d="M2781 1484 c0 -11 3 -14 6 -6 3 7 2 16 -1 19 -3 4 -6 -2 -5 -13z"/>
      <path d="M3620 1490 c0 -7 3 -10 7 -7 3 4 3 10 0 14 -4 3 -7 0 -7 -7z"/>
      <path d="M2624 1468 c-4 -7 -3 -8 4 -4 12 7 16 16 8 16 -3 0 -8 -5 -12 -12z"/>
      <path d="M2681 1447 c-1 -10 -11 -22 -23 -27 -16 -6 -18 -9 -7 -9 21 -1 43 24 36 41 -3 8 -6 6 -6 -5z"/>
      <path d="M3600 1430 c0 -7 3 -10 7 -7 3 4 3 10 0 14 -4 3 -7 0 -7 -7z"/>
      <path d="M2104 1418 c-4 -7 -3 -8 4 -4 12 7 16 16 8 16 -3 0 -8 -5 -12 -12z"/>
      <path d="M2134 1412 c4 -19 1 -22 -12 -17 -14 5 -15 4 -4 -6 19 -20 38 3 22 28 -10 16 -11 16 -6 -5z"/>
      <path d="M2249 1413 c-13 -17 -13 -17 6 -3 11 8 22 16 24 17 2 2 0 3 -6 3 -6 0 -17 -8 -24 -17z"/>
      <path d="M2295 1410 c3 -5 8 -10 11 -10 3 0 2 5 -1 10 -3 6 -8 10 -11 10 -3 0 -2 -4 1 -10z"/>
      <path d="M3590 1400 c0 -7 3 -10 7 -7 3 4 3 10 0 14 -4 3 -7 0 -7 -7z"/>
      <path d="M3504 1388 c-4 -7 -3 -8 4 -4 7 4 12 9 12 12 0 8 -9 4 -16 -8z"/>
      <path d="M2135 1370 c-17 -8 -17 -9 7 -7 15 1 24 5 22 9 -3 4 -6 8 -7 7 -1 0 -11 -4 -22 -9z"/>
      <path d="M2245 1370 c3 -5 8 -10 11 -10 3 0 2 5 -1 10 -3 6 -8 10 -11 10 -3 0 -2 -4 1 -10z"/>
      <path d="M2294 1368 c-4 -7 -3 -8 4 -4 7 4 12 9 12 12 0 8 -9 4 -16 -8z"/>
      <path d="M3468 1373 c7 -3 16 -2 19 1 4 3 -2 6 -13 5 -11 0 -14 -3 -6 -6z"/>
      <path d="M3413 1343 c4 -3 10 -3 14 0 3 4 0 7 -7 7 -7 0 -10 -3 -7 -7z"/>
      <path d="M3363 1333 c4 -3 10 -3 14 0 3 4 0 7 -7 7 -7 0 -10 -3 -7 -7z"/>
      <path d="M2719 1313 c-13 -16 -12 -17 4 -4 9 7 17 15 17 17 0 8 -8 3 -21 -13z"/>
      <path d="M3308 1323 c7 -3 16 -2 19 1 4 3 -2 6 -13 5 -11 0 -14 -3 -6 -6z"/>
      <path d="M2205 1300 c10 -11 20 -20 23 -20 3 0 -3 9 -13 20 -10 11 -20 20 -23 20 -3 0 3 -9 13 -20z"/>
      <path d="M3263 1313 c4 -3 10 -3 14 0 3 4 0 7 -7 7 -7 0 -10 -3 -7 -7z"/>
      <path d="M3213 1303 c4 -3 10 -3 14 0 3 4 0 7 -7 7 -7 0 -10 -3 -7 -7z"/>
      <path d="M3571 1294 c0 -11 3 -14 6 -6 3 7 2 16 -1 19 -3 4 -6 -2 -5 -13z"/>
      <path d="M3173 1293 c4 -3 10 -3 14 0 3 4 0 7 -7 7 -7 0 -10 -3 -7 -7z"/>
      <path d="M3123 1283 c4 -3 10 -3 14 0 3 4 0 7 -7 7 -7 0 -10 -3 -7 -7z"/>
      <path d="M2669 1263 c-13 -16 -12 -17 4 -4 16 13 21 21 13 21 -2 0 -10 -8 -17 -17z"/>
      <path d="M2942 1260 c0 -14 2 -19 5 -12 2 6 2 18 0 25 -3 6 -5 1 -5 -13z"/>
      <path d="M3083 1273 c4 -3 10 -3 14 0 3 4 0 7 -7 7 -7 0 -10 -3 -7 -7z"/>
      <path d="M3043 1263 c4 -3 10 -3 14 0 3 4 0 7 -7 7 -7 0 -10 -3 -7 -7z"/>
      <path d="M2363 1203 c4 -3 10 -3 14 0 3 4 0 7 -7 7 -7 0 -10 -3 -7 -7z"/>
      <path d="M2543 1203 c4 -3 10 -3 14 0 3 4 0 7 -7 7 -7 0 -10 -3 -7 -7z"/>
      <path d="M2453 1193 c15 -2 37 -2 50 0 12 2 0 4 -28 4 -27 0 -38 -2 -22 -4z"/>
      <path d="M2933 923 c4 -3 10 -3 14 0 3 4 0 7 -7 7 -7 0 -10 -3 -7 -7z"/>
      <path d="M3023 903 c4 -3 10 -3 14 0 3 4 0 7 -7 7 -7 0 -10 -3 -7 -7z"/>
      <path d="M3223 903 c4 -3 10 -3 14 0 3 4 0 7 -7 7 -7 0 -10 -3 -7 -7z"/>
      <path d="M3183 893 c4 -3 10 -3 14 0 3 4 0 7 -7 7 -7 0 -10 -3 -7 -7z"/>
    </g>
    <g id="layer10" fill="#bd7402" stroke="none">
      <path d="M3025 2333 c-11 -2 -39 -13 -62 -24 -48 -21 -109 -95 -94 -113 40 -49 90 -183 106 -288 3 -20 12 -38 19 -41 9 -4 17 -28 21 -64 10 -85 12 -90 47 -95 24 -4 28 -3 17 6 -12 9 -13 21 -4 71 5 33 12 59 15 59 3 -1 40 -5 83 -9 42 -4 77 -11 77 -15 0 -4 8 -10 19 -13 20 -5 35 -65 20 -81 -16 -17 -10 -27 14 -24 20 3 22 8 23 75 0 39 5 77 11 85 6 7 13 42 16 78 4 46 19 97 52 175 26 61 47 116 48 123 7 50 -317 122 -428 95z m190 -297 c35 -15 48 -32 59 -78 l6 -28 -105 0 c-97 0 -105 1 -105 20 0 35 24 73 55 86 39 17 49 17 90 0z m-135 -163 c0 -20 -27 -28 -45 -13 -14 11 -14 15 1 31 13 14 20 16 31 8 7 -6 13 -18 13 -26z m220 1 c11 -12 11 -18 -2 -31 -19 -18 -38 -10 -38 16 0 33 20 40 40 15z"/>
      <path d="M4223 1315 c0 -33 2 -45 4 -27 2 18 2 45 0 60 -2 15 -4 0 -4 -33z"/>
      <path d="M3571 1264 c0 -11 3 -14 6 -6 3 7 2 16 -1 19 -3 4 -6 -2 -5 -13z"/>
      <path d="M4210 1230 c0 -7 3 -10 7 -7 3 4 3 10 0 14 -4 3 -7 0 -7 -7z"/>
      <path d="M3560 1200 c0 -7 3 -10 7 -7 3 4 3 10 0 14 -4 3 -7 0 -7 -7z"/>
      <path d="M4196 1193 c-6 -14 -5 -15 5 -6 7 7 10 15 7 18 -3 3 -9 -2 -12 -12z"/>
      <path d="M3550 1170 c0 -7 3 -10 7 -7 3 4 3 10 0 14 -4 3 -7 0 -7 -7z"/>
      <path d="M4149 1123 c-13 -16 -12 -17 4 -4 9 7 17 15 17 17 0 8 -8 3 -21 -13z"/>
    </g>
    <g id="layer11" fill="#43585d" stroke="none">
      <path d="M4643 2633 c4 -3 10 -3 14 0 3 4 0 7 -7 7 -7 0 -10 -3 -7 -7z"/>
      <path d="M4273 2613 c4 -3 10 -3 14 0 3 4 0 7 -7 7 -7 0 -10 -3 -7 -7z"/>
      <path d="M4323 2613 c4 -3 10 -3 14 0 3 4 0 7 -7 7 -7 0 -10 -3 -7 -7z"/>
      <path d="M4358 2613 c7 -3 16 -2 19 1 4 3 -2 6 -13 5 -11 0 -14 -3 -6 -6z"/>
      <path d="M4739 2603 c31 -3 41 -9 45 -26 4 -18 4 -18 3 3 -2 22 -7 25 -45 26 l-42 1 39 -4z"/>
      <path d="M4633 2593 c4 -3 10 -3 14 0 3 4 0 7 -7 7 -7 0 -10 -3 -7 -7z"/>
      <path d="M4840 2590 c0 -7 3 -10 7 -7 3 4 3 10 0 14 -4 3 -7 0 -7 -7z"/>
      <path d="M4603 2583 c4 -3 10 -3 14 0 3 4 0 7 -7 7 -7 0 -10 -3 -7 -7z"/>
      <path d="M4224 2565 c-3 -8 -4 -20 -2 -27 3 -7 7 -1 10 15 6 29 1 36 -8 12z"/>
      <path d="M4363 2573 c4 -3 10 -3 14 0 3 4 0 7 -7 7 -7 0 -10 -3 -7 -7z"/>
      <path d="M4673 2413 c9 -2 23 -2 30 0 6 3 -1 5 -18 5 -16 0 -22 -2 -12 -5z"/>
      <path d="M4328 2363 c7 -3 16 -2 19 1 4 3 -2 6 -13 5 -11 0 -14 -3 -6 -6z"/>
      <path d="M2799 1803 c-13 -16 -12 -17 4 -4 9 7 17 15 17 17 0 8 -8 3 -21 -13z"/>
      <path d="M2771 1734 c0 -11 3 -14 6 -6 3 7 2 16 -1 19 -3 4 -6 -2 -5 -13z"/>
      <path d="M2070 1720 c0 -7 3 -10 7 -7 3 4 3 10 0 14 -4 3 -7 0 -7 -7z"/>
      <path d="M2040 1680 c0 -7 3 -10 7 -7 3 4 3 10 0 14 -4 3 -7 0 -7 -7z"/>
      <path d="M2092 1668 c7 -15 15 -23 17 -17 2 6 -4 18 -13 27 -15 15 -15 15 -4 -10z"/>
      <path d="M2120 1587 c4 -41 5 -41 8 -8 2 18 0 37 -5 42 -5 5 -6 -11 -3 -34z"/>
      <path d="M2080 1580 c0 -7 3 -10 7 -7 3 4 3 10 0 14 -4 3 -7 0 -7 -7z"/>
      <path d="M2870 1500 c0 -7 3 -10 7 -7 3 4 3 10 0 14 -4 3 -7 0 -7 -7z"/>
      <path d="M2115 1470 c3 -5 8 -10 11 -10 3 0 2 5 -1 10 -3 6 -8 10 -11 10 -3 0 -2 -4 1 -10z"/>
      <path d="M2880 1470 c0 -7 3 -10 7 -7 3 4 3 10 0 14 -4 3 -7 0 -7 -7z"/>
      <path d="M2090 1360 c0 -7 3 -10 7 -7 3 4 3 10 0 14 -4 3 -7 0 -7 -7z"/>
      <path d="M3343 1343 c4 -3 10 -3 14 0 3 4 0 7 -7 7 -7 0 -10 -3 -7 -7z"/>
      <path d="M2081 1304 c0 -11 3 -14 6 -6 3 7 2 16 -1 19 -3 4 -6 -2 -5 -13z"/>
      <path d="M2081 1154 c0 -11 3 -14 6 -6 3 7 2 16 -1 19 -3 4 -6 -2 -5 -13z"/>
      <path d="M2090 1110 c0 -7 3 -10 7 -7 3 4 3 10 0 14 -4 3 -7 0 -7 -7z"/>
      <path d="M2784 1018 c-4 -7 -3 -8 4 -4 12 7 16 16 8 16 -3 0 -8 -5 -12 -12z"/>
      <path d="M2160 995 c13 -14 26 -25 28 -25 3 0 -5 11 -18 25 -13 14 -26 25 -28 25 -3 0 5 -11 18 -25z"/>
      <path d="M2623 923 c4 -3 10 -3 14 0 3 4 0 7 -7 7 -7 0 -10 -3 -7 -7z"/>
      <path d="M2333 903 c4 -3 10 -3 14 0 3 4 0 7 -7 7 -7 0 -10 -3 -7 -7z"/>
      <path d="M2533 903 c4 -3 10 -3 14 0 3 4 0 7 -7 7 -7 0 -10 -3 -7 -7z"/>
      <path d="M2378 893 c7 -3 16 -2 19 1 4 3 -2 6 -13 5 -11 0 -14 -3 -6 -6z"/>
      <path d="M2478 893 c7 -3 16 -2 19 1 4 3 -2 6 -13 5 -11 0 -14 -3 -6 -6z"/>
    </g>
    <g id="layer12" fill="#035584" stroke="none">
      <path d="M4613 2627 c-40 -23 -38 -52 3 -37 14 6 58 11 97 13 68 2 72 1 75 -20 6 -43 48 -24 58 26 l7 32 -111 -2 c-61 -1 -119 -7 -129 -12z"/>
      <path d="M4193 2613 c-27 -4 -33 -9 -33 -27 0 -14 10 -30 25 -40 31 -21 33 -20 37 7 3 21 8 22 83 22 44 0 89 -2 100 -5 16 -4 19 -1 17 15 -2 11 -5 21 -7 23 -5 5 -186 9 -222 5z"/>
      <path d="M4578 2397 l-48 -10 0 -79 c0 -61 -3 -78 -14 -78 -10 0 -16 19 -21 64 -4 34 -10 68 -14 75 -12 18 -211 -9 -229 -32 -10 -12 16 -178 30 -192 3 -3 43 1 88 9 50 10 137 16 225 16 l142 0 12 93 c7 50 14 99 15 108 7 36 -83 48 -186 26z"/>
    </g>
    <g id="layer13" fill="#53321a" stroke="none">
      <path d="M3923 2383 c-13 -2 -23 -8 -23 -13 0 -4 -6 -8 -12 -7 -45 1 -47 -1 -50 -75 -2 -57 -6 -73 -18 -73 -11 0 -17 18 -24 69 l-9 69 -83 -6 c-93 -7 -148 -28 -140 -55 2 -9 10 -50 16 -89 14 -84 8 -82 135 -57 54 10 119 14 200 12 l120 -3 11 100 c11 95 11 101 -8 118 -19 16 -62 20 -115 10z"/>
      <path d="M2795 1770 c3 -5 8 -10 11 -10 3 0 2 5 -1 10 -3 6 -8 10 -11 10 -3 0 -2 -4 1 -10z"/>
      <path d="M2785 1750 c3 -5 8 -10 11 -10 3 0 2 5 -1 10 -3 6 -8 10 -11 10 -3 0 -2 -4 1 -10z"/>
      <path d="M2823 1753 c4 -3 10 -3 14 0 3 4 0 7 -7 7 -7 0 -10 -3 -7 -7z"/>
      <path d="M2810 1730 c0 -7 3 -10 7 -7 3 4 3 10 0 14 -4 3 -7 0 -7 -7z"/>
      <path d="M2743 1713 c-44 -6 -52 -34 -19 -70 l26 -28 0 27 c0 15 4 29 9 32 5 3 11 15 14 26 3 11 4 19 4 18 -1 0 -16 -3 -34 -5z"/>
      <path d="M2815 1685 c-17 -81 -18 -75 14 -75 28 0 111 46 111 61 0 5 6 6 14 3 7 -3 21 2 30 11 9 9 19 14 24 11 4 -2 23 -1 42 3 24 6 -8 9 -97 10 l-133 1 -5 -25z"/>
      <path d="M3305 1664 c17 -8 34 -16 40 -17 5 -1 18 -12 28 -25 10 -12 24 -19 30 -15 7 3 9 3 5 -1 -3 -4 5 -24 18 -43 13 -20 24 -42 24 -49 0 -8 5 -14 11 -14 5 0 7 -4 4 -10 -3 -5 2 -10 13 -10 29 0 55 -35 48 -64 -7 -30 -83 -71 -150 -81 -25 -4 -46 -11 -46 -15 0 -4 -21 -7 -46 -8 -26 0 -50 -5 -53 -10 -3 -6 -13 -10 -21 -10 -45 3 -71 -3 -64 -14 4 -7 3 -8 -4 -4 -14 8 -84 -3 -78 -13 2 -3 -10 -7 -27 -7 -84 -4 -107 -9 -107 -26 0 -34 -41 -110 -85 -157 l-46 -49 50 -40 c58 -46 113 -66 224 -82 160 -23 322 42 423 172 48 62 63 100 74 188 19 140 35 197 81 293 l28 58 -42 -3 -42 -3 -12 -69 c-7 -38 -15 -71 -18 -74 -3 -3 -5 29 -5 70 0 70 -2 76 -22 82 -45 12 -48 9 -48 -56 0 -74 -15 -63 -26 18 l-6 50 -82 27 c-93 31 -114 34 -71 11z"/>
      <path d="M2070 1630 c-8 -5 -10 -10 -5 -10 6 0 17 5 25 10 8 5 11 10 5 10 -5 0 -17 -5 -25 -10z"/>
      <path d="M2776 1568 c5 -7 7 -26 6 -43 -1 -26 0 -27 8 -9 5 12 14 25 20 29 8 5 8 11 -1 21 -14 17 -43 19 -33 2z"/>
      <path d="M4810 1570 c0 -16 23 -60 31 -60 17 0 20 22 5 45 -17 25 -36 33 -36 15z"/>
      <path d="M2132 1520 c0 -14 2 -19 5 -12 2 6 2 18 0 25 -3 6 -5 1 -5 -13z"/>
      <path d="M2819 1523 c-13 -17 -13 -17 6 -3 11 8 22 16 24 17 2 2 0 3 -6 3 -6 0 -17 -8 -24 -17z"/>
      <path d="M4668 1493 c7 -3 16 -2 19 1 4 3 -2 6 -13 5 -11 0 -14 -3 -6 -6z"/>
      <path d="M4620 1480 c0 -7 3 -10 7 -7 3 4 3 10 0 14 -4 3 -7 0 -7 -7z"/>
      <path d="M2650 1476 c0 -2 7 -7 16 -10 8 -3 12 -2 9 4 -6 10 -25 14 -25 6z"/>
      <path d="M2950 1469 c0 -5 5 -7 10 -4 6 3 10 8 10 11 0 2 -4 4 -10 4 -5 0 -10 -5 -10 -11z"/>
      <path d="M2782 1450 c0 -14 2 -19 5 -12 2 6 2 18 0 25 -3 6 -5 1 -5 -13z"/>
      <path d="M4328 1453 c7 -3 16 -2 19 1 4 3 -2 6 -13 5 -11 0 -14 -3 -6 -6z"/>
      <path d="M4360 1450 c0 -7 3 -10 7 -7 3 4 3 10 0 14 -4 3 -7 0 -7 -7z"/>
      <path d="M4635 1450 c3 -5 8 -10 11 -10 3 0 2 5 -1 10 -3 6 -8 10 -11 10 -3 0 -2 -4 1 -10z"/>
      <path d="M4684 1448 c-4 -7 -3 -8 4 -4 7 4 12 9 12 12 0 8 -9 4 -16 -8z"/>
      <path d="M2620 1441 c0 -6 4 -13 10 -16 6 -3 7 1 4 9 -7 18 -14 21 -14 7z"/>
      <path d="M2116 1421 c-5 -7 -3 -18 3 -24 14 -14 20 -6 11 17 -5 15 -9 16 -14 7z"/>
      <path d="M4754 1408 c-4 -7 -3 -8 4 -4 12 7 16 16 8 16 -3 0 -8 -5 -12 -12z"/>
      <path d="M2770 1400 c0 -7 3 -10 7 -7 3 4 3 10 0 14 -4 3 -7 0 -7 -7z"/>
      <path d="M2240 1390 c0 -7 3 -10 7 -7 3 4 3 10 0 14 -4 3 -7 0 -7 -7z"/>
      <path d="M2300 1390 c0 -7 3 -10 7 -7 3 4 3 10 0 14 -4 3 -7 0 -7 -7z"/>
      <path d="M4413 1393 c26 -2 67 -2 90 0 23 2 2 3 -48 3 -49 0 -68 -1 -42 -3z"/>
      <path d="M4298 1383 c6 -2 18 -2 25 0 6 3 1 5 -13 5 -14 0 -19 -2 -12 -5z"/>
      <path d="M4563 1383 c4 -3 10 -3 14 0 3 4 0 7 -7 7 -7 0 -10 -3 -7 -7z"/>
      <path d="M4248 1373 c7 -3 16 -2 19 1 4 3 -2 6 -13 5 -11 0 -14 -3 -6 -6z"/>
      <path d="M2155 1360 c3 -5 8 -10 11 -10 3 0 2 5 -1 10 -3 6 -8 10 -11 10 -3 0 -2 -4 1 -10z"/>
      <path d="M4620 1366 c0 -2 7 -7 16 -10 8 -3 12 -2 9 4 -6 10 -25 14 -25 6z"/>
      <path d="M3323 1343 c4 -3 10 -3 14 0 3 4 0 7 -7 7 -7 0 -10 -3 -7 -7z"/>
      <path d="M4660 1346 c0 -2 8 -10 18 -17 15 -13 16 -12 3 4 -13 16 -21 21 -21 13z"/>
      <path d="M4902 1325 c0 -16 2 -22 5 -12 2 9 2 23 0 30 -3 6 -5 -1 -5 -18z"/>
      <path d="M2175 1330 c3 -5 8 -10 11 -10 3 0 2 5 -1 10 -3 6 -8 10 -11 10 -3 0 -2 -4 1 -10z"/>
      <path d="M4231 1314 c0 -11 3 -14 6 -6 3 7 2 16 -1 19 -3 4 -6 -2 -5 -13z"/>
      <path d="M2931 1294 c0 -11 3 -14 6 -6 3 7 2 16 -1 19 -3 4 -6 -2 -5 -13z"/>
      <path d="M2255 1250 c3 -5 8 -10 11 -10 3 0 2 5 -1 10 -3 6 -8 10 -11 10 -3 0 -2 -4 1 -10z"/>
      <path d="M4220 1250 c0 -7 3 -10 7 -7 3 4 3 10 0 14 -4 3 -7 0 -7 -7z"/>
      <path d="M2523 1193 c4 -3 10 -3 14 0 3 4 0 7 -7 7 -7 0 -10 -3 -7 -7z"/>
      <path d="M4174 1148 c-4 -7 -3 -8 4 -4 12 7 16 16 8 16 -3 0 -8 -5 -12 -12z"/>
      <path d="M4144 1108 c-4 -7 -3 -8 4 -4 12 7 16 16 8 16 -3 0 -8 -5 -12 -12z"/>
      <path d="M4794 1068 c-4 -7 -3 -8 4 -4 7 4 12 9 12 12 0 8 -9 4 -16 -8z"/>
    </g>
    <g id="layer14" fill="#2c0f01" stroke="none">
      <path d="M2820 1842 c0 -5 7 -9 15 -9 8 0 12 4 9 9 -3 4 -9 8 -15 8 -5 0 -9 -4 -9 -8z"/>
      <path d="M2811 1704 c0 -11 3 -14 6 -6 3 7 2 16 -1 19 -3 4 -6 -2 -5 -13z"/>
      <path d="M2993 1693 c4 -3 10 -3 14 0 3 4 0 7 -7 7 -7 0 -10 -3 -7 -7z"/>
      <path d="M2753 1665 c-3 -9 -3 -18 -1 -21 3 -3 8 4 11 16 6 23 -1 27 -10 5z"/>
      <path d="M2802 1655 c0 -16 2 -22 5 -12 2 9 2 23 0 30 -3 6 -5 -1 -5 -18z"/>
      <path d="M2750 1620 c0 -7 3 -10 7 -7 3 4 3 10 0 14 -4 3 -7 0 -7 -7z"/>
      <path d="M2089 1603 c-13 -16 -12 -17 4 -4 9 7 17 15 17 17 0 8 -8 3 -21 -13z"/>
      <path d="M2778 1613 c7 -3 16 -2 19 1 4 3 -2 6 -13 5 -11 0 -14 -3 -6 -6z"/>
      <path d="M2100 1500 c0 -7 3 -10 7 -7 3 4 3 10 0 14 -4 3 -7 0 -7 -7z"/>
      <path d="M2793 1503 c4 -3 10 -3 14 0 3 4 0 7 -7 7 -7 0 -10 -3 -7 -7z"/>
      <path d="M4693 1493 c4 -3 10 -3 14 0 3 4 0 7 -7 7 -7 0 -10 -3 -7 -7z"/>
      <path d="M2871 1487 c2 -1 11 -8 21 -15 12 -10 18 -10 24 -1 4 7 3 9 -4 5 -6 -3 -13 -2 -17 4 -3 5 -11 10 -17 10 -6 0 -9 -1 -7 -3z"/>
      <path d="M4797 1451 c-19 -21 -47 -60 -63 -87 -15 -27 -29 -51 -31 -53 -2 -3 -13 5 -26 16 -48 45 -88 57 -199 61 -58 2 -137 -1 -175 -8 l-70 -11 0 -58 c-1 -61 -25 -130 -63 -179 -20 -25 -21 -27 -3 -40 45 -33 280 -142 328 -152 67 -14 118 -2 177 43 24 17 56 39 72 47 46 24 113 107 136 168 18 47 21 72 18 147 -8 147 -36 177 -101 106z"/>
      <path d="M2629 1463 c-13 -16 -12 -17 4 -4 9 7 17 15 17 17 0 8 -8 3 -21 -13z"/>
      <path d="M3983 1433 c4 -3 10 -3 14 0 3 4 0 7 -7 7 -7 0 -10 -3 -7 -7z"/>
      <path d="M4339 1413 c-13 -16 -12 -17 4 -4 16 13 21 21 13 21 -2 0 -10 -8 -17 -17z"/>
      <path d="M2260 1416 c0 -2 9 -6 20 -9 11 -3 18 -1 14 4 -5 9 -34 13 -34 5z"/>
      <path d="M3290 1381 c0 -5 7 -12 16 -15 14 -5 15 -4 4 9 -14 17 -20 19 -20 6z"/>
      <path d="M3590 1382 c0 -5 7 -9 15 -9 8 0 12 4 9 9 -3 4 -9 8 -15 8 -5 0 -9 -4 -9 -8z"/>
      <path d="M2910 1370 c0 -7 3 -10 7 -7 3 4 3 10 0 14 -4 3 -7 0 -7 -7z"/>
      <path d="M3587 1349 c7 -7 15 -10 18 -7 3 3 -2 9 -12 12 -14 6 -15 5 -6 -5z"/>
      <path d="M2719 1303 c-13 -16 -12 -17 4 -4 16 13 21 21 13 21 -2 0 -10 -8 -17 -17z"/>
      <path d="M3308 1313 c7 -3 16 -2 19 1 4 3 -2 6 -13 5 -11 0 -14 -3 -6 -6z"/>
      <path d="M2210 1285 c13 -14 26 -25 28 -25 3 0 -5 11 -18 25 -13 14 -26 25 -28 25 -3 0 5 -11 18 -25z"/>
      <path d="M3213 1293 c4 -3 10 -3 14 0 3 4 0 7 -7 7 -7 0 -10 -3 -7 -7z"/>
      <path d="M2684 1268 c-4 -7 -3 -8 4 -4 7 4 12 9 12 12 0 8 -9 4 -16 -8z"/>
      <path d="M2931 1264 c0 -11 3 -14 6 -6 3 7 2 16 -1 19 -3 4 -6 -2 -5 -13z"/>
      <path d="M2081 1244 c0 -11 3 -14 6 -6 3 7 2 16 -1 19 -3 4 -6 -2 -5 -13z"/>
      <path d="M2921 1214 c0 -11 3 -14 6 -6 3 7 2 16 -1 19 -3 4 -6 -2 -5 -13z"/>
      <path d="M2081 1204 c0 -11 3 -14 6 -6 3 7 2 16 -1 19 -3 4 -6 -2 -5 -13z"/>
      <path d="M2393 1203 c4 -3 10 -3 14 0 3 4 0 7 -7 7 -7 0 -10 -3 -7 -7z"/>
      <path d="M2448 1183 c6 -2 18 -2 25 0 6 3 1 5 -13 5 -14 0 -19 -2 -12 -5z"/>
      <path d="M2884 1128 c-4 -7 -3 -8 4 -4 12 7 16 16 8 16 -3 0 -8 -5 -12 -12z"/>
      <path d="M2844 1078 l-29 -33 33 29 c30 28 37 36 29 36 -2 0 -16 -15 -33 -32z"/>
      <path d="M2100 1090 c0 -7 3 -10 7 -7 3 4 3 10 0 14 -4 3 -7 0 -7 -7z"/>
      <path d="M2503 903 c4 -3 10 -3 14 0 3 4 0 7 -7 7 -7 0 -10 -3 -7 -7z"/>
      <path d="M2423 893 c9 -2 23 -2 30 0 6 3 -1 5 -18 5 -16 0 -22 -2 -12 -5z"/>
    </g>
    <g id="layer15" fill="#020101" stroke="none">
      <path d="M2812 1810 c-22 -29 -22 -29 -2 -40 27 -15 40 -5 40 30 0 41 -13 44 -38 10z"/>
      <path d="M2780 1732 c0 -28 -1 -31 -15 -67 -15 -37 -10 -54 14 -48 26 7 39 99 17 122 -15 14 -16 13 -16 -7z"/>
      <path d="M2057 1713 c-10 -9 -8 -55 1 -71 5 -7 16 -10 25 -6 20 7 20 4 2 48 -16 38 -18 40 -28 29z"/>
      <path d="M2101 1606 c-12 -14 -12 -26 -2 -71 23 -102 40 -68 23 44 -6 40 -8 42 -21 27z"/>
      <path d="M2814 1512 c-13 -11 -23 -35 -27 -67 -12 -88 -55 -149 -142 -207 -73 -47 -154 -60 -260 -41 -87 16 -166 67 -215 139 -8 12 -27 25 -42 28 -24 5 -28 3 -35 -21 -13 -52 -7 -196 11 -248 41 -119 184 -203 336 -197 114 4 234 35 260 67 7 8 17 15 22 15 6 0 29 15 51 33 142 112 181 217 137 367 -21 72 -57 150 -69 150 -3 -1 -15 -9 -27 -18z"/>
      <path d="M2894 1483 c11 -13 29 -22 40 -22 20 1 20 2 1 6 -11 3 -29 12 -40 22 -20 16 -20 16 -1 -6z"/>
      <path d="M4630 1476 c0 -38 51 -42 71 -5 9 17 6 19 -31 19 -27 0 -40 -4 -40 -14z"/>
      <path d="M3977 1474 c-14 -15 -6 -34 14 -34 14 0 19 5 17 17 -3 18 -20 27 -31 17z"/>
      <path d="M2634 1455 c-7 -18 3 -35 21 -35 15 0 28 27 19 41 -8 14 -34 11 -40 -6z"/>
      <path d="M4287 1443 c-12 -11 -8 -22 14 -33 16 -9 25 -8 40 6 10 9 19 21 19 26 0 10 -64 11 -73 1z"/>
      <path d="M2250 1391 c0 -22 21 -33 40 -21 18 11 4 40 -20 40 -13 0 -20 -7 -20 -19z"/>
      <path d="M3596 1373 c-11 -11 -6 -23 9 -23 8 0 15 4 15 9 0 13 -16 22 -24 14z"/>
      <path d="M3307 1358 c2 -5 17 -8 33 -8 16 0 31 3 33 8 3 4 -12 7 -33 7 -21 0 -36 -3 -33 -7z"/>
    </g>
  </g>
</svg>