<?xml version="1.0" encoding="utf-8"?>
<svg viewBox="0 0 128 72" xmlns="http://www.w3.org/2000/svg">
  <g id="Layer_1">
    <rect fill="#F4F5F5" height="1520" opacity="0" width="727.938" x="-219.984" y="-541"/>
  </g>
  <circle cx="64" cy="36" fill="#EBF0F1" r="66.307"/>
  <g transform="matrix(0.699599, 0, 0, 0.699599, 19.225653, -8.774343)">
    <defs>
      <circle cx="64" cy="64" id="SVGID_23_" r="64"/>
    </defs>
    <polygon clip-path="url(#SVGID_2_)" fill="#D9E1E2" points="29.315 103.933 74.841 137.232 158.164 137.437 157.754 82.563 93.499 31.955 90.391 27.389 81.866 21.489 74.667 23.25 67.718 16.363 45.61 59.233"/>
  </g>
  <g transform="matrix(0.699599, 0, 0, 0.699599, 19.225653, -8.774343)">
    <path d="M58.799,19.683L30.021,82.768c-0.913,2.002-0.023,4.386,1.979,5.299l27.592,12.587     c2.002,0.913,4.386,0.023,5.299-1.979L93.67,35.591c0.913-2.002,0.023-4.386-1.979-5.299L64.099,17.704     C62.097,16.791,59.713,17.682,58.799,19.683z" fill="#016938"/>
    <path d="M44.408,22.075l-3.698,69.24c-0.117,2.197,1.584,4.09,3.781,4.208l30.284,1.617     c2.197,0.117,4.09-1.584,4.208-3.781l3.698-69.24c0.117-2.197-1.584-4.09-3.781-4.208l-30.284-1.617     C46.419,18.177,44.526,19.879,44.408,22.075z" fill="#027B38"/>
    <path d="M32.715,31.142L56.865,96.14c0.766,2.062,3.08,3.123,5.143,2.356l28.429-10.562     c2.062-0.766,3.123-3.08,2.356-5.143L68.643,17.794c-0.766-2.062-3.08-3.123-5.143-2.356L35.072,26     C33.01,26.766,31.949,29.08,32.715,31.142z" fill="#89BC49"/>
    <path d="M32.715,31.142L56.865,96.14c0.766,2.062,3.08,3.123,5.143,2.356l28.429-10.562     c2.062-0.766,3.123-3.08,2.356-5.143L68.643,17.794c-0.766-2.062-3.08-3.123-5.143-2.356L35.072,26     C33.01,26.766,31.949,29.08,32.715,31.142z" fill="#92C142"/>
    <g>
      <defs>
        <path d="M32.715,31.142L56.865,96.14c0.766,2.062,3.08,3.123,5.143,2.356l28.429-10.562       c2.062-0.766,3.123-3.08,2.356-5.143L68.643,17.794c-0.766-2.062-3.08-3.123-5.143-2.356L35.072,26       C33.01,26.766,31.949,29.08,32.715,31.142z" id="SVGID_25_"/>
      </defs>
      <g clip-path="url(#SVGID_4_)">
        <path d="M41.262,22.823c0.114,0.248,0.228,0.496,0.325,0.755l0,0.001l15.399-5.719       c0-0.001-0.001-0.002-0.001-0.003c-0.097-0.26-0.171-0.522-0.247-0.784l11.239-4.176l4.077,10.974       c-0.286,0.139-0.576,0.273-0.878,0.389l19.312,51.978c0.305-0.109,0.611-0.198,0.919-0.279l4.649,12.514l-11.008,4.09       c-0.447-0.68-0.833-1.414-1.129-2.209l0-0.001l-15.399,5.719c0,0.001,0.001,0.002,0.001,0.003       c0.296,0.795,0.483,1.603,0.588,2.41l-10.65,3.957l-4.66-12.542c0.213-0.095,0.422-0.194,0.643-0.276L35.136,37.658       c-0.221,0.082-0.445,0.143-0.667,0.21l-4.088-11.002L41.262,22.823z M38.151,35.948l19.693,53.004       c3.463-0.131,6.804,1.399,8.966,4.107l16.437-6.104c-0.132-3.507,1.436-6.893,4.209-9.052l-19.662-52.92       c-3.509,0.175-6.907-1.365-9.097-4.107L42.261,26.98C42.392,30.444,40.861,33.786,38.151,35.948z" fill="#3C9C36"/>
      </g>
    </g>
    <ellipse cx="62.754" cy="56.967" fill="#3C9C36" rx="9.24" ry="11.806" transform="matrix(-0.3483 -0.9374 0.9374 -0.3483 31.2093 135.6323)"/>
    <path d="M48.913,34.371l2.498,6.724c0.882,2.373,3.52,3.582,5.893,2.7l0.452-0.168     c2.373-0.882,3.582-3.52,2.7-5.893l-2.498-6.724c-0.882-2.373-3.52-3.582-5.893-2.7l-0.452,0.168     C49.241,29.359,48.032,31.998,48.913,34.371z" fill="#3C9C36"/>
    <path d="M64.502,76.33l2.498,6.724c0.882,2.373,3.52,3.582,5.893,2.7l0.452-0.168     c2.373-0.882,3.582-3.52,2.7-5.893l-2.498-6.724c-0.882-2.373-3.52-3.582-5.893-2.7l-0.452,0.168     C64.83,71.318,63.621,73.957,64.502,76.33z" fill="#3C9C36"/>
  </g>
  <path d="M 86.203 64.858 L 41.723 64.858 C 40.178 64.858 38.925 63.605 38.925 62.06 L 38.925 29.363 C 38.925 27.817 40.178 26.565 41.723 26.565 L 86.203 26.565 C 87.749 26.565 89.002 27.817 89.002 29.363 L 89.002 62.06 C 89.002 63.605 87.749 64.858 86.203 64.858 Z" fill="#F49C0B"/>
  <path d="M 86.056 26.565 L 83.846 26.565 C 85.473 26.565 86.792 27.883 86.792 29.511 L 86.792 50.832 L 71.193 49.452 L 85.825 64.083 C 85.301 64.561 84.611 64.86 83.847 64.86 L 86.056 64.86 C 87.683 64.86 89.002 63.541 89.002 61.914 L 89.002 29.511 C 89.002 27.883 87.683 26.565 86.056 26.565 Z" fill="#E48316" opacity="0.67"/>
  <path d="M 80.295 61.977 L 78.817 61.977 C 78.613 61.977 78.449 61.812 78.449 61.609 C 78.449 61.405 78.613 61.241 78.817 61.241 L 80.295 61.241 C 80.499 61.241 80.663 61.405 80.663 61.609 C 80.664 61.812 80.499 61.977 80.295 61.977 Z M 75.119 61.977 L 73.641 61.977 C 73.438 61.977 73.273 61.812 73.273 61.609 C 73.273 61.405 73.438 61.241 73.641 61.241 L 75.119 61.241 C 75.323 61.241 75.487 61.405 75.487 61.609 C 75.487 61.812 75.323 61.977 75.119 61.977 Z M 69.945 61.977 L 68.466 61.977 C 68.263 61.977 68.098 61.812 68.098 61.609 C 68.098 61.405 68.263 61.241 68.466 61.241 L 69.945 61.241 C 70.148 61.241 70.312 61.405 70.312 61.609 C 70.312 61.812 70.148 61.977 69.945 61.977 Z M 64.77 61.977 L 63.291 61.977 C 63.088 61.977 62.923 61.812 62.923 61.609 C 62.923 61.405 63.088 61.241 63.291 61.241 L 64.77 61.241 C 64.973 61.241 65.138 61.405 65.138 61.609 C 65.138 61.812 64.973 61.977 64.77 61.977 Z M 59.595 61.977 L 58.115 61.977 C 57.911 61.977 57.747 61.812 57.747 61.609 C 57.747 61.405 57.911 61.241 58.115 61.241 L 59.595 61.241 C 59.798 61.241 59.963 61.405 59.963 61.609 C 59.963 61.812 59.798 61.977 59.595 61.977 Z M 54.418 61.977 L 52.94 61.977 C 52.736 61.977 52.572 61.812 52.572 61.609 C 52.572 61.405 52.736 61.241 52.94 61.241 L 54.418 61.241 C 54.622 61.241 54.786 61.405 54.786 61.609 C 54.787 61.812 54.622 61.977 54.418 61.977 Z M 49.243 61.977 L 47.765 61.977 C 47.562 61.977 47.397 61.812 47.397 61.609 C 47.397 61.405 47.562 61.241 47.765 61.241 L 49.243 61.241 C 49.447 61.241 49.611 61.405 49.611 61.609 C 49.611 61.812 49.447 61.977 49.243 61.977 Z M 44.068 61.977 L 44.049 61.977 C 43.439 61.977 42.944 61.482 42.944 60.872 L 42.944 60.55 C 42.944 60.347 43.109 60.182 43.312 60.182 C 43.516 60.182 43.68 60.347 43.68 60.55 L 43.68 60.872 C 43.68 61.075 43.845 61.24 44.048 61.24 C 44.252 61.24 44.426 61.405 44.426 61.608 C 44.427 61.812 44.272 61.977 44.068 61.977 Z M 83.99 61.968 C 83.813 61.968 83.656 61.839 83.627 61.657 C 83.596 61.456 83.733 61.268 83.934 61.237 C 84.112 61.209 84.246 61.053 84.246 60.873 L 84.246 60.437 C 84.246 60.233 84.41 60.069 84.614 60.069 C 84.817 60.069 84.982 60.233 84.982 60.437 L 84.982 60.873 C 84.982 61.42 84.589 61.88 84.048 61.964 C 84.03 61.967 84.01 61.968 83.99 61.968 Z M 43.313 57.222 C 43.109 57.222 42.945 57.058 42.945 56.854 L 42.945 55.375 C 42.945 55.171 43.109 55.007 43.313 55.007 C 43.516 55.007 43.681 55.171 43.681 55.375 L 43.681 56.854 C 43.681 57.058 43.516 57.222 43.313 57.222 Z M 84.614 57.108 C 84.41 57.108 84.246 56.944 84.246 56.74 L 84.246 55.261 C 84.246 55.057 84.41 54.893 84.614 54.893 C 84.817 54.893 84.982 55.057 84.982 55.261 L 84.982 56.74 C 84.982 56.943 84.817 57.108 84.614 57.108 Z M 43.313 52.047 C 43.109 52.047 42.945 51.882 42.945 51.679 L 42.945 50.2 C 42.945 49.997 43.109 49.832 43.313 49.832 C 43.516 49.832 43.681 49.997 43.681 50.2 L 43.681 51.679 C 43.681 51.882 43.516 52.047 43.313 52.047 Z M 43.313 46.872 C 43.109 46.872 42.945 46.707 42.945 46.504 L 42.945 45.025 C 42.945 44.821 43.109 44.657 43.313 44.657 C 43.516 44.657 43.681 44.821 43.681 45.025 L 43.681 46.503 C 43.681 46.707 43.516 46.872 43.313 46.872 Z M 43.313 41.697 C 43.109 41.697 42.945 41.532 42.945 41.329 L 42.945 39.851 C 42.945 39.647 43.109 39.483 43.313 39.483 C 43.516 39.483 43.681 39.647 43.681 39.851 L 43.681 41.329 C 43.681 41.532 43.516 41.697 43.313 41.697 Z M 43.313 36.521 C 43.109 36.521 42.945 36.356 42.945 36.153 L 42.945 34.674 C 42.945 34.471 43.109 34.306 43.313 34.306 C 43.516 34.306 43.681 34.471 43.681 34.674 L 43.681 36.153 C 43.681 36.356 43.516 36.521 43.313 36.521 Z M 84.614 36.406 C 84.41 36.406 84.246 36.242 84.246 36.038 L 84.246 34.56 C 84.246 34.357 84.41 34.192 84.614 34.192 C 84.817 34.192 84.982 34.357 84.982 34.56 L 84.982 36.038 C 84.982 36.241 84.817 36.406 84.614 36.406 Z M 43.313 31.346 C 43.109 31.346 42.945 31.181 42.945 30.978 L 42.945 30.551 C 42.945 30.004 43.353 29.534 43.894 29.457 C 44.091 29.433 44.281 29.567 44.31 29.769 C 44.338 29.971 44.199 30.157 43.997 30.186 C 43.817 30.212 43.682 30.368 43.682 30.55 L 43.682 30.977 C 43.681 31.181 43.516 31.346 43.313 31.346 Z M 84.614 31.232 C 84.41 31.232 84.246 31.067 84.246 30.864 L 84.246 30.552 C 84.246 30.349 84.081 30.184 83.878 30.184 C 83.674 30.184 83.504 30.019 83.504 29.816 C 83.504 29.612 83.664 29.448 83.868 29.448 L 83.877 29.448 C 84.486 29.448 84.982 29.943 84.982 30.552 L 84.982 30.864 C 84.982 31.066 84.817 31.232 84.614 31.232 Z M 80.171 30.183 L 78.693 30.183 C 78.489 30.183 78.325 30.018 78.325 29.815 C 78.325 29.611 78.489 29.447 78.693 29.447 L 80.171 29.447 C 80.375 29.447 80.539 29.611 80.539 29.815 C 80.539 30.018 80.374 30.183 80.171 30.183 Z M 74.996 30.183 L 73.517 30.183 C 73.314 30.183 73.149 30.018 73.149 29.815 C 73.149 29.611 73.314 29.447 73.517 29.447 L 74.996 29.447 C 75.199 29.447 75.364 29.611 75.364 29.815 C 75.364 30.018 75.199 30.183 74.996 30.183 Z M 69.821 30.183 L 68.342 30.183 C 68.139 30.183 67.974 30.018 67.974 29.815 C 67.974 29.611 68.139 29.447 68.342 29.447 L 69.821 29.447 C 70.024 29.447 70.189 29.611 70.189 29.815 C 70.189 30.018 70.024 30.183 69.821 30.183 Z M 64.646 30.183 L 63.166 30.183 C 62.962 30.183 62.798 30.018 62.798 29.815 C 62.798 29.611 62.962 29.447 63.166 29.447 L 64.646 29.447 C 64.849 29.447 65.014 29.611 65.014 29.815 C 65.014 30.018 64.849 30.183 64.646 30.183 Z M 59.47 30.183 L 57.992 30.183 C 57.788 30.183 57.624 30.018 57.624 29.815 C 57.624 29.611 57.788 29.447 57.992 29.447 L 59.47 29.447 C 59.674 29.447 59.838 29.611 59.838 29.815 C 59.838 30.018 59.674 30.183 59.47 30.183 Z M 54.294 30.183 L 52.816 30.183 C 52.613 30.183 52.448 30.018 52.448 29.815 C 52.448 29.611 52.613 29.447 52.816 29.447 L 54.294 29.447 C 54.498 29.447 54.662 29.611 54.662 29.815 C 54.662 30.018 54.498 30.183 54.294 30.183 Z M 49.12 30.183 L 47.64 30.183 C 47.436 30.183 47.272 30.018 47.272 29.815 C 47.272 29.611 47.436 29.447 47.64 29.447 L 49.12 29.447 C 49.323 29.447 49.488 29.611 49.488 29.815 C 49.488 30.018 49.323 30.183 49.12 30.183 Z" fill="#FBCA76"/>
  <path d="M 41.134 61.912 L 41.134 29.511 C 41.134 27.884 42.453 26.565 44.08 26.565 L 41.871 26.565 C 40.244 26.565 38.925 27.883 38.925 29.511 L 38.925 61.913 C 38.925 63.54 40.244 64.859 41.871 64.859 L 44.08 64.859 C 42.453 64.858 41.134 63.54 41.134 61.912 Z" fill="#F9C187" opacity="0.5"/>
  <path d="M 89.075 51.603 L 75.451 51.603 C 72.36 51.603 69.854 49.097 69.854 46.006 L 69.854 45.417 C 69.854 42.326 72.36 39.821 75.451 39.821 L 89.075 39.821 C 89.848 39.821 90.474 40.447 90.474 41.22 L 90.474 50.204 C 90.474 50.976 89.848 51.603 89.075 51.603 Z" fill="#D17311"/>
  <g transform="matrix(0.699599, 0, 0, 0.699599, 19.225653, -8.774343)">
    <defs>
      <path d="M99.737,69.461h-5.06v16.842h5.06c1.163,0,2.105-0.943,2.105-2.105V71.566      C101.842,70.403,100.9,69.461,99.737,69.461z" id="SVGID_27_"/>
    </defs>
    <rect clip-path="url(#SVGID_6_)" fill="#CA6213" height="25.674" width="3.158" x="98.684" y="65.63"/>
  </g>
  <g transform="matrix(0.699599, 0, 0, 0.699599, 19.225653, -8.774343)">
    <defs>
      <path d="M99.842,86.303H80.368c-4.418,0-8-3.582-8-8v-0.842c0-4.418,3.582-8,8-8h19.474c1.105,0,2,0.895,2,2      v12.842C101.842,85.407,100.947,86.303,99.842,86.303z" id="SVGID_29_"/>
    </defs>
    <polygon clip-path="url(#SVGID_8_)" fill="#C56415" points="77.794,80.692 83.973,86.771 94.836,86.771 83.333,75.266    "/>
  </g>
  <g transform="matrix(0.699599, 0, 0, 0.699599, 19.225653, -8.774343)">
    <circle cx="80.467" cy="77.882" fill="#D8B997" r="3.888"/>
    <path d="M78.684,77.882c0-1.511,0.471-2.866,1.217-3.831c-1.877,0.276-3.322,1.877-3.322,3.831     c0,1.953,1.446,3.555,3.322,3.831C79.155,80.748,78.684,79.393,78.684,77.882z" fill="#F1D2AE"/>
    <path d="M82.249,77.882c0,1.511-0.471,2.866-1.217,3.831c1.877-0.276,3.322-1.877,3.322-3.831     c0-1.953-1.446-3.555-3.322-3.831C81.778,75.015,82.249,76.37,82.249,77.882z" fill="#C8A57E"/>
  </g>
</svg>